<?xml version="1.0" standalone="no"?>
<!DOCTYPE svg PUBLIC "-//W3C//DTD SVG 20010904//EN"
 "http://www.w3.org/TR/2001/REC-SVG-20010904/DTD/svg10.dtd">
<svg version="1.0" xmlns="http://www.w3.org/2000/svg"
 width="225.000000pt" height="225.000000pt" viewBox="0 0 225.000000 225.000000"
 preserveAspectRatio="xMidYMid meet">

<g transform="translate(0.000000,225.000000) scale(0.100000,-0.100000)"
fill="#000000" stroke="none">
<path d="M0 1125 l0 -1125 1125 0 1125 0 0 1125 0 1125 -1125 0 -1125 0 0
-1125z m996 731 c3 -13 15 -33 27 -45 25 -23 110 -61 90 -40 -17 17 -17 72 -1
67 7 -3 16 -19 21 -37 6 -24 20 -39 54 -59 26 -15 61 -42 79 -59 21 -21 34
-28 37 -20 2 6 8 0 12 -15 4 -16 11 -25 16 -22 19 11 21 -27 3 -49 -10 -12
-12 -16 -4 -9 8 6 22 12 32 12 10 0 18 6 18 13 0 6 5 4 11 -6 13 -21 4 -37
-21 -37 -10 0 -22 -4 -25 -10 -3 -5 0 -7 8 -4 11 4 14 -2 11 -24 -2 -18 3 -35
11 -42 8 -7 12 -16 9 -21 -3 -5 8 -12 25 -15 37 -8 64 -35 55 -57 -3 -10 -10
-15 -14 -12 -5 3 -12 1 -15 -5 -6 -10 -72 -12 -107 -3 -10 2 -18 10 -18 18 0
7 -4 15 -10 17 -6 2 -6 8 0 18 9 13 11 13 20 0 6 -10 10 -11 10 -2 0 6 5 12
10 12 6 0 9 -5 8 -12 -2 -6 15 -17 37 -23 22 -7 34 -14 27 -18 -7 -3 -8 -5 -1
-4 6 2 9 5 7 8 -2 3 3 13 11 23 8 9 11 20 7 24 -4 4 -12 -1 -17 -11 -6 -9 -16
-17 -23 -17 -16 0 -50 36 -39 42 4 3 2 3 -6 1 -8 -2 -18 2 -23 9 -5 9 -8 10
-8 1 0 -8 -11 -10 -32 -7 -41 6 -69 -9 -50 -28 9 -9 12 -9 12 0 0 7 7 12 16
12 8 0 12 -5 9 -11 -4 -5 1 -19 10 -29 12 -14 13 -20 4 -26 -8 -5 -10 -3 -4 6
6 9 4 11 -5 5 -9 -6 -11 -4 -5 5 5 9 4 11 -3 6 -17 -11 49 -100 77 -104 28 -4
49 12 30 23 -8 5 -10 4 -5 -3 5 -8 -2 -12 -19 -12 -15 0 -24 4 -20 10 4 6 1 9
-6 8 -6 -2 -14 3 -16 10 -3 8 2 10 14 6 14 -5 15 -4 3 4 -8 6 -18 8 -23 5 -5
-3 -7 0 -5 8 7 18 47 13 70 -8 15 -13 18 -13 19 -2 1 17 17 -29 18 -54 1 -10
-3 -16 -8 -13 -10 6 -61 -16 -61 -26 0 -5 -4 -8 -10 -8 -5 0 -10 7 -10 16 0 8
-4 12 -10 9 -5 -3 -10 1 -10 9 0 9 -4 16 -9 16 -5 0 -15 15 -21 34 -6 19 -18
40 -26 47 -8 6 -12 20 -9 30 3 9 2 20 -3 23 -5 3 -12 -13 -15 -35 -7 -55 -31
-79 -78 -79 -50 0 -92 36 -119 103 -11 29 -19 42 -16 30 2 -13 2 -23 0 -23
-12 0 -62 30 -74 45 -7 9 -16 12 -19 8 -3 -5 -25 -17 -49 -28 -24 -10 -52 -29
-62 -42 -16 -21 -22 -23 -42 -13 -22 10 -22 10 -4 -4 17 -14 18 -19 6 -60 -10
-35 -10 -56 -1 -91 6 -25 9 -50 6 -55 -4 -6 1 -7 11 -3 12 4 15 3 10 -6 -4 -6
-4 -11 1 -10 4 1 25 -5 45 -14 22 -10 64 -17 103 -17 45 0 65 -4 66 -12 0 -7
4 -4 9 7 8 19 9 19 9 -2 1 -17 -7 -24 -36 -32 -52 -15 -153 -13 -179 2 -12 6
-39 22 -60 34 -22 12 -32 22 -24 23 9 0 4 6 -10 13 -31 15 -53 92 -45 152 8
54 35 116 48 108 6 -3 7 -1 3 6 -18 28 73 104 152 127 36 11 51 19 44 26 -6 6
-17 6 -30 -1 -11 -6 -28 -8 -38 -4 -12 4 -15 3 -10 -5 4 -7 2 -12 -3 -12 -14
0 -14 10 -1 30 9 13 11 13 20 0 7 -10 12 -12 18 -4 13 20 55 7 86 -27 19 -22
28 -27 23 -14 -7 20 -7 20 8 1 8 -11 15 -26 15 -35 0 -8 3 -11 6 -8 4 3 16 0
28 -8 11 -8 27 -15 36 -15 8 0 1 8 -15 19 -32 19 -73 71 -56 71 5 0 13 -4 16
-10 8 -13 42 -13 50 -1 3 5 0 13 -6 17 -8 4 -9 3 -5 -4 4 -7 4 -12 -1 -12 -12
0 -76 24 -91 33 -7 5 -27 10 -44 12 -34 5 -56 18 -23 15 11 -1 34 -1 50 -1 29
2 29 3 7 12 -13 5 -28 6 -33 3 -5 -3 -8 0 -7 7 2 8 -12 21 -29 30 -18 9 -30
19 -26 23 13 13 45 5 96 -24 30 -16 58 -30 63 -30 5 0 -15 14 -45 31 -65 37
-171 138 -171 162 0 26 31 34 46 11 42 -62 60 -83 68 -84 6 0 19 -8 30 -19 12
-10 32 -21 46 -25 24 -6 24 -6 3 5 -32 17 -40 42 -10 33 12 -4 25 -12 29 -18
5 -7 8 -4 8 7 0 24 13 21 25 -5 6 -12 26 -33 45 -46 19 -13 34 -28 33 -33 -2
-4 4 -6 13 -2 11 4 1 15 -36 40 -53 36 -64 54 -27 46 12 -2 2 6 -22 19 -58 31
-105 89 -96 117 9 28 33 27 41 -3z m521 -209 c27 -55 42 -73 91 -106 109 -74
120 -168 23 -187 -30 -6 -37 -2 -90 55 -57 62 -92 76 -118 50 -20 -20 -36 1
-17 22 35 39 94 19 144 -49 41 -56 71 -70 105 -48 16 11 25 26 25 43 0 25 -23
52 -121 139 -21 18 -40 48 -48 74 -7 24 -27 57 -44 74 -26 25 -27 28 -7 15 14
-8 40 -45 57 -82z m-683 19 c-4 -11 -45 -36 -58 -36 -2 0 -3 8 -2 18 1 14 20
25 58 31 4 0 5 -5 2 -13z m59 -41 c-4 -16 -50 -18 -50 -3 0 8 11 14 26 13 14
0 25 -4 24 -10z m-147 -8 c-86 -56 -155 -138 -182 -219 -18 -56 -23 -159 -10
-223 7 -35 9 -38 20 -23 7 10 17 14 21 10 5 -4 5 -1 1 6 -5 8 2 22 18 37 30
28 32 35 9 35 -14 0 -14 2 3 21 10 11 14 19 9 17 -6 -2 -10 2 -10 7 0 6 4 9 8
7 5 -1 6 2 3 7 -4 5 0 12 6 15 7 3 6 4 -4 3 -9 -1 -18 3 -19 8 -1 6 -9 15 -18
22 -15 11 -15 12 0 13 9 0 22 -7 29 -15 7 -8 16 -12 21 -10 4 3 6 -5 3 -17
-15 -61 -9 -104 20 -160 21 -40 36 -58 49 -58 13 0 17 -5 13 -15 -3 -8 -1 -15
4 -15 6 0 10 -7 10 -15 0 -8 5 -15 11 -15 5 0 7 5 4 10 -3 6 1 10 9 10 9 0 15
-3 15 -7 -3 -20 2 -34 11 -28 5 3 7 13 4 23 -5 14 -4 14 6 -1 17 -26 -1 -43
-28 -28 -14 7 -23 8 -27 1 -3 -5 -1 -10 6 -10 10 0 10 -3 2 -11 -6 -6 -9 -18
-6 -25 3 -8 0 -14 -5 -14 -13 0 -26 36 -18 49 4 5 0 12 -6 14 -10 4 -9 8 2 16
10 7 11 11 3 11 -7 0 -14 10 -14 23 l-2 22 -4 -22 c-5 -25 -33 -32 -33 -8 0 8
5 15 10 15 6 0 10 4 10 10 0 6 -15 8 -36 4 l-35 -5 15 30 c18 35 19 41 7 41
-5 0 -13 -15 -17 -32 -4 -18 -9 -36 -10 -40 -1 -5 -2 -11 -3 -15 -2 -10 -24
27 -27 44 -1 6 4 9 12 6 10 -4 12 0 8 11 -3 9 -1 16 6 16 6 0 8 5 4 11 -5 8
-10 6 -16 -5 -5 -9 -16 -16 -23 -16 -8 0 -15 -5 -15 -12 0 -9 -3 -9 -12 0 -8
8 -15 9 -25 1 -11 -9 -13 1 -13 52 0 35 5 81 11 102 12 44 4 64 -18 46 -12
-11 -13 -8 -7 17 11 46 42 102 81 145 36 39 40 64 6 38 -17 -13 -17 -13 -3 6
23 31 41 44 95 70 53 26 96 34 61 12z m64 -3 c0 -8 -5 -12 -10 -9 -6 4 -8 11
-5 16 9 14 15 11 15 -7z m-40 -25 c-27 -8 -27 -8 9 -15 14 -2 28 1 33 8 5 8 6
1 2 -17 -4 -16 -11 -34 -17 -40 -7 -7 -8 -4 -4 7 3 10 2 20 -3 23 -6 4 -10 -4
-10 -17 0 -15 -16 -39 -44 -65 -42 -39 -44 -40 -50 -20 -9 35 -7 47 9 47 18 0
20 -16 3 -23 -8 -3 -6 -6 5 -6 11 -1 17 6 17 19 0 19 -19 26 -57 21 -7 -1 -13
3 -13 9 0 5 15 10 34 10 28 0 35 4 41 27 8 32 33 53 55 45 11 -5 9 -8 -10 -13z
m-56 -33 c-6 -15 -24 -23 -24 -11 0 8 24 34 28 30 1 -1 0 -10 -4 -19z m256 -6
c0 -15 -5 -12 -26 11 -19 22 -19 22 4 10 12 -6 22 -16 22 -21z m-300 -70 c0
-10 5 -31 12 -45 9 -21 9 -28 -1 -34 -7 -5 -12 -11 -11 -15 3 -19 -19 -39 -36
-32 -15 6 -16 9 -4 16 8 5 18 6 22 4 12 -8 9 11 -4 24 -9 9 -8 12 6 12 12 0
16 5 12 16 -3 9 -9 26 -12 39 -4 16 -11 22 -22 18 -10 -4 -13 -2 -8 5 12 20
46 14 46 -8z m-26 -19 c3 -5 -4 -11 -15 -14 -13 -4 -18 -10 -14 -17 6 -9 10
-9 16 1 6 10 11 11 19 3 9 -9 4 -13 -16 -18 -36 -9 -48 5 -26 32 18 24 28 27
36 13z m-49 -61 c-4 -7 2 -9 19 -4 15 4 26 2 26 -4 0 -6 -13 -13 -30 -17 -36
-8 -36 -9 -10 -45 12 -16 16 -31 11 -35 -5 -3 -14 3 -20 12 -5 10 -13 14 -17
10 -5 -5 -2 -12 6 -17 11 -7 11 -11 1 -23 -8 -11 -9 -17 -1 -22 6 -3 8 -11 5
-16 -14 -22 -22 -5 -22 46 0 30 4 55 8 55 4 0 7 6 6 13 -1 35 4 57 14 57 5 0
7 -5 4 -10z m327 -86 l-5 -27 22 22 c12 12 27 19 33 15 7 -4 5 -10 -6 -16 -9
-5 -16 -16 -16 -24 0 -10 5 -12 13 -7 18 11 36 12 43 2 3 -5 1 -9 -4 -9 -5 0
-24 -13 -43 -30 l-34 -29 18 -30 c17 -30 17 -31 0 -24 -10 3 -25 12 -34 20
-13 11 -18 10 -34 -7 -25 -27 -49 -26 -42 1 5 19 2 21 -23 16 -26 -6 -28 -4
-32 28 -4 37 7 48 17 17 3 -11 16 -24 29 -30 21 -9 27 -6 54 27 21 26 29 45
25 60 -3 11 0 28 7 36 17 20 18 19 12 -11z m-307 -43 c7 -12 -12 -24 -25 -16
-11 7 -4 25 10 25 5 0 11 -4 15 -9z m870 -31 c17 0 52 -13 78 -30 50 -32 62
-47 24 -29 -17 8 -36 7 -68 -1 -36 -10 -40 -14 -24 -20 11 -4 23 -3 26 2 7 12
25 -10 33 -42 7 -25 7 -25 -11 -5 -10 11 -25 21 -33 23 -13 3 38 -60 65 -80 6
-4 7 -8 3 -8 -3 0 -15 -3 -25 -6 -15 -5 -16 -4 -3 6 13 10 13 11 -2 6 -11 -3
-26 5 -42 24 -40 48 -102 74 -182 78 -62 4 -86 -1 -179 -33 -59 -20 -109 -34
-112 -31 -17 17 17 36 109 61 119 33 229 37 291 12 44 -19 48 -11 10 20 l-28
23 28 -10 c41 -14 43 -13 13 11 -14 11 -26 28 -26 37 0 12 3 13 12 4 7 -7 26
-12 43 -12z m201 -6 c-3 -8 -2 -12 4 -9 6 3 13 0 16 -9 3 -8 12 -12 21 -9 17
7 33 -13 33 -42 0 -16 -2 -17 -9 -5 -6 8 -7 18 -5 22 3 4 -2 5 -10 2 -8 -3
-25 -22 -36 -42 -21 -35 -21 -37 -3 -50 16 -12 15 -13 -12 -10 -26 3 -30 7
-28 33 0 17 -1 24 -4 18 -5 -13 -50 -17 -77 -7 -8 3 -12 12 -9 20 3 9 0 14 -7
12 -7 -2 -15 3 -17 10 -6 16 5 15 57 -3 55 -19 57 -19 35 5 -14 15 -16 23 -7
32 8 8 15 8 25 0 11 -9 13 -6 9 18 -3 23 0 30 13 30 11 0 15 -5 11 -16z
m-1071 -4 c3 -6 -1 -13 -10 -16 -19 -8 -30 0 -20 15 8 14 22 14 30 1z m-29
-37 c-10 -11 -19 -7 -22 10 -2 15 0 16 12 6 8 -6 12 -14 10 -16z m234 -33 c0
-5 -4 -10 -10 -10 -5 0 -10 5 -10 10 0 6 5 10 10 10 6 0 10 -4 10 -10z m464
-26 c4 -11 2 -15 -8 -11 -10 4 -12 0 -9 -14 3 -10 1 -19 -5 -19 -17 0 -57 38
-49 47 5 4 15 0 22 -10 13 -18 14 -17 20 2 8 25 21 27 29 5z m45 3 c11 -14 5
-27 -12 -27 -5 0 -7 7 -4 14 4 10 1 13 -9 9 -7 -3 -14 0 -14 6 0 15 25 14 39
-2z m41 -13 c0 -20 -7 -17 -20 6 -9 16 -8 18 5 14 8 -4 15 -12 15 -20z m34 10
c22 -8 20 -27 -4 -49 -11 -10 -20 -16 -20 -12 0 3 -3 13 -7 23 -5 13 -3 16 9
12 8 -4 15 -1 15 8 0 7 -4 11 -9 8 -4 -3 -8 0 -8 5 0 13 3 13 24 5z m-214 -24
c-6 -11 -8 -20 -4 -20 3 0 1 -6 -5 -14 -9 -10 -8 -16 5 -26 10 -9 13 -22 9
-38 -5 -20 -3 -23 10 -18 9 3 35 9 58 12 23 4 48 13 54 22 11 13 13 13 19 -1
3 -10 17 -17 30 -17 61 0 110 -66 100 -133 -9 -56 -38 -91 -98 -121 -64 -32
-131 -34 -214 -6 -73 25 -231 113 -191 107 15 -2 27 0 27 4 0 17 17 9 110 -51
95 -61 127 -73 116 -44 -5 12 -2 14 17 7 12 -4 50 -8 83 -8 47 0 67 5 83 19
27 25 27 36 -1 36 -21 1 -21 2 -5 11 24 14 47 62 47 98 0 20 -8 36 -26 50 -34
26 -44 26 -51 0 -4 -15 -11 -19 -27 -15 -54 16 -109 18 -151 6 -55 -15 -74
-34 -48 -48 27 -15 -43 -26 -129 -20 -70 5 -108 24 -93 47 10 17 25 3 19 -17
-5 -14 -4 -15 5 -2 9 12 11 12 11 1 0 -19 67 -9 157 24 86 32 98 54 47 86 -37
22 -41 35 -21 64 10 12 16 15 21 6 5 -8 11 -7 22 4 21 21 27 19 14 -5z m145
-50 c-4 -7 -14 -1 -26 14 -28 36 -23 53 7 23 14 -14 23 -31 19 -37z m30 26
l15 -35 28 27 c15 15 26 31 23 36 -5 10 9 3 52 -26 34 -24 35 -38 1 -38 -14 0
-23 -4 -19 -10 3 -5 12 -7 20 -3 8 3 15 0 15 -6 0 -6 -11 -11 -25 -11 -20 0
-25 5 -25 25 0 17 6 25 17 25 22 0 8 13 -17 15 -17 1 -19 -3 -16 -32 5 -37
-11 -54 -29 -30 -14 20 -29 23 -20 5 4 -7 -3 -2 -14 12 -11 14 -19 31 -16 38
3 7 1 10 -4 7 -12 -7 -24 12 -16 25 10 16 15 12 30 -24z m-745 -60 c0 -29 -18
-16 -34 24 -23 59 -20 70 9 28 14 -20 25 -44 25 -52z m608 65 c3 -8 -1 -12 -9
-9 -7 2 -15 10 -17 17 -3 8 1 12 9 9 7 -2 15 -10 17 -17z m-120 -8 c-2 -10 3
-23 10 -29 8 -6 12 -19 10 -30 -4 -17 -6 -16 -16 6 -6 14 -11 18 -11 11 -1
-11 -4 -12 -12 -4 -12 12 -2 63 13 63 5 0 8 -8 6 -17z m-333 -3 c3 -5 -1 -10
-9 -10 -9 0 -16 5 -16 10 0 6 4 10 9 10 6 0 13 -4 16 -10z m298 -10 c-3 -11
-9 -18 -13 -15 -4 2 -5 -7 -2 -22 3 -18 1 -24 -7 -19 -16 10 -14 42 5 60 20
21 23 20 17 -4z m187 -5 c18 11 21 -17 4 -36 -19 -21 -39 -26 -28 -6 5 8 2 8
-9 -2 -15 -12 -17 -11 -17 3 0 9 8 29 17 43 15 22 19 24 21 10 2 -10 7 -15 12
-12z m30 9 c0 -8 4 -13 9 -10 14 9 21 -20 8 -33 -17 -17 -29 -13 -22 8 3 11 1
22 -5 26 -13 8 -13 25 0 25 6 0 10 -7 10 -16z m-622 -27 c2 -16 -2 -27 -8 -27
-8 0 -10 9 -5 27 5 23 4 25 -8 14 -15 -12 -33 0 -20 13 15 15 38 -1 41 -27z
m542 18 c0 -8 -4 -15 -9 -15 -13 0 -22 16 -14 24 11 11 23 6 23 -9z m-685 -27
c-5 -28 -4 -30 10 -18 27 23 39 -9 14 -36 -13 -14 -19 -32 -17 -50 3 -26 0
-29 -27 -32 -21 -2 -26 0 -16 6 11 8 11 16 1 46 -12 38 -50 70 -50 42 0 -8 -5
-18 -12 -22 -8 -5 -9 -2 -4 12 5 10 9 25 9 32 0 14 37 17 37 2 0 -5 7 -7 15
-4 8 4 15 10 15 16 0 5 -4 6 -10 3 -14 -9 -12 3 3 20 22 26 38 18 32 -17z
m501 0 c-4 -18 -11 -34 -16 -36 -6 -2 -10 -13 -10 -25 0 -13 -3 -18 -10 -11
-6 6 -3 26 8 57 19 54 38 63 28 15z m331 -4 c-9 -9 -28 6 -21 18 4 6 10 6 17
-1 6 -6 8 -13 4 -17z m-497 -5 c0 8 3 12 6 9 11 -11 -17 -50 -32 -44 -8 3 -14
1 -14 -5 0 -6 -6 -9 -14 -6 -8 3 -17 -1 -20 -8 -4 -11 0 -12 19 -5 14 5 25 7
25 3 0 -3 9 2 20 12 17 16 20 16 20 2 0 -22 17 -30 24 -11 3 8 2 13 -3 10 -10
-7 -23 19 -14 28 8 8 43 -24 43 -38 0 -33 -89 -61 -106 -34 -3 5 -10 5 -16 2
-11 -7 -28 13 -28 33 0 7 16 19 35 27 27 11 33 19 29 33 -6 15 -4 15 9 -2 12
-14 16 -16 17 -6z m98 8 c7 -5 12 -4 12 2 0 6 5 11 10 11 11 0 2 -51 -10 -60
-3 -3 -10 -14 -13 -24 -6 -15 -5 -17 7 -7 11 9 15 8 20 -5 15 -39 -29 -26 -50
14 -6 12 -18 30 -27 40 -19 21 -22 32 -7 32 6 0 10 -8 11 -17 0 -11 3 -13 6
-5 2 6 10 9 16 5 7 -4 7 0 -1 9 -11 14 -11 16 0 14 7 -1 19 -5 26 -9z m-244
-19 c8 -33 8 -35 -9 -42 -8 -3 -14 0 -12 7 1 7 -7 11 -20 9 -13 -2 -23 2 -23
7 0 6 9 11 20 11 13 0 18 5 14 15 -4 9 0 15 9 15 8 0 17 -10 21 -22z m377 -6
c0 -11 2 -12 6 -4 7 17 23 5 23 -19 0 -11 -4 -18 -9 -15 -5 4 -12 0 -14 -6 -4
-8 -6 -7 -6 3 -1 9 -7 19 -15 22 -9 4 -12 14 -9 26 6 24 23 18 24 -7z m439 18
c0 -5 -4 -10 -10 -10 -5 0 -10 5 -10 10 0 6 5 10 10 10 6 0 10 -4 10 -10z m74
-30 c27 -67 16 -188 -19 -223 -8 -8 -12 -17 -9 -20 3 -3 -13 -26 -36 -51 -45
-49 -130 -97 -161 -91 -10 2 -19 0 -19 -6 0 -5 -35 -9 -77 -9 -118 1 -259 54
-259 98 0 14 4 18 12 12 11 -10 24 -3 24 12 0 5 -5 6 -10 3 -6 -4 -10 5 -8 23
2 27 4 29 27 21 13 -6 31 -17 38 -27 8 -9 11 -11 7 -3 -5 10 -3 12 7 5 8 -4
20 -9 27 -10 20 -3 25 -11 16 -26 -5 -7 -7 -20 -6 -30 6 -33 -16 -27 -22 7 -7
35 -19 44 -31 25 -4 -6 -10 -8 -15 -5 -5 3 -11 1 -15 -5 -3 -5 -16 -10 -28
-11 -15 0 -5 -9 33 -27 50 -24 66 -27 170 -27 65 0 118 -4 122 -10 5 -6 8 -3
8 6 0 8 17 25 39 37 21 12 58 41 81 64 24 24 47 44 51 44 5 1 15 2 22 3 7 1 6
5 -5 11 -13 8 -15 16 -7 43 12 43 11 119 -1 153 -6 15 -9 33 -6 41 10 25 34
13 50 -27z m-436 8 c2 -9 -5 -18 -14 -22 -22 -9 -27 -2 -19 24 7 23 28 22 33
-2z m-93 -48 c-11 -17 -35 -12 -28 7 4 10 2 14 -4 10 -13 -8 -22 12 -15 31 3
8 12 5 29 -12 14 -14 22 -30 18 -36z m-435 40 c0 -5 -5 -10 -11 -10 -6 0 -3
-7 6 -16 15 -16 15 -18 -4 -37 -16 -17 -25 -19 -53 -11 -42 12 -49 40 -11 47
18 3 35 -1 48 -11 17 -15 18 -15 7 -1 -7 9 -10 24 -6 33 7 18 24 22 24 6z
m843 -7 c-4 -10 -2 -14 5 -9 6 3 13 2 17 -4 4 -6 -5 -10 -19 -10 -14 0 -26 2
-26 4 0 13 13 36 21 36 4 0 5 -7 2 -17z m56 8 c9 -6 5 -8 -13 -8 -14 0 -26 3
-26 8 0 11 21 11 39 0z m241 -20 c15 -28 12 -67 -5 -81 -13 -11 -14 -10 -9 4
3 9 1 16 -5 16 -15 0 -14 -23 2 -39 10 -10 5 -12 -23 -9 -19 2 -33 8 -31 13 1
6 7 9 13 7 5 -1 7 2 3 8 -3 5 -1 10 4 10 6 0 10 11 9 25 -1 14 -6 25 -10 25
-4 0 -4 7 -1 17 4 11 3 14 -5 9 -7 -4 -11 -22 -9 -42 3 -19 1 -34 -3 -34 -13
0 -18 23 -13 58 5 29 9 32 39 32 23 0 37 -6 44 -19z m-1105 -11 c-3 -5 -10
-10 -16 -10 -5 0 -9 5 -9 10 0 6 7 10 16 10 8 0 12 -4 9 -10z m355 -15 c0 -7
-6 -15 -14 -18 -9 -4 -13 0 -11 11 2 9 4 21 4 25 1 13 21 -3 21 -18z m503 6
c-20 -19 -45 -22 -59 -8 -4 4 2 7 14 7 11 0 24 5 27 10 3 6 14 10 22 10 14 0
13 -3 -4 -19z m-852 -28 c-11 -16 -25 -47 -31 -70 -6 -24 -19 -47 -29 -53 -17
-9 -19 -6 -15 33 4 36 3 39 -6 18 -10 -24 -11 -24 -30 15 -11 21 -20 39 -20
40 0 2 16 0 35 -3 27 -4 40 0 65 21 41 34 56 33 31 -1z m104 2 c22 -8 59 -14
81 -15 32 0 43 -4 47 -19 3 -15 -2 -20 -22 -24 -14 -3 -28 -1 -29 4 -2 5 -8 7
-12 4 -5 -3 -28 -8 -52 -11 -93 -12 -167 -96 -168 -189 0 -32 -3 -45 -9 -36
-5 7 -14 10 -20 7 -20 -13 -3 63 24 110 14 24 37 51 50 60 26 17 34 44 13 45
-38 2 45 20 91 20 l54 0 -52 24 c-28 13 -51 27 -51 30 0 8 11 6 55 -10z m759
-10 c-16 -25 -34 -33 -34 -16 0 5 -8 12 -17 14 -11 3 -7 5 10 6 15 0 27 6 27
11 0 6 7 10 15 10 14 0 13 -3 -1 -25z m16 -20 c0 -8 -7 -15 -15 -15 -8 0 -15
-5 -15 -11 0 -6 7 -9 14 -6 10 4 13 1 10 -8 -3 -8 -19 -17 -35 -20 -16 -4 -32
-11 -35 -17 -4 -7 -2 -8 4 -4 7 4 12 2 12 -3 0 -6 -7 -11 -15 -11 -8 0 -15 -4
-15 -8 0 -12 29 -48 30 -36 0 5 -5 15 -12 22 -9 9 -8 12 6 12 32 0 16 -44 -19
-51 -27 -6 -28 -7 -5 -8 l25 -1 -30 -24 c-16 -13 -32 -22 -35 -20 -2 3 2 9 10
14 8 6 10 10 4 10 -20 0 -14 63 7 78 10 7 19 22 19 33 0 17 16 24 43 20 4 0 7
4 7 10 0 6 -9 8 -22 4 -23 -7 -23 -7 -3 10 14 12 15 15 4 12 -9 -3 -16 1 -16
8 0 11 5 11 20 3 15 -7 23 -6 35 6 20 20 22 20 22 1z m-760 -51 c0 -3 -6 -12
-14 -20 -8 -8 -17 -14 -20 -14 -12 0 -6 28 7 33 17 8 27 8 27 1z m68 -11 c0
-10 -4 -28 -10 -40 -9 -18 -14 -20 -25 -12 -9 8 -13 8 -13 0 0 -6 -8 -4 -19 6
-18 15 -18 18 -3 38 20 27 68 32 70 8z m52 0 c0 -1 -9 -7 -20 -13 -16 -8 -20
-8 -20 4 0 9 8 14 20 13 11 -1 20 -2 20 -4z m-177 -18 c-3 -9 -2 -15 3 -14 16
4 44 -13 44 -26 0 -9 -9 -8 -36 5 -20 10 -43 16 -52 13 -10 -3 -3 4 13 16 36
25 36 25 28 6z m801 0 c-4 -8 -12 -15 -20 -15 -20 0 -17 18 4 23 9 3 18 5 19
6 1 0 0 -6 -3 -14z m-570 -11 c18 -17 21 -28 7 -19 -5 3 -16 -2 -24 -10 -20
-20 -53 -19 -61 1 -10 25 -7 32 12 37 34 9 51 7 66 -9z m-91 -23 c3 -14 1 -18
-9 -14 -15 6 -18 16 -7 26 9 10 10 9 16 -12z m142 -12 c0 -7 -8 -15 -17 -17
-10 -2 -18 2 -18 8 0 7 7 9 16 6 15 -6 15 -4 3 10 -12 15 -12 17 1 12 8 -2 15
-11 15 -19z m-295 2 c0 -5 3 -16 6 -25 3 -9 1 -16 -5 -16 -6 0 -11 7 -11 16 0
13 -7 15 -30 11 -18 -4 -30 -2 -30 4 0 6 5 7 10 4 6 -3 10 -1 10 4 0 6 11 11
25 11 14 0 25 -4 25 -9z m30 -12 c0 -5 -4 -9 -10 -9 -5 0 -10 7 -10 16 0 8 5
12 10 9 6 -3 10 -10 10 -16z m235 -29 c18 -39 18 -41 0 -58 -15 -14 -17 -14
-13 -2 5 13 -1 15 -29 12 -32 -4 -34 -2 -31 19 2 16 11 25 26 27 12 2 22 7 22
12 0 5 -8 6 -17 3 -15 -6 -16 -5 -3 10 21 23 25 22 45 -23z m-282 0 c3 -11 1
-22 -3 -25 -5 -3 -7 -14 -5 -25 2 -13 -2 -20 -11 -20 -8 0 -14 -5 -14 -11 0
-6 7 -9 14 -6 10 4 13 1 10 -7 -3 -8 0 -17 6 -21 8 -5 7 -11 -2 -23 -11 -13
-10 -15 5 -9 11 4 17 2 17 -8 0 -17 -40 -16 -58 2 -11 11 -11 13 2 13 8 0 18
5 21 10 9 14 -13 40 -34 40 -13 0 -17 10 -17 40 0 22 3 40 8 40 5 0 7 4 3 9
-3 5 5 12 17 14 13 2 26 5 29 6 4 0 9 -8 12 -19z m703 -20 c-2 -41 -11 -59
-23 -45 -5 4 -3 10 3 12 7 2 10 13 7 23 -5 19 2 50 10 50 3 0 4 -18 3 -40z
m-561 8 l17 -23 -7 23 c-7 25 2 28 28 8 23 -18 22 -24 -8 -48 -27 -21 -32 -47
-13 -66 9 -9 9 -12 -3 -12 -31 0 -49 25 -53 72 -3 26 -8 52 -11 58 -13 21 35
9 50 -12z m175 12 c0 -5 -4 -10 -9 -10 -6 0 -13 5 -16 10 -3 6 1 10 9 10 9 0
16 -4 16 -10z m355 -25 c-3 -29 -12 -42 -22 -32 -6 7 12 57 21 57 2 0 3 -11 1
-25z m-135 -4 c0 -3 -9 -17 -20 -31 -15 -19 -20 -21 -20 -8 0 9 6 18 13 21 7
2 8 8 3 13 -5 5 -11 4 -13 -3 -7 -19 -20 -16 -25 5 -4 15 0 17 29 14 18 -2 33
-7 33 -11z m93 -26 c-15 -44 -33 -60 -33 -29 0 8 4 12 10 9 6 -3 7 1 4 9 -3 9
-1 16 6 16 6 0 8 4 5 10 -4 6 -11 5 -20 -3 -7 -6 -11 -14 -9 -16 2 -2 -1 -12
-7 -22 -11 -21 -29 -26 -29 -8 0 5 5 7 12 3 7 -4 8 -3 4 5 -4 6 -2 18 4 26 6
8 8 20 4 26 -4 7 -3 9 4 6 5 -4 21 -3 34 2 12 6 24 10 25 10 1 1 -5 -19 -14
-44z m-221 1 c4 -19 1 -24 -14 -21 -35 7 -40 17 -16 30 12 7 24 13 24 14 1 1
4 -10 6 -23z m76 -12 l21 -31 -22 2 c-12 1 -26 3 -31 4 -6 0 -1 8 10 17 10 8
13 13 7 9 -9 -4 -13 2 -13 16 0 12 1 20 3 18 2 -2 13 -18 25 -35z m71 4 c-7
-12 -13 -26 -12 -29 1 -3 -5 -6 -13 -6 -20 0 -17 14 9 41 27 28 33 26 16 -6z
m-309 -8 c-9 -5 -28 -7 -43 -6 -14 2 -24 -1 -21 -5 3 -5 15 -9 26 -9 12 0 38
-18 59 -40 28 -29 46 -40 67 -40 16 0 35 -8 43 -17 11 -15 11 -16 0 -6 -7 6
-20 9 -27 6 -11 -4 -11 -8 1 -20 8 -8 14 -22 14 -31 -1 -15 -2 -15 -6 1 -2 9
-11 17 -19 17 -8 0 -12 -4 -9 -10 3 -5 2 -17 -2 -25 -7 -12 -14 -7 -33 25 -28
45 -32 46 -65 24 -22 -15 -23 -14 -18 6 3 12 12 24 19 27 25 9 15 24 -31 44
-30 13 -45 26 -45 39 0 22 11 26 65 28 28 1 35 -1 25 -8z m420 -5 c0 -2 -7 -5
-15 -9 -9 -3 -15 0 -15 9 0 9 6 12 15 9 8 -4 15 -7 15 -9z m-699 -35 c5 0 9
-4 9 -10 0 -5 -9 -10 -21 -10 -11 0 -17 5 -14 10 3 6 1 10 -4 10 -15 0 -14
-16 3 -48 12 -23 20 -27 56 -26 51 2 90 -29 90 -72 0 -16 -4 -24 -8 -19 -4 6
-16 15 -27 21 -11 7 -20 21 -19 33 0 11 -5 21 -12 21 -8 0 -11 -7 -8 -17 4
-14 1 -13 -14 5 -20 22 -39 31 -27 12 3 -5 2 -17 -3 -26 -9 -17 -8 -19 -43 75
-12 34 -4 55 18 47 8 -3 19 -6 24 -6z m870 -57 c-37 -72 -84 -106 -176 -128
-40 -10 -46 -14 -31 -20 12 -5 36 -3 63 7 48 17 48 6 0 -18 -23 -12 -46 -15
-89 -10 -68 7 -78 -8 -15 -23 l42 -10 -50 4 c-27 2 -76 7 -109 11 l-58 7 71
18 c39 10 81 25 93 34 26 18 11 20 -29 4 -15 -7 -40 -11 -55 -10 -20 2 -28 -2
-28 -13 0 -9 -5 -16 -11 -16 -6 0 -9 6 -6 13 4 10 -4 12 -27 10 -28 -4 -27 -2
16 20 26 13 70 45 97 71 57 52 71 59 43 19 -20 -30 -34 -63 -27 -63 2 0 12 14
20 30 9 18 31 37 53 47 20 8 49 22 64 30 45 23 25 -9 -21 -35 -47 -27 -71 -52
-48 -52 8 0 20 6 26 14 7 8 35 19 64 26 70 15 112 37 128 67 7 14 15 20 17 15
2 -6 -6 -28 -17 -49z m-737 -141 c-4 -7 -59 27 -94 57 -28 25 -22 22 31 -12
36 -23 65 -43 63 -45z m66 27 c0 -4 3 -15 6 -24 6 -15 4 -15 -15 -4 -12 8 -19
20 -16 26 6 16 -17 17 -33 1 -9 -9 -12 -6 -10 14 2 26 2 26 35 10 18 -9 33
-19 33 -23z m38 -22 c5 -24 -15 -21 -21 4 -3 13 -1 19 6 16 7 -2 13 -11 15
-20z m51 -5 c7 -14 6 -18 -9 -19 -10 -1 -20 7 -23 18 -7 25 19 26 32 1z m39
-10 c6 -18 -15 -14 -22 4 -4 10 -1 14 6 12 6 -2 14 -10 16 -16z m32 6 c0 10 5
10 20 2 11 -6 20 -8 20 -5 0 4 5 3 10 0 6 -4 8 -11 4 -16 -4 -6 -11 -6 -19 1
-10 8 -15 8 -20 0 -8 -13 -35 5 -35 24 0 6 5 4 10 -4 7 -11 10 -11 10 -2z"/>
<path d="M1146 1709 c10 -12 18 -24 16 -27 -2 -4 2 -8 10 -10 10 -3 10 -1 1 5
-16 11 1 38 18 29 8 -4 5 0 -5 8 -11 9 -29 16 -39 16 -20 0 -20 0 -1 -21z"/>
<path d="M1020 1690 c0 -5 5 -10 11 -10 5 0 7 -6 3 -12 -4 -7 -4 -10 1 -6 4 4
15 2 24 -4 9 -7 5 0 -8 15 -27 30 -31 32 -31 17z"/>
<path d="M1200 1686 c0 -2 8 -10 18 -17 15 -13 16 -12 3 4 -13 16 -21 21 -21
13z"/>
<path d="M1248 1653 c6 -2 12 -12 12 -20 0 -11 -7 -14 -24 -9 -14 3 -27 2 -30
-2 -3 -5 8 -9 24 -10 16 0 32 4 36 9 3 5 10 7 15 4 5 -4 9 -2 9 4 0 11 -33 32
-47 30 -4 0 -2 -3 5 -6z"/>
<path d="M1045 1610 c27 -12 43 -12 25 0 -8 5 -22 9 -30 9 -10 0 -8 -3 5 -9z"/>
<path d="M1152 1613 c-18 -3 -23 -10 -19 -23 6 -22 -11 -31 -35 -18 -16 8 -18
4 -18 -29 0 -21 4 -45 9 -52 6 -10 8 -1 4 25 -5 37 -4 39 23 41 23 1 25 -1 11
-8 -9 -6 -17 -18 -17 -27 1 -16 1 -16 11 1 13 23 24 22 26 -3 1 -11 -2 -18 -8
-15 -5 4 -9 0 -9 -8 0 -10 8 -13 26 -9 18 3 22 7 13 12 -7 5 -13 21 -14 37 -1
16 -4 34 -8 40 -5 7 3 18 20 27 28 15 26 17 -15 9z"/>
<path d="M1000 1602 c0 -5 10 -17 23 -28 22 -19 22 -19 4 2 -9 11 -14 24 -10
27 3 4 1 7 -5 7 -7 0 -12 -4 -12 -8z"/>
<path d="M1175 1567 c-8 -18 10 -47 29 -47 6 0 3 5 -6 11 -21 12 -24 31 -5 23
7 -2 24 0 38 6 22 10 22 10 -8 6 -20 -3 -33 -1 -36 7 -3 8 -7 6 -12 -6z"/>
<path d="M1220 1526 c0 -15 26 -46 39 -46 4 0 7 9 7 20 0 11 -4 20 -8 20 -4 0
-8 -5 -8 -11 0 -5 -5 -7 -11 -4 -6 4 -8 13 -5 21 3 8 1 14 -4 14 -6 0 -10 -6
-10 -14z"/>
<path d="M1343 1505 c0 -8 4 -12 9 -9 5 3 6 10 3 15 -9 13 -12 11 -12 -6z"/>
<path d="M900 1486 c0 -9 4 -15 9 -11 5 3 12 1 16 -5 8 -12 45 -13 45 -1 0 5
-8 15 -17 22 -15 12 -16 12 -10 -3 8 -22 -1 -23 -25 -1 -17 15 -18 15 -18 -1z"/>
<path d="M1204 1484 c3 -7 -1 -14 -9 -18 -17 -6 -20 -42 -4 -51 6 -4 17 2 25
14 8 11 29 25 47 31 l32 10 -34 -5 c-24 -4 -38 0 -48 12 -8 10 -12 13 -9 7z
m13 -30 c-3 -3 -12 -4 -19 -1 -8 3 -5 6 6 6 11 1 17 -2 13 -5z"/>
<path d="M1095 1460 c-3 -5 -17 -10 -31 -10 -23 0 -22 -2 15 -35 21 -19 42
-35 45 -35 4 0 -7 12 -24 26 -23 20 -28 29 -19 35 7 4 16 6 19 4 4 -2 7 2 7
10 0 18 -3 19 -12 5z"/>
<path d="M1120 1462 c0 -4 10 -13 21 -21 17 -10 19 -15 8 -21 -10 -7 -6 -12
14 -21 46 -21 30 -31 -40 -26 -38 3 -69 6 -70 6 -2 1 -10 16 -18 34 -10 22
-13 24 -8 7 24 -98 123 -149 165 -86 16 24 8 64 -13 69 -12 3 -18 10 -15 15 3
5 -1 15 -9 22 -8 7 -12 16 -9 21 3 5 -2 9 -10 9 -9 0 -16 -3 -16 -8z"/>
<path d="M1328 1463 c7 -3 16 -2 19 1 4 3 -2 6 -13 5 -11 0 -14 -3 -6 -6z"/>
<path d="M1247 1386 c-4 -10 -1 -13 8 -9 8 3 12 9 9 14 -7 12 -11 11 -17 -5z"/>
<path d="M667 1133 c-3 -5 -2 -15 2 -22 5 -7 11 -9 14 -4 3 5 2 15 -2 22 -5 7
-11 9 -14 4z"/>
<path d="M746 1549 c3 -6 1 -15 -6 -19 -8 -5 -6 -9 7 -12 14 -4 18 1 18 19 0
12 -6 23 -13 23 -7 0 -10 -5 -6 -11z"/>
<path d="M1145 1070 c3 -5 8 -10 11 -10 2 0 4 5 4 10 0 6 -5 10 -11 10 -5 0
-7 -4 -4 -10z"/>
<path d="M1408 1058 c-6 -16 1 -38 11 -38 9 0 8 37 -1 45 -3 3 -8 0 -10 -7z"/>
<path d="M1230 1051 c0 -5 7 -12 16 -15 14 -5 15 -4 4 9 -14 17 -20 19 -20 6z"/>
<path d="M840 950 c0 -5 5 -10 10 -10 6 0 10 5 10 10 0 6 -4 10 -10 10 -5 0
-10 -4 -10 -10z"/>
<path d="M947 1013 c-4 -3 -7 -11 -7 -17 0 -6 5 -5 12 2 6 6 9 14 7 17 -3 3
-9 2 -12 -2z"/>
<path d="M1070 740 c0 -5 5 -10 11 -10 5 0 7 5 4 10 -3 6 -8 10 -11 10 -2 0
-4 -4 -4 -10z"/>
<path d="M1750 977 c0 -9 6 -17 13 -17 9 0 8 -3 -2 -9 -8 -5 -9 -11 -3 -15 19
-11 24 13 8 36 -13 18 -16 19 -16 5z"/>
<path d="M830 829 c0 -6 -7 -9 -14 -6 -10 4 -13 1 -9 -9 4 -10 9 -12 18 -4 6
5 15 7 18 3 4 -3 7 1 7 10 0 10 -4 17 -10 17 -5 0 -10 -5 -10 -11z"/>
<path d="M936 813 c-4 -5 -12 -9 -17 -9 -22 -3 -23 -5 -10 -13 14 -9 49 14 39
24 -3 3 -8 2 -12 -2z"/>
<path d="M937 714 c2 -7 13 -10 24 -7 27 7 24 18 -5 18 -13 0 -22 -5 -19 -11z"/>
<path d="M670 728 c-14 -6 -20 -12 -14 -14 15 -6 60 11 48 18 -5 3 -20 1 -34
-4z"/>
<path d="M671 693 c-18 -19 -10 -25 12 -8 10 7 15 15 10 18 -4 3 -14 -2 -22
-10z"/>
<path d="M754 508 c-3 -4 2 -8 10 -8 8 0 17 4 20 8 3 5 -2 9 -10 9 -8 0 -17
-4 -20 -9z"/>
</g>
</svg>
