<?xml version="1.0" standalone="no"?>
<!DOCTYPE svg PUBLIC "-//W3C//DTD SVG 20010904//EN"
 "http://www.w3.org/TR/2001/REC-SVG-20010904/DTD/svg10.dtd">
<svg version="1.0" xmlns="http://www.w3.org/2000/svg"
 width="600.000000pt" height="404.000000pt" viewBox="0 0 600.000000 404.000000"
 preserveAspectRatio="xMidYMid meet">

<g transform="translate(0.000000,404.000000) scale(0.100000,-0.100000)"
fill="#000000" stroke="none">
<path d="M0 2651 c0 -1102 3 -1390 12 -1394 10 -4 10 -6 1 -6 -10 -1 -13 -133
-13 -626 l0 -625 3000 0 3000 0 0 2020 0 2020 -1391 0 -1390 0 43 -50 c24 -27
48 -50 53 -50 19 0 35 23 35 48 0 21 2 22 15 12 8 -7 15 -18 15 -26 0 -18 63
-64 88 -64 15 0 22 6 22 20 0 32 18 23 39 -18 11 -21 27 -44 36 -52 12 -10 13
-15 3 -21 -7 -4 -9 -11 -5 -15 4 -4 12 -3 18 3 5 5 21 8 34 6 17 -4 24 -13 28
-36 2 -18 0 -38 -5 -44 -8 -10 -5 -13 10 -13 11 0 22 -8 25 -20 5 -21 -7 -28
-18 -10 -8 13 -25 13 -25 -1 0 -6 -7 -17 -15 -25 -8 -9 -15 -23 -15 -32 0 -13
2 -14 8 -4 7 9 14 8 32 -8 13 -11 29 -19 36 -16 7 3 12 -5 12 -20 0 -13 -4
-21 -8 -19 -4 3 -10 -2 -14 -10 -3 -9 0 -15 9 -15 9 0 12 -6 9 -15 -4 -8 -14
-15 -23 -15 -21 0 -91 -62 -91 -82 0 -22 11 -29 27 -16 11 9 18 8 30 -5 16
-15 16 -18 0 -34 -31 -32 -86 -107 -82 -112 3 -2 13 3 23 12 28 26 32 21 33
-35 l1 -53 12 45 12 45 15 -30 c16 -34 65 -57 78 -36 5 7 5 28 1 47 -10 41 -4
47 29 30 26 -14 53 -19 80 -17 11 1 11 4 1 16 -10 12 -9 15 4 15 13 0 16 5 10
23 -12 38 -13 71 -2 85 12 14 -8 92 -24 92 -5 0 -4 -9 2 -19 14 -28 12 -41 -6
-41 -14 0 -14 -3 -4 -15 9 -11 10 -19 2 -27 -15 -15 -31 -2 -25 21 7 27 -27
44 -61 31 -31 -11 -40 0 -31 40 5 22 14 30 38 36 18 3 37 10 42 14 6 5 26 11
46 15 44 8 70 -15 51 -46 -20 -32 -15 -75 13 -93 27 -18 39 -21 31 -7 -3 4 11
7 31 5 25 -2 32 0 23 6 -30 19 23 24 71 7 72 -26 109 -21 77 11 -9 9 -8 12 5
12 24 0 68 -24 91 -49 14 -15 23 -18 37 -11 12 7 20 7 24 0 9 -15 25 -2 25 19
0 10 -11 26 -25 35 -36 24 -31 32 18 31 32 0 51 -7 76 -28 19 -15 39 -26 45
-24 6 2 12 25 14 50 2 26 8 47 13 47 5 0 28 -18 50 -41 46 -47 64 -46 63 4 -1
37 4 39 38 10 24 -22 31 1 8 30 -25 32 -25 37 2 37 12 0 37 -17 58 -40 50 -55
98 -56 91 -2 -1 6 2 12 7 12 15 0 40 -34 44 -60 5 -36 44 -40 60 -6 15 35 24
33 38 -8 21 -64 63 -72 63 -12 0 58 52 38 91 -35 39 -71 85 -77 86 -10 l0 24
24 -22 c14 -13 26 -38 28 -55 4 -37 19 -41 25 -6 4 26 21 42 36 33 4 -3 7 -28
5 -56 -2 -41 0 -52 13 -55 11 -2 22 10 34 40 l17 43 29 -35 c16 -19 29 -43 29
-53 0 -10 33 -51 73 -91 68 -69 117 -127 117 -140 0 -3 -9 -6 -20 -6 -10 0
-24 -9 -30 -20 -13 -25 -4 -60 16 -60 19 0 18 16 -2 24 -13 5 -13 8 -2 19 26
26 47 27 63 4 14 -20 14 -23 0 -33 -21 -15 -19 -24 5 -24 29 0 44 -42 19 -52
-26 -10 -24 -32 2 -25 15 4 23 -1 30 -21 5 -14 7 -32 5 -39 -8 -19 -66 24 -66
49 0 10 -4 18 -9 18 -5 0 -11 9 -14 20 -3 11 -10 20 -16 20 -17 0 -13 -14 9
-40 22 -26 26 -40 9 -40 -5 0 -7 -4 -4 -10 3 -5 15 -10 25 -10 20 0 40 -27 40
-55 0 -11 -5 -15 -15 -11 -8 3 -15 1 -15 -4 0 -6 7 -10 15 -10 8 0 24 -8 35
-17 22 -19 27 -45 9 -40 -6 1 -14 -4 -16 -10 -3 -7 2 -13 10 -13 9 0 17 -6 20
-12 5 -18 -3 -48 -14 -48 -5 0 -9 -5 -9 -11 0 -5 4 -8 9 -5 5 3 11 -8 13 -25
6 -37 -26 -133 -72 -214 -18 -33 -38 -70 -44 -81 -14 -25 -88 -105 -93 -100
-2 2 -17 -8 -32 -23 -77 -71 -102 -91 -116 -91 -8 0 -15 -4 -15 -10 0 -9 -119
-70 -136 -70 -4 0 -15 -7 -24 -15 -10 -9 -29 -18 -43 -20 -13 -3 -38 -12 -53
-20 -16 -8 -35 -15 -42 -15 -6 0 -35 -11 -64 -25 -28 -14 -58 -25 -66 -25 -7
0 -28 -11 -46 -25 -18 -14 -35 -23 -38 -20 -3 3 -13 -4 -23 -15 -10 -11 -22
-20 -26 -20 -10 0 -66 -57 -86 -87 -8 -12 -22 -23 -30 -23 -8 0 -11 -5 -7 -11
3 -6 -3 -23 -13 -38 -11 -14 -23 -36 -27 -49 -4 -12 -14 -22 -22 -22 -8 0 -13
-4 -9 -9 3 -5 -6 -34 -19 -63 -13 -29 -28 -67 -32 -83 -3 -17 -12 -37 -19 -45
-7 -8 -13 -22 -14 -30 -7 -75 -7 -74 24 -81 17 -4 58 -7 92 -8 56 -1 64 -4 80
-27 9 -14 29 -39 45 -54 15 -16 28 -36 28 -45 0 -11 8 -7 30 15 30 31 39 63
20 75 -6 3 -10 -4 -10 -17 0 -13 -5 -30 -10 -38 -9 -13 -14 -11 -31 13 -11 15
-25 25 -30 21 -5 -3 -13 6 -19 20 -5 14 -15 26 -22 26 -9 0 -9 3 -1 11 8 8 10
33 6 73 -6 68 3 84 64 104 27 9 41 7 82 -11 40 -16 57 -19 78 -11 25 9 29 15
34 71 6 67 17 88 52 96 21 6 21 5 4 -8 -16 -12 -17 -18 -8 -47 6 -18 25 -48
41 -67 42 -47 42 -128 0 -137 -3 0 -18 -6 -33 -12 -38 -16 -44 -15 -79 9 -21
15 -38 20 -59 15 -31 -6 -41 9 -11 17 14 4 13 5 -4 6 -22 1 -74 -40 -74 -59 0
-16 10 -12 31 12 l20 23 -6 -22 c-3 -12 1 -36 10 -54 13 -24 14 -37 7 -53 -14
-29 -21 -77 -11 -70 5 3 9 -2 9 -10 0 -9 5 -16 11 -16 8 0 8 -5 -1 -15 -10
-12 -9 -16 4 -21 20 -8 21 -24 2 -24 -8 0 -18 -5 -22 -12 -5 -8 0 -9 17 -4 13
4 30 8 37 8 8 1 4 10 -10 25 -33 35 -9 27 42 -13 34 -28 39 -35 20 -29 l-25 7
21 -18 c11 -11 19 -25 16 -33 -3 -8 1 -12 9 -9 8 3 13 15 12 27 -4 28 2 27 28
-10 l22 -31 -21 11 c-20 11 -26 8 -23 -11 0 -5 -7 -8 -16 -8 -15 0 -15 -2 2
-14 11 -8 25 -12 32 -9 7 3 13 0 13 -6 0 -6 5 -11 11 -11 6 0 8 7 5 18 -6 15
-5 15 7 2 23 -23 31 -60 14 -60 -7 0 -14 -7 -14 -15 0 -11 4 -12 11 -5 14 14
26 12 26 -5 0 -7 -8 -19 -17 -25 -15 -10 -14 -11 9 -7 17 3 29 -1 32 -10 4 -9
1 -12 -7 -7 -6 4 0 -4 14 -17 14 -14 31 -34 37 -45 11 -19 11 -18 27 4 9 12
25 22 36 22 16 0 18 5 13 25 -10 39 20 43 56 7 26 -26 29 -34 20 -56 -11 -29
-14 -30 -40 -16 -15 8 -17 6 -13 -10 4 -14 0 -20 -10 -20 -15 0 -14 -3 0 -32
9 -18 19 -40 23 -48 4 -8 16 -17 28 -20 11 -3 39 -22 61 -42 52 -46 45 -76
-15 -69 -6 1 -10 -9 -10 -21 1 -17 -5 -24 -21 -26 -13 -2 -23 1 -23 6 0 4 -13
24 -30 43 -16 19 -34 40 -40 47 -6 6 -25 12 -43 12 -29 -1 -30 -2 -14 -14 20
-15 22 -48 5 -75 -10 -17 -8 -23 12 -39 22 -18 23 -22 12 -47 -10 -23 -18 -26
-42 -23 -17 3 -30 1 -30 -3 0 -4 -10 -11 -22 -15 -15 -4 -25 -1 -35 12 -19 26
-17 32 18 39 25 6 33 20 11 20 -18 1 -32 18 -24 28 13 17 22 57 12 57 -4 0
-10 -6 -13 -14 -3 -8 -15 -12 -30 -9 -20 4 -28 -1 -39 -24 -11 -23 -19 -27
-42 -25 -24 3 -27 1 -21 -17 5 -18 2 -21 -19 -21 -28 0 -29 3 -17 35 5 11 4
25 -1 33 -8 8 -6 12 6 12 9 0 16 8 16 20 0 11 6 21 13 21 11 1 16 2 42 8 6 2
-3 7 -19 11 -17 6 -36 5 -47 0 -23 -13 -62 -13 -76 1 -7 7 -15 2 -27 -15 -22
-35 -58 -22 -68 25 -6 33 0 57 9 32 8 -22 23 -14 23 11 0 31 37 42 63 19 15
-14 20 -15 26 -4 6 9 16 11 32 5 13 -4 31 -7 39 -5 24 4 60 43 60 63 0 24 27
34 51 19 16 -9 19 -8 19 7 0 27 -9 33 -31 19 -25 -16 -42 2 -33 36 3 15 9 25
13 23 3 -2 15 0 26 5 18 7 17 8 -7 8 -15 1 -31 8 -36 17 -6 11 -11 13 -16 5
-4 -6 -18 -11 -31 -11 -21 0 -24 5 -27 42 -2 24 -9 43 -16 46 -11 3 -12 0 -2
-17 6 -12 8 -31 5 -41 -6 -20 -46 -37 -63 -26 -12 7 -3 48 12 58 6 4 4 9 -7
14 -13 5 -17 18 -17 60 0 41 -4 54 -15 54 -16 0 -20 -16 -6 -24 5 -3 9 -39 9
-80 1 -68 -1 -74 -24 -85 -22 -10 -26 -8 -34 15 -15 39 -12 54 13 55 l22 0
-22 9 c-18 7 -23 17 -23 46 0 28 3 35 15 31 8 -4 17 -2 20 3 4 6 -1 10 -9 10
-23 0 -30 20 -12 33 15 11 14 16 -3 52 -10 22 -23 54 -27 70 l-8 30 -4 -29
c-2 -16 4 -43 14 -61 20 -37 14 -62 -18 -74 -17 -7 -26 -5 -34 5 -10 13 -13
12 -18 -2 -3 -9 -4 -19 -1 -24 3 -4 -8 -10 -25 -12 -16 -2 -27 -1 -24 4 6 9
-16 6 -92 -13 -22 -6 -57 -27 -79 -47 -21 -20 -49 -43 -62 -49 -13 -7 -35 -20
-50 -28 -16 -8 -38 -15 -50 -15 -35 0 -132 -40 -160 -66 -14 -13 -28 -23 -32
-22 -3 1 -19 -4 -34 -10 -16 -7 -46 -12 -68 -12 -26 0 -42 -5 -45 -15 -4 -8
-15 -15 -25 -15 -10 0 -19 -4 -19 -10 0 -23 -279 -115 -297 -97 -2 3 -18 1
-34 -5 -22 -8 -34 -7 -46 3 -12 10 -15 10 -9 2 5 -10 -4 -13 -33 -14 -23 -1
-47 -2 -53 -3 -15 -1 -159 18 -230 32 -26 5 -54 15 -63 22 -9 7 -27 15 -41 16
-13 1 -31 9 -39 18 -8 8 -32 20 -52 26 -66 21 -201 178 -205 238 -1 15 -8 36
-15 47 -11 17 -15 13 -12 -11 1 -9 -23 -24 -38 -24 -15 0 -17 36 -3 45 6 4 8
11 5 16 -4 5 3 9 14 9 12 0 21 5 21 10 0 6 -5 10 -10 10 -6 0 -20 11 -32 25
-12 14 -27 25 -34 25 -18 0 -35 34 -24 46 5 5 2 15 -6 22 -12 11 -14 10 -14
-3 0 -9 -4 -14 -10 -10 -5 3 -19 -4 -30 -15 l-20 -20 -12 25 c-9 21 -8 28 8
46 19 21 19 21 -1 17 -11 -2 -19 -10 -18 -16 4 -17 -12 -15 -27 3 -10 12 -10
18 0 30 7 9 11 18 8 20 -10 10 -36 -7 -46 -30 -9 -19 -8 -23 2 -19 7 3 16 -2
19 -10 4 -9 2 -16 -3 -16 -6 0 -10 -7 -10 -15 0 -21 -45 -36 -105 -35 -27 0
-63 1 -78 1 -22 0 -27 4 -23 17 6 20 -60 68 -67 49 -6 -18 -42 7 -41 27 1 10
-6 16 -18 16 -10 0 -17 4 -13 9 3 6 0 13 -7 18 -7 4 -22 18 -32 31 -17 19 -17
22 -3 16 9 -3 17 -2 17 4 0 12 -24 22 -51 22 -10 0 -19 6 -19 14 0 20 -29 27
-65 18 -26 -7 -30 -12 -27 -40 2 -22 -1 -32 -10 -32 -7 0 -3 -8 10 -18 20 -15
22 -22 13 -45 -12 -32 -46 -39 -36 -7 7 22 -13 28 -32 9 -18 -18 -27 10 -13
37 10 18 10 26 1 38 -8 9 -10 27 -6 45 5 25 3 30 -17 33 -15 2 -24 11 -26 26
-2 13 -10 26 -18 29 -8 3 -28 18 -44 33 -17 16 -44 31 -60 35 -17 4 -30 13
-30 20 0 9 6 12 17 8 13 -5 15 -3 9 13 -15 40 -10 49 27 49 40 0 59 -12 53
-33 -4 -12 7 -23 39 -38 53 -26 75 -18 57 21 -7 14 -12 33 -12 41 0 8 -16 29
-35 46 -26 22 -33 34 -25 43 7 8 3 15 -15 23 -15 7 -25 20 -25 32 0 23 18 27
26 5 10 -25 24 -17 24 15 0 17 3 30 6 30 17 0 44 -23 44 -39 0 -10 9 -26 20
-36 11 -10 20 -28 20 -40 0 -24 36 -63 48 -51 4 4 7 33 7 64 0 32 4 62 8 69 5
7 0 16 -13 23 -22 12 -27 35 -9 45 6 4 17 -1 24 -11 14 -18 14 -18 15 2 0 12
7 25 16 28 22 8 22 8 34 -13 14 -27 2 -51 -26 -51 -30 0 -30 -7 1 -32 15 -11
25 -30 25 -44 0 -29 16 -64 30 -64 6 0 21 10 34 21 21 18 23 24 13 41 -10 15
-9 20 2 28 12 7 12 11 2 24 -11 13 -11 19 -1 31 11 13 14 13 26 -2 12 -16 15
-16 23 -3 19 28 30 -3 24 -67 -4 -45 -10 -63 -20 -63 -8 0 -11 -5 -7 -12 5 -8
2 -9 -9 -5 -12 5 -17 1 -17 -14 0 -11 -6 -22 -14 -25 -8 -3 -12 -12 -9 -20 3
-8 1 -14 -4 -14 -5 0 -7 -18 -5 -40 4 -35 1 -40 -16 -40 -20 0 -37 25 -27 40
3 5 1 11 -5 15 -6 4 -10 -5 -10 -19 0 -14 -4 -26 -10 -26 -5 0 -10 -4 -10 -10
0 -5 9 -10 20 -10 15 0 20 -7 20 -29 0 -17 4 -32 9 -36 6 -3 7 9 4 30 -6 38
-1 41 42 25 22 -9 26 -15 21 -35 -5 -18 -2 -25 9 -25 8 0 15 -7 15 -15 0 -8 8
-31 19 -50 18 -34 18 -34 36 -15 26 29 41 25 51 -12 l8 -33 4 40 c2 23 -1 41
-7 43 -6 2 -11 17 -11 34 0 21 6 31 20 35 11 3 23 4 27 2 14 -7 10 -44 -6 -56
-14 -11 -13 -12 10 -13 21 0 28 -6 33 -31 5 -24 1 -35 -17 -50 l-22 -19 28 10
c16 5 30 10 32 10 2 0 6 -18 10 -40 4 -22 11 -40 15 -40 5 0 12 -9 15 -20 8
-26 25 -26 18 0 -3 11 0 27 7 35 17 20 5 32 -15 15 -12 -10 -16 -9 -21 3 -10
27 0 62 19 65 12 3 20 -4 24 -17 3 -12 10 -21 15 -21 6 0 7 7 4 16 -7 19 11
57 24 49 5 -3 11 -1 15 4 3 6 42 10 85 9 49 -1 85 3 92 10 7 7 17 8 29 1 15
-7 18 -20 16 -64 -1 -30 1 -55 6 -55 4 0 7 7 7 15 0 14 24 76 41 105 5 8 14
26 19 39 20 45 207 217 283 260 23 13 50 31 59 40 9 9 32 27 52 41 37 26 51
55 32 65 -6 3 3 3 19 -1 23 -4 27 -3 19 6 -9 9 -25 9 -65 1 -55 -11 -99 -9
-154 8 -28 9 -26 9 20 10 55 1 164 26 179 42 6 5 22 9 37 9 15 0 30 6 32 13 4
9 6 8 6 -2 1 -17 42 8 86 52 43 43 125 103 160 116 l30 11 -36 -5 c-45 -7
-113 -39 -160 -76 -50 -40 -117 -69 -158 -69 -43 0 -37 6 12 13 43 6 133 57
184 105 41 38 57 47 101 55 20 4 32 2 32 -4 0 -6 14 3 32 20 34 33 43 37 53
20 4 -6 27 -9 51 -8 51 3 74 -12 54 -35 -8 -10 -21 -14 -36 -10 -28 7 -31 -3
-7 -21 15 -11 15 -15 4 -29 -17 -20 -35 -20 -51 -1 -7 8 -17 12 -22 9 -5 -3 0
-16 11 -28 12 -12 18 -25 15 -29 -3 -3 3 -16 15 -28 16 -17 18 -26 10 -36 -16
-19 -56 -16 -68 4 -5 10 -13 15 -17 10 -4 -4 1 -16 11 -28 17 -17 17 -22 5
-30 -8 -5 -25 -8 -37 -6 -20 4 -22 1 -16 -22 3 -14 9 -33 14 -42 16 -32 -41
-54 -70 -26 -11 10 -12 8 -3 -9 6 -12 9 -24 5 -27 -3 -4 2 -18 11 -32 9 -14
14 -30 11 -35 -7 -12 -63 5 -86 26 -21 19 -24 13 -9 -16 9 -16 6 -21 -15 -26
-14 -3 -32 -3 -41 0 -10 4 -14 1 -12 -6 3 -7 19 -14 36 -16 24 -2 32 -8 32
-22 0 -33 -22 -35 -46 -5 -13 16 -26 26 -30 22 -4 -3 -1 -14 6 -22 20 -24 -2
-42 -37 -29 -39 13 -43 43 -6 37 26 -4 26 -3 -6 12 -42 19 -49 13 -33 -27 14
-37 10 -43 -29 -44 -16 -1 -41 -2 -55 -3 -29 -1 -23 -21 7 -21 11 0 23 -10 28
-22 7 -19 5 -24 -13 -29 -11 -3 -31 -2 -43 2 -13 5 -23 5 -23 -1 0 -5 -12 -10
-27 -12 l-28 -4 26 -11 c29 -13 45 -53 26 -65 -7 -5 -25 -6 -42 -3 -28 4 -29
4 -11 -10 11 -8 26 -15 33 -15 12 0 33 -30 33 -48 0 -5 -14 -7 -32 -3 -23 5
-37 16 -46 35 -18 36 -25 28 -11 -13 20 -56 -10 -80 -59 -45 -12 8 -22 11 -22
6 0 -17 29 -34 59 -36 36 -2 87 -56 69 -74 -20 -20 -58 -13 -85 15 l-26 28 17
-32 c16 -32 52 -50 79 -40 7 2 23 -4 36 -14 23 -19 23 -20 5 -34 -23 -17 -48
-19 -75 -5 -29 16 -24 7 26 -47 25 -26 45 -57 45 -68 0 -18 1 -18 16 3 22 31
54 29 54 -4 0 -14 4 -23 10 -19 5 3 10 18 10 32 0 19 4 24 16 19 9 -3 22 -6
30 -6 8 0 14 -11 15 -27 0 -27 1 -27 9 -5 6 15 18 22 35 22 35 0 35 -43 0 -66
-23 -15 -27 -15 -49 -1 -22 15 -25 15 -37 1 -12 -15 -23 -15 -64 2 -17 7 -18
6 -7 -8 10 -12 30 -16 80 -16 37 1 73 5 80 11 20 16 15 -40 -6 -61 -10 -10
-16 -24 -14 -30 4 -14 51 -16 72 -2 11 7 7 10 -17 10 -36 0 -39 6 -18 34 8 11
15 30 15 43 0 13 4 23 8 23 4 0 6 16 4 36 -4 35 15 63 46 64 19 0 14 -44 -9
-69 -17 -18 -18 -25 -9 -37 8 -9 10 -29 6 -53 -3 -23 -2 -42 4 -46 16 -10 12
-40 -10 -68 -18 -22 -18 -25 -2 -23 23 1 43 42 36 72 -5 20 -3 23 12 17 12 -4
15 -3 10 5 -4 7 -14 12 -23 12 -11 0 -14 6 -9 23 3 12 6 29 6 38 0 17 26 29
48 22 15 -6 16 -45 1 -60 -8 -8 -5 -14 10 -22 12 -7 21 -22 21 -34 0 -22 -31
-57 -50 -57 -6 0 -10 -4 -10 -10 0 -11 24 -3 58 18 20 13 25 13 42 -3 23 -21
36 -14 22 11 -7 12 -4 23 11 40 28 32 46 30 53 -6 5 -22 12 -30 27 -30 18 0
19 1 5 12 -21 17 -32 67 -18 83 8 9 7 14 -4 18 -8 3 -17 -1 -20 -9 -7 -18 -26
-18 -26 0 0 8 -5 16 -12 18 -6 2 0 15 16 31 22 22 31 26 42 16 12 -10 13 -8 7
7 -3 10 -13 30 -22 43 -14 22 -13 25 12 45 15 12 27 29 27 39 0 10 27 34 65
58 36 22 65 45 65 50 0 12 -10 7 -73 -39 -26 -19 -87 -48 -135 -64 -76 -26
-97 -30 -172 -26 -154 7 -240 66 -240 165 1 76 60 203 126 266 20 19 20 22 6
36 -14 15 -14 16 3 19 9 2 21 -1 25 -7 5 -9 10 -7 20 4 7 8 19 15 26 15 8 0
25 10 39 22 18 16 23 27 19 45 -6 23 -4 24 27 19 26 -5 40 -1 58 14 l24 21
-22 22 c-28 31 -27 37 8 37 31 0 46 -21 28 -39 -6 -6 -7 -11 -1 -11 5 0 27 19
49 41 22 23 55 55 73 72 34 33 46 62 12 32 -20 -18 -21 -18 -42 2 -11 12 -17
26 -14 32 9 14 53 14 61 1 12 -20 24 -9 50 46 18 38 29 80 32 130 5 65 3 79
-21 126 -16 32 -44 67 -71 88 -44 34 -56 55 -35 62 6 2 12 13 13 25 0 12 4 20
8 17 4 -2 10 0 14 6 10 16 22 12 28 -10 5 -19 33 -26 75 -21 10 2 9 -4 -3 -23
-10 -15 -14 -33 -10 -46 5 -16 15 -20 53 -21 26 -1 58 -4 71 -8 30 -8 40 -31
14 -31 -19 0 -63 -38 -63 -54 0 -4 13 -12 29 -17 42 -15 47 -36 10 -44 -16 -4
-34 -15 -39 -25 -8 -15 -4 -23 19 -42 16 -13 43 -31 60 -40 41 -22 39 -36 -6
-55 -62 -25 -67 -33 -42 -60 22 -23 22 -23 2 -23 -22 0 -73 -35 -73 -51 0 -5
10 -9 23 -9 30 0 47 -18 47 -48 0 -19 -4 -23 -17 -17 -42 16 -72 16 -102 1
-31 -16 -31 -17 -15 -47 26 -50 6 -99 -27 -67 -28 26 -69 39 -91 27 -16 -9
-19 -17 -13 -46 5 -30 4 -35 -10 -29 -9 3 -25 1 -35 -4 -18 -10 -18 -12 -3
-43 27 -53 33 -66 33 -72 0 -11 -28 -4 -40 10 -21 25 -83 39 -109 25 -21 -11
-21 -13 -7 -29 31 -35 14 -51 -53 -51 -20 0 -46 -6 -57 -14 -18 -14 -18 -15
11 -26 55 -21 85 -66 35 -53 -24 6 -112 -35 -107 -51 2 -6 18 -12 35 -14 l32
-3 -21 -30 c-27 -39 -20 -45 22 -20 46 28 58 26 56 -6 -3 -38 32 -43 64 -9 22
23 25 24 42 8 26 -23 48 -6 61 48 14 57 36 66 29 12 -5 -34 -2 -42 18 -52 19
-11 24 -10 36 6 7 10 13 27 13 39 0 31 11 37 31 19 10 -9 26 -14 35 -10 14 5
15 15 10 60 -9 70 8 143 30 126 8 -7 14 -20 14 -30 0 -10 7 -23 15 -30 13 -10
19 -9 36 6 17 16 20 26 15 61 -3 24 -9 63 -12 88 -4 25 -4 45 0 45 4 0 20 -9
35 -21 23 -17 32 -19 50 -10 30 16 37 56 16 88 -16 24 -16 27 -1 38 10 8 16
26 16 49 0 39 2 41 30 26 10 -5 25 -7 34 -4 22 8 36 56 23 79 -7 14 -7 20 1
23 7 2 12 20 12 41 0 45 24 84 39 62 10 -16 21 0 41 64 26 83 60 117 60 59 0
-13 4 -24 9 -24 11 0 21 25 21 49 0 20 55 101 69 101 5 0 11 -9 14 -20 8 -30
36 -25 43 8 12 53 15 62 27 62 7 1 28 21 47 45 19 25 43 45 54 45 16 0 17 -5
11 -37 l-6 -38 17 25 c37 51 45 56 61 34 12 -16 15 -17 23 -4 5 8 10 22 11 30
2 31 44 95 65 98 18 3 22 -4 28 -38 8 -53 36 -52 51 2 9 33 12 36 22 20 10
-15 12 -14 12 11 1 36 21 35 21 -1 0 -37 6 -42 35 -28 14 6 27 23 31 41 10 46
52 93 79 87 18 -3 22 -10 21 -40 -2 -55 30 -51 61 8 30 58 55 89 72 90 9 0 12
-8 9 -25 -6 -27 14 -51 32 -40 6 4 23 32 37 63 27 59 26 59 59 5 11 -17 13
-17 33 4 12 12 26 44 32 72 13 61 34 93 48 71 12 -18 21 -10 27 26 3 16 7 36
9 44 12 41 14 107 5 190 -13 131 -56 218 -154 316 -62 62 -91 83 -178 124
-137 65 -218 82 -393 83 -130 0 -289 -18 -281 -32 2 -3 -13 -7 -34 -7 -21 -1
-69 -12 -107 -25 -37 -13 -71 -24 -75 -25 -5 -1 -9 -2 -10 -3 -2 -2 -14 -4
-27 -7 -20 -4 -101 -33 -178 -64 -16 -7 -21 -14 -16 -27 6 -16 5 -16 -11 -4
-15 13 -28 9 -109 -26 -51 -23 -100 -44 -109 -47 -12 -3 -16 -11 -11 -23 5
-15 3 -16 -8 -5 -7 6 -19 12 -27 12 -9 0 -4 -8 12 -21 50 -39 25 -42 -34 -4
-8 5 -46 10 -85 12 -47 1 -63 -1 -50 -7 20 -9 20 -9 0 -9 -12 -1 -27 5 -35 12
-7 6 -5 0 6 -14 14 -21 23 -25 36 -18 34 18 102 14 140 -8 34 -20 37 -24 33
-62 -2 -27 0 -39 7 -35 7 4 8 -2 3 -17 -10 -33 -20 -41 -49 -41 -27 0 -35 -13
-13 -21 6 -3 2 -6 -10 -6 -13 -1 -23 -6 -23 -12 0 -5 -5 -7 -11 -4 -6 4 -13
-2 -16 -14 -4 -17 -8 -19 -19 -10 -8 6 -14 22 -14 35 0 15 -6 24 -15 24 -22 0
-18 -28 10 -77 24 -40 51 -61 39 -29 -3 8 -1 24 6 35 10 21 11 21 31 3 11 -11
17 -26 14 -34 -9 -24 -59 -47 -106 -49 -54 -3 -88 -17 -68 -30 19 -11 4 -22
-20 -14 -12 3 -19 12 -15 18 3 7 0 5 -8 -3 -7 -8 -34 -21 -60 -27 -49 -13
-168 -90 -193 -126 -19 -27 -5 -43 25 -27 28 15 38 5 18 -17 -8 -10 -18 -26
-21 -36 -11 -30 15 -15 41 23 12 18 37 43 54 54 17 12 43 29 57 38 30 19 71
23 71 7 0 -23 -22 -48 -65 -73 -25 -15 -45 -33 -45 -40 0 -13 -28 -30 -67 -41
-27 -7 -86 -73 -78 -86 7 -10 19 -8 123 21 52 14 96 37 151 75 43 30 87 55 97
55 17 -1 17 -2 3 -13 -9 -7 -19 -25 -23 -42 -4 -16 -21 -42 -39 -57 -18 -15
-27 -28 -20 -28 7 0 49 36 94 79 70 68 81 83 77 105 -3 15 -1 29 5 33 6 4 7 1
2 -7 -5 -8 -4 -11 3 -6 6 4 9 12 7 19 -3 7 1 19 8 28 14 17 88 69 99 69 14 0
9 -32 -7 -44 -8 -6 -20 -33 -27 -61 -14 -54 -56 -135 -71 -135 -4 0 -5 10 -1
22 8 27 2 23 -16 -11 -6 -13 -7 -21 -2 -17 6 3 13 2 16 -3 3 -4 19 -11 36 -14
16 -4 30 -10 30 -15 0 -5 -36 -43 -80 -85 -74 -71 -110 -91 -124 -68 -6 9 20
35 44 44 8 3 -25 5 -75 5 -49 -1 -106 2 -126 7 -23 4 -45 3 -59 -5 -17 -9 -26
-8 -45 4 -29 19 -35 20 -35 4 0 -6 -14 -23 -32 -38 -57 -47 -8 -65 80 -29 31
13 35 12 47 -5 18 -24 13 -32 -43 -60 -59 -29 -112 -26 -157 9 -22 16 -40 23
-52 18 -33 -12 -33 -28 0 -39 l32 -11 -37 -7 c-25 -5 -48 -19 -70 -45 -18 -21
-45 -46 -60 -56 -35 -22 -38 -60 -5 -69 24 -6 28 -20 28 -90 -1 -44 -13 -57
-83 -83 -27 -9 -48 -21 -48 -26 0 -5 6 -7 14 -4 8 3 33 11 57 19 52 15 118 78
120 113 1 14 2 29 3 34 0 5 18 26 39 46 21 20 36 40 32 43 -3 3 -17 -7 -30
-22 -14 -16 -25 -26 -25 -22 0 4 -9 2 -21 -4 -11 -7 -28 -9 -37 -5 -13 5 -10
10 18 28 47 28 80 64 92 99 6 15 15 28 20 28 7 0 7 -4 0 -13 -7 -8 -7 -18 -2
-27 7 -10 10 -11 10 -2 0 15 49 16 87 1 l28 -10 -27 -21 c-16 -11 -28 -24 -28
-29 0 -5 12 -9 28 -9 40 0 55 -13 47 -40 -4 -14 -3 -25 5 -30 7 -4 -2 -7 -21
-7 -76 2 -133 -32 -79 -46 23 -6 27 -27 6 -27 -27 0 -28 -20 -2 -30 48 -18 -2
-63 -58 -53 -25 5 -27 3 -21 -16 7 -25 -3 -27 -52 -9 -40 15 -52 5 -28 -23 17
-17 17 -22 5 -29 -26 -17 -77 -22 -98 -11 -37 20 -52 14 -52 -20 0 -30 -1 -31
-37 -26 -21 3 -50 9 -65 12 -25 7 -28 5 -28 -18 0 -21 -6 -26 -27 -29 -24 -2
-29 -8 -31 -36 -3 -27 -6 -31 -17 -22 -20 16 -33 5 -41 -35 l-6 -35 -18 23
-18 22 -11 -28 c-6 -16 -11 -34 -11 -40 0 -6 -15 11 -33 38 -36 56 -59 64
-119 44 -35 -11 -40 -10 -53 7 -8 10 -12 26 -9 36 3 9 0 19 -6 23 -8 5 -8 11
1 21 15 18 49 18 49 0 0 -8 6 -16 14 -19 11 -4 13 3 9 31 -4 30 0 41 18 57
l22 20 -7 -29 c-5 -19 -2 -36 9 -52 15 -23 14 -24 -7 -25 -13 0 6 -11 45 -26
56 -21 72 -24 93 -14 14 6 22 16 19 21 -3 6 0 10 7 10 15 0 38 44 38 72 0 10
7 18 16 18 9 0 14 5 12 12 -6 16 40 63 96 99 51 32 52 35 31 86 -10 23 -12 40
-6 46 17 17 31 -3 31 -44 0 -46 10 -49 32 -11 15 25 15 29 0 55 -25 41 -54 43
-126 13 -38 -16 -91 -29 -134 -33 -39 -3 -69 -9 -67 -14 7 -10 -5 -39 -16 -39
-5 0 -9 11 -9 24 0 46 -24 50 -73 12 -78 -60 -228 -125 -331 -145 -52 -10 -99
-21 -104 -25 -6 -3 -14 -1 -18 5 -9 15 -70 4 -132 -24 -40 -19 -48 -26 -41
-39 11 -20 -1 -30 -21 -18 -8 5 -36 0 -74 -14 -34 -13 -80 -26 -102 -29 -23
-4 -61 -16 -85 -27 -44 -19 -135 -28 -125 -11 3 4 24 11 47 15 22 4 62 18 87
31 26 14 57 25 70 25 35 0 127 35 164 63 53 39 115 57 248 71 90 9 145 21 195
41 96 38 193 93 205 116 8 15 7 17 -5 13 -8 -4 -22 -1 -29 5 -11 9 -15 9 -18
-1 -4 -11 -8 -11 -20 0 -11 9 -18 10 -23 2 -10 -15 -23 -12 -28 8 -4 16 -5 16
-6 -1 -2 -32 -21 -7 -21 27 0 43 -61 101 -91 86 -32 -18 -42 -10 -15 11 15 12
25 27 22 34 -2 8 2 16 10 19 13 5 13 9 0 34 -12 24 -24 30 -62 36 -81 11 -180
7 -246 -10 -104 -28 -161 -23 -253 22 -73 35 -88 38 -170 39 -92 1 -164 16
-199 41 -20 14 -20 14 -1 14 11 0 40 -7 65 -16 31 -11 59 -13 95 -8 97 14 135
8 219 -35 65 -34 89 -41 136 -41 32 0 75 6 96 14 22 7 60 16 86 20 53 8 242
-10 271 -26 14 -7 22 -7 28 3 6 10 11 10 26 -2 30 -24 37 -29 58 -43 17 -12
17 -16 5 -30 -12 -16 -9 -17 37 -10 61 8 105 -12 125 -56 14 -33 33 -41 23
-10 -8 26 11 26 25 0 6 -11 15 -20 21 -20 6 0 6 8 -1 21 -7 11 -9 23 -6 26 9
9 56 -32 62 -55 8 -28 84 -69 84 -46 0 8 -13 20 -30 25 -16 6 -39 26 -50 45
-12 18 -35 43 -51 55 -16 11 -29 27 -29 35 0 18 16 18 24 -1 4 -10 14 -13 34
-9 25 5 30 2 41 -24 7 -17 10 -35 7 -40 -3 -6 3 -21 14 -33 11 -13 19 -18 20
-11 0 17 30 15 30 -2 0 -13 6 -13 78 -7 6 1 12 8 12 16 0 10 -10 15 -30 15
-21 0 -34 7 -47 27 -9 16 -25 35 -36 44 -16 13 -17 20 -8 37 14 26 15 75 1 67
-5 -3 -10 -15 -10 -25 0 -25 -37 -36 -58 -17 -9 8 -29 17 -44 21 -29 7 -37 36
-18 66 7 12 12 12 22 2 17 -17 29 -15 22 3 -4 8 -2 15 4 15 5 0 12 -10 16 -22
l6 -23 19 24 c14 19 26 23 62 22 103 -5 132 -3 139 9 4 6 18 17 31 23 17 9 24
22 26 51 1 21 12 53 24 70 26 38 100 89 112 77 12 -12 -7 -45 -38 -65 -28 -18
-33 -53 -10 -62 9 -4 30 7 50 25 20 17 42 31 50 31 9 0 15 9 15 22 0 42 41
107 93 147 29 22 61 48 72 58 11 10 39 28 62 39 23 12 39 24 36 27 -3 4 -23
-3 -45 -14 -38 -19 -78 -18 -78 2 0 5 -5 9 -11 9 -15 0 -60 36 -53 43 3 3 -3
3 -15 0 -12 -3 -27 -1 -34 5 -6 5 -27 13 -44 17 -40 8 -44 24 -5 18 20 -3 23
-2 12 6 -8 5 -17 8 -20 6 -3 -2 -19 6 -34 19 -25 20 -27 25 -17 45 14 26 32
23 47 -8 6 -12 19 -28 29 -35 15 -11 21 -9 41 11 20 20 22 27 11 43 -16 27
-23 25 -22 -7 0 -37 -20 -39 -36 -3 -8 16 -20 30 -27 30 -7 0 -15 14 -19 30
-4 24 -10 29 -24 25 -22 -7 -43 27 -36 61 5 26 -2 31 -19 14 -14 -14 -33 8
-36 41 -2 26 -29 33 -58 15 -13 -8 -13 -7 -2 6 18 22 24 58 9 53 -7 -3 -19 0
-27 5 -13 9 -12 13 8 29 24 21 28 51 12 81 -10 19 -11 19 -45 -1 -19 -12 -42
-18 -50 -15 -9 3 -15 0 -15 -9 0 -8 -17 -19 -37 -24 -49 -14 -66 -14 -81 1 -9
9 -12 8 -12 -5 0 -12 -9 -17 -32 -19 -73 -4 -150 3 -272 23 -125 21 -130 21
-185 4 -31 -10 -69 -27 -86 -38 -42 -29 -89 -70 -94 -82 -2 -5 -15 -27 -27
-47 -13 -21 -24 -41 -24 -46 0 -4 -22 -33 -50 -64 -73 -82 -165 -123 -283
-127 -129 -4 -267 44 -335 118 -31 33 -34 35 -44 18 -5 -11 -25 -25 -43 -33
-20 -8 -39 -26 -49 -47 -16 -35 -33 -47 -66 -47 -26 0 -43 -26 -36 -55 9 -37
50 -33 97 10 50 45 80 48 50 6 -12 -16 -21 -36 -21 -45 0 -17 -5 -20 -52 -30
-37 -8 -40 -46 -4 -46 14 0 28 5 31 10 3 6 13 10 22 10 10 0 5 -10 -17 -30
-26 -24 -29 -32 -21 -49 22 -40 39 -36 69 16 4 7 25 19 47 28 39 15 39 15 19
-2 -11 -10 -28 -30 -38 -45 -15 -24 -16 -27 -1 -42 29 -29 42 -19 77 56 29 61
41 68 105 66 29 -2 48 4 62 17 33 29 35 11 2 -24 -23 -25 -37 -31 -70 -31 -35
0 -43 -4 -56 -30 -8 -16 -15 -40 -15 -54 0 -36 -46 -86 -80 -86 -15 0 -33 7
-40 15 -14 16 -40 20 -40 6 0 -14 -49 -22 -69 -11 -18 9 -19 5 -23 -51 -1 -34
1 -63 5 -66 5 -3 21 7 36 21 27 26 51 34 51 17 0 -14 -62 -73 -101 -96 -38
-23 -46 -60 -16 -79 19 -12 25 -7 91 76 31 40 58 53 123 62 23 3 55 14 72 23
24 14 33 15 43 5 9 -9 9 -12 -4 -12 -9 0 -29 -11 -45 -24 -16 -13 -44 -26 -62
-29 -18 -3 -41 -13 -50 -21 -10 -9 -22 -16 -28 -16 -19 0 -43 -37 -43 -67 0
-38 24 -50 44 -21 15 22 62 33 72 17 3 -5 -3 -9 -13 -9 -11 0 -34 -16 -53 -35
-19 -20 -51 -40 -71 -47 -33 -10 -40 -8 -71 16 -44 33 -75 34 -89 2 -13 -28 3
-66 27 -66 12 0 15 6 10 24 -7 29 9 43 29 26 36 -29 0 -100 -49 -100 -51 0
-66 11 -66 47 0 32 -2 35 -22 29 -13 -4 -44 -9 -69 -12 -40 -6 -49 -11 -63
-40 -11 -25 -13 -41 -6 -59 11 -30 24 -31 48 -7 32 32 66 52 87 52 17 0 16 -4
-11 -28 -18 -15 -35 -37 -39 -50 -8 -27 -65 -72 -91 -72 -29 0 -64 28 -64 52
0 18 -4 19 -34 14 -48 -9 -86 10 -86 44 0 14 7 35 15 46 8 10 15 26 15 35 0
19 -37 54 -68 64 -12 3 -29 17 -38 30 -14 21 -14 26 1 54 8 17 21 31 29 31 7
0 23 12 37 26 21 22 24 34 22 87 -3 72 -18 96 -28 44 -4 -19 -19 -47 -35 -62
-28 -27 -28 -27 -63 -10 -35 17 -36 16 -64 -9 -29 -27 -76 -35 -89 -15 -4 7
-7 21 -8 33 -1 13 -13 26 -34 37 -40 18 -52 35 -52 71 0 28 43 88 64 88 7 0
30 11 50 25 21 14 34 20 30 13 -4 -7 -23 -37 -42 -66 -51 -80 -26 -113 37 -48
20 21 51 39 79 47 65 17 117 44 147 76 14 15 25 23 25 17 0 -16 -47 -76 -93
-116 l-42 -38 21 -20 21 -21 31 32 c19 19 35 28 43 24 7 -5 10 -4 6 2 -11 17
78 130 124 158 26 17 59 28 92 30 29 2 54 4 56 5 2 0 -2 7 -9 15 -7 8 -10 21
-7 29 7 17 -18 40 -33 31 -17 -10 -68 5 -74 22 -9 22 37 89 73 107 16 9 31 22
35 31 3 9 11 13 16 10 8 -5 8 -11 1 -19 -6 -7 -8 -15 -5 -19 3 -3 -3 -12 -15
-19 -25 -15 -28 -53 -5 -62 10 -4 26 0 38 7 18 13 22 12 31 -7 14 -28 40 -32
59 -9 68 84 67 83 106 83 34 0 41 4 64 44 19 32 34 46 56 51 16 4 30 10 30 15
0 11 -62 70 -74 70 -148 3 -174 7 -219 30 -60 30 -67 40 -28 40 37 0 40 13 9
34 -26 19 -72 20 -133 5 -99 -25 -178 13 -221 105 l-23 51 57 15 c32 9 69 24
82 33 14 9 37 17 52 17 25 0 28 3 23 23 -5 20 -1 25 33 36 69 23 162 4 205
-40 39 -41 77 -3 60 61 -6 21 -5 22 23 7 43 -22 71 -57 83 -103 13 -47 39 -64
58 -38 11 15 13 14 23 -10 5 -15 10 -31 10 -34 0 -4 8 -18 17 -31 l16 -24 9
22 c9 25 28 19 28 -8 0 -11 9 -29 19 -42 l19 -24 12 30 c13 35 24 24 41 -41
14 -52 51 -74 80 -48 11 9 19 25 19 36 0 24 8 23 32 -7 27 -35 48 -32 48 5 0
33 11 38 30 15 19 -23 67 -19 76 7 4 14 1 25 -10 33 -24 18 -20 25 15 25 l32
0 -6 50 c-6 45 -4 50 14 50 31 0 59 19 59 40 0 10 -12 33 -26 50 -29 33 -27
48 3 32 25 -14 46 -1 37 23 -7 16 -3 17 39 11 55 -8 59 1 22 49 -22 30 -23 33
-7 37 10 3 39 0 66 -7 85 -22 107 -2 60 54 l-26 31 29 0 c15 0 51 -11 78 -25
44 -21 52 -22 65 -9 12 12 12 18 2 34 -17 27 -16 30 13 30 14 0 41 -15 64 -35
33 -30 40 -33 51 -20 7 8 10 24 7 35 -12 48 42 10 62 -43 16 -41 47 -33 43 11
-1 18 1 32 5 32 17 0 72 -40 83 -60 7 -14 19 -20 33 -18 18 2 22 9 19 36 -2
30 0 33 20 27 22 -7 36 -15 84 -50 23 -17 54 -11 54 10 0 7 -9 24 -20 38 -11
14 -20 28 -20 31 0 15 59 4 80 -14 27 -24 53 -26 70 -6 9 12 7 21 -10 44 -30
40 -19 56 35 48 33 -5 47 -3 66 13 l24 19 -22 30 c-12 16 -19 32 -16 36 10 10
73 7 114 -5 47 -15 69 -1 69 42 0 27 2 28 27 18 45 -17 58 -4 32 32 l-22 31
22 -7 c11 -3 32 -8 45 -9 13 -1 36 -12 51 -24 15 -12 33 -22 40 -22 21 0 37
27 33 57 l-3 28 -1602 3 -1603 2 0 -1389z m3684 1014 c4 -11 0 -14 -17 -11
-12 3 -24 5 -27 5 -6 2 23 21 31 21 4 0 9 -7 13 -15z m945 -350 c13 -14 21
-29 17 -32 -7 -7 -56 36 -56 49 0 15 15 8 39 -17z m148 -29 c-2 -6 -9 -1 -16
12 -6 12 -9 28 -5 34 8 13 27 -28 21 -46z m-286 -8 c7 -14 6 -18 -5 -18 -17 0
-36 30 -36 57 1 17 2 16 16 -2 9 -11 20 -28 25 -37z m81 -1 c-12 -13 -22 -34
-22 -46 0 -20 -2 -22 -16 -11 -9 9 -14 26 -12 49 2 28 8 37 28 42 37 9 47 -7
22 -34z m143 37 c14 -6 14 -8 -3 -20 -13 -9 -17 -21 -14 -43 4 -32 -6 -39 -26
-19 -17 17 -15 48 5 70 18 21 16 20 38 12z m159 -23 c4 -5 1 -11 -5 -13 -14
-5 6 -48 21 -48 16 0 11 -81 -7 -121 -26 -55 -59 -53 -54 4 1 9 -2 17 -7 17
-6 0 -12 -16 -14 -35 -2 -19 0 -35 4 -35 4 0 8 -7 8 -15 0 -19 24 -19 40 0 7
8 16 12 22 9 5 -4 5 -11 -1 -18 -21 -25 2 -25 31 -1 16 14 35 25 41 25 8 0 8
3 0 11 -8 8 -17 8 -32 0 -19 -11 -21 -9 -21 23 0 19 5 38 11 41 6 4 7 19 4 35
-4 16 -2 38 4 48 12 23 45 34 59 20 6 -6 17 -6 30 1 29 15 52 14 52 -4 0 -8
-4 -15 -9 -15 -5 0 -14 -14 -20 -31 -10 -30 -13 -31 -53 -26 -42 5 -42 5 -16
-9 20 -10 34 -11 54 -4 29 12 59 -4 47 -24 -4 -6 -6 -21 -5 -33 3 -17 -1 -20
-16 -16 -11 2 -33 -3 -48 -13 -16 -10 -30 -18 -31 -18 -1 -1 -4 -13 -8 -29 -5
-17 -3 -27 4 -27 6 0 11 7 11 16 0 27 28 47 60 41 40 -8 51 10 51 85 1 71 6
98 20 98 5 0 7 -20 4 -45 -2 -32 0 -45 8 -44 7 1 20 1 31 0 15 -1 16 -4 6 -16
-7 -8 -18 -15 -25 -15 -12 0 -25 -21 -25 -41 0 -5 7 -9 15 -9 8 0 15 -7 15
-15 0 -8 -4 -15 -10 -15 -5 0 -7 -6 -5 -12 4 -9 -7 -14 -33 -15 -21 -1 -50 -8
-65 -16 l-27 -14 25 -13 c22 -12 28 -11 50 10 27 26 67 22 45 -5 -7 -8 -18
-15 -26 -15 -17 0 -27 -17 -20 -35 7 -19 46 -7 46 15 0 27 61 43 75 20 10 -17
-19 -51 -39 -46 -31 8 -58 -12 -50 -37 6 -18 1 -16 -32 13 -52 47 -107 66
-243 83 -84 11 -123 12 -150 4 -20 -6 -47 -9 -61 -8 l-25 3 23 -22 23 -22 -21
-24 c-16 -17 -21 -30 -16 -48 8 -33 29 -33 50 -1 29 44 64 26 42 -21 -10 -22
-66 -62 -66 -48 0 3 -6 1 -13 -5 -8 -6 -17 -8 -20 -4 -4 3 -7 2 -7 -4 0 -15
21 -30 54 -39 16 -4 31 -15 34 -26 3 -12 12 -18 25 -16 14 2 23 -5 30 -25 11
-35 5 -42 -23 -27 -26 14 -43 3 -17 -11 26 -15 21 -39 -8 -39 -15 0 -25 6 -25
15 0 8 -13 29 -29 47 -23 26 -37 32 -70 33 -48 1 -54 -14 -16 -47 14 -12 24
-27 21 -34 -2 -6 4 -18 15 -27 17 -15 28 -67 14 -67 -4 0 -22 16 -42 35 -20
20 -43 33 -50 31 -11 -4 -11 -1 -2 15 7 14 7 19 1 15 -6 -4 -16 -1 -21 6 -45
55 -57 75 -54 86 7 19 -22 14 -51 -9 -23 -18 -31 -20 -53 -10 -22 10 -28 9
-40 -9 -21 -29 -53 -26 -53 5 0 26 -15 34 -23 13 -7 -21 -19 -1 -13 20 6 17
13 19 51 14 27 -3 45 -1 45 6 0 18 32 23 55 8 20 -13 24 -13 37 2 9 9 17 26
20 37 5 23 -17 51 -27 35 -8 -14 -55 -13 -55 1 0 6 9 9 20 6 15 -4 20 0 20 16
0 11 -3 18 -6 14 -4 -3 -20 1 -35 9 -30 15 -63 15 -87 0 -7 -4 -25 -5 -40 -2
-18 4 -22 3 -13 -2 23 -16 -6 -24 -45 -13 -20 6 -34 7 -31 4 9 -9 -36 -41 -69
-49 -16 -4 -42 -16 -59 -26 -16 -10 -40 -18 -52 -18 -12 0 -24 -4 -28 -9 -3
-5 -30 -15 -60 -21 -30 -6 -57 -16 -60 -21 -4 -5 -13 -5 -24 1 -11 5 -39 6
-72 1 -29 -5 -63 -5 -74 -1 -20 8 -20 8 0 16 11 4 51 28 89 52 68 43 169 71
182 50 3 -4 14 -8 26 -8 15 0 19 5 15 20 -3 11 -1 18 4 15 4 -3 14 3 20 14 7
10 19 17 26 14 9 -4 13 6 13 36 0 23 -4 41 -10 41 -5 0 -10 -9 -10 -21 0 -11
-6 -27 -14 -35 -8 -7 -16 -18 -18 -23 -1 -6 -19 -12 -38 -15 -19 -2 -47 -7
-61 -11 -16 -4 -30 -2 -34 4 -9 16 -25 3 -18 -14 7 -21 -14 -19 -26 3 -5 9
-13 16 -18 15 -4 -1 -7 5 -5 14 2 8 -1 12 -7 8 -14 -8 -14 6 -1 39 6 17 14 24
25 20 8 -3 15 -2 15 4 0 5 -7 13 -16 16 -9 4 -15 9 -12 12 7 6 58 -17 58 -27
0 -4 -6 -12 -12 -16 -17 -10 -41 -53 -34 -60 9 -10 28 10 42 43 15 36 34 43
53 20 8 -10 9 -16 1 -21 -12 -7 -4 -25 12 -25 5 0 8 7 5 15 -4 8 -2 17 4 20 5
4 -2 16 -17 27 -22 18 -25 27 -21 60 4 30 1 40 -13 48 -28 15 -32 50 -7 60 22
8 22 8 -3 18 -22 9 -23 11 -5 11 30 1 46 -18 34 -40 -7 -14 -5 -27 6 -49 9
-16 19 -30 23 -30 23 -1 32 -18 23 -43 -12 -32 4 -87 25 -87 17 0 19 17 2 22
-13 5 -15 69 -3 88 5 8 12 7 23 -3 18 -15 50 -30 67 -32 6 0 18 -6 29 -11 15
-9 16 -15 7 -32 -13 -25 -14 -32 -2 -32 5 0 12 11 15 25 6 24 36 36 36 15 0
-5 4 -10 9 -10 6 0 9 18 9 40 0 23 2 43 5 46 2 3 20 -4 38 -15 45 -28 57 -27
51 4 -2 14 -8 22 -13 19 -5 -3 -7 -10 -4 -15 12 -19 -17 -8 -40 15 -15 15 -26
20 -28 13 -3 -9 -13 -8 -33 3 -21 12 -30 24 -32 48 -2 19 2 40 8 47 10 12 17
10 46 -11 19 -15 34 -22 34 -18 0 5 -9 15 -20 22 -33 20 -25 71 14 85 13 5 17
3 13 -7 -4 -10 -1 -13 7 -10 8 3 17 1 21 -5 3 -6 2 -11 -4 -11 -6 0 -13 -16
-17 -36 -5 -30 -2 -40 21 -64 16 -16 32 -27 38 -23 5 3 19 -7 31 -22 17 -21
27 -26 44 -21 31 10 27 25 -5 23 -19 -1 -30 5 -38 21 -7 12 -16 26 -20 30 -5
4 -5 1 -1 -5 10 -18 -5 -16 -32 3 -15 11 -22 25 -22 50 0 49 20 51 65 8 l40
-37 6 24 c7 29 1 39 -11 19 -8 -13 -13 -12 -30 6 -17 17 -20 28 -15 58 9 44
16 45 47 7 32 -38 68 -57 68 -37 0 8 5 27 10 42 l11 28 30 -37 c17 -20 36 -37
43 -37 7 0 20 -8 30 -18 15 -17 15 -22 1 -55 -8 -20 -11 -38 -6 -41 5 -3 14 8
21 24 7 17 15 30 18 30 2 0 15 -11 28 -25 33 -36 51 -31 20 6 -14 17 -26 40
-26 51 0 17 -3 18 -14 9 -23 -19 -49 27 -42 76 l5 38 -10 -37 c-13 -44 -32
-48 -55 -13 -21 32 -15 61 14 58 12 -2 22 2 22 8 0 5 10 1 22 -11 12 -11 27
-19 33 -17 14 5 136 -104 166 -148 13 -19 26 -35 29 -35 3 0 13 14 22 30 19
34 36 38 44 13 11 -34 27 -63 36 -63 13 0 9 20 -7 36 -18 18 -19 47 -4 75 9
18 9 19 -11 7 -18 -11 -23 -10 -37 7 -15 20 -15 20 -9 -1 4 -14 -1 -27 -17
-42 -23 -22 -24 -22 -41 -3 -12 14 -16 27 -10 43 6 20 5 21 -10 9 -14 -12 -19
-11 -36 4 -26 23 -26 71 -1 85 33 17 49 11 67 -25 19 -41 45 -45 64 -10 12 23
24 29 57 28 6 0 22 10 34 23 23 24 53 31 63 15z m49 -10 c5 -22 -1 -33 -14
-25 -12 7 -12 44 0 44 5 0 11 -9 14 -19z m-577 -12 c0 -18 -22 -15 -29 5 -3 6
3 12 12 12 9 0 17 -8 17 -17z m399 11 c3 -5 1 -10 -4 -10 -6 0 -11 5 -11 10 0
6 2 10 4 10 3 0 8 -4 11 -10z m-440 -66 c2 -27 -1 -34 -13 -32 -21 4 -31 47
-18 76 8 20 11 21 19 7 5 -9 10 -32 12 -51z m-78 50 c-3 -3 -12 -4 -19 -1 -8
3 -5 6 6 6 11 1 17 -2 13 -5z m-197 -44 c0 -5 -5 -10 -11 -10 -5 0 -7 5 -4 10
3 6 8 10 11 10 2 0 4 -4 4 -10z m34 -6 c3 -8 2 -12 -4 -9 -6 3 -10 10 -10 16
0 14 7 11 14 -7z m111 -15 c11 -17 -1 -21 -15 -4 -8 9 -8 15 -2 15 6 0 14 -5
17 -11z m955 -9 c0 -5 -5 -10 -11 -10 -5 0 -7 5 -4 10 3 6 8 10 11 10 2 0 4
-4 4 -10z m-1243 -32 c-3 -8 -6 -5 -6 6 -1 11 2 17 5 13 3 -3 4 -12 1 -19z
m170 2 c2 -20 -8 -26 -20 -13 -4 3 -2 12 4 20 15 17 14 17 16 -7z m-64 -28
c-1 -5 7 -8 17 -5 21 5 28 -11 10 -22 -5 -3 -10 -19 -10 -34 0 -21 9 -35 35
-52 36 -25 41 -34 25 -44 -5 -3 -6 -13 -3 -21 5 -13 1 -15 -18 -9 -13 4 -28
12 -34 19 -5 6 -26 12 -45 13 -39 3 -60 24 -60 61 0 14 -4 21 -11 17 -6 -4 -8
-14 -5 -22 11 -28 -6 -35 -30 -12 -25 23 -33 72 -13 84 6 4 21 -3 34 -15 12
-12 29 -20 36 -18 8 1 29 -8 46 -20 24 -17 31 -19 27 -8 -3 9 -10 16 -15 16
-18 0 -29 38 -19 65 9 24 38 31 33 7z m-63 -23 c0 -19 -29 -15 -38 5 -10 22
-9 23 14 12 13 -6 24 -14 24 -17z m1276 -11 c-22 -30 -20 -35 11 -43 l27 -6
-25 -17 c-14 -10 -23 -24 -21 -34 2 -13 -3 -16 -25 -15 -35 3 -42 30 -14 54
14 11 19 24 15 39 -4 15 2 30 17 45 27 27 38 10 15 -23z m-2316 13 c0 -10 11
-29 25 -43 13 -13 29 -36 34 -51 6 -16 18 -27 30 -27 24 0 35 -27 18 -45 -39
-44 -39 -43 -1 -69 19 -13 32 -26 27 -29 -11 -7 -64 36 -67 54 -1 8 -7 23 -13
33 -6 10 -9 28 -7 40 3 13 0 10 -7 -7 -8 -19 -8 -31 0 -40 8 -10 2 -21 -23
-45 -34 -32 -53 -42 -40 -21 5 8 1 8 -14 0 -31 -17 -37 -13 -17 9 10 11 13 20
7 20 -6 0 -21 10 -34 23 -13 13 -36 29 -53 35 -28 12 -28 10 10 -22 30 -27 40
-43 40 -66 1 -38 -8 -38 -37 0 -12 17 -30 30 -40 30 -20 0 -38 28 -39 62 l0
23 -9 -22 c-11 -27 -45 -21 -67 13 -12 19 -13 27 -3 39 15 18 42 19 59 3 10
-11 11 -8 6 12 -5 21 -1 29 19 40 24 12 29 11 64 -17 20 -16 44 -45 53 -63 9
-18 23 -38 31 -44 8 -6 20 -22 27 -35 9 -15 16 -20 23 -13 6 6 5 17 -4 31 -11
19 -11 24 6 36 10 7 15 19 11 25 -4 7 -13 4 -26 -11 -21 -24 -49 -19 -49 9 0
10 -9 27 -20 37 -13 12 -20 29 -18 44 4 31 34 40 42 13 7 -21 56 -78 56 -65 0
4 -9 22 -20 38 -30 46 -25 80 13 84 4 1 7 -7 7 -18z m-135 -21 c3 -5 1 -10 -4
-10 -6 0 -11 5 -11 10 0 6 2 10 4 10 3 0 8 -4 11 -10z m2385 -11 c0 -5 -4 -9
-10 -9 -5 0 -10 7 -10 16 0 8 5 12 10 9 6 -3 10 -10 10 -16z m-2440 1 c0 -5
-4 -10 -10 -10 -5 0 -10 5 -10 10 0 6 5 10 10 10 6 0 10 -4 10 -10z m1060 -25
c7 -14 19 -25 27 -25 9 0 11 -10 7 -37 -7 -48 -10 -50 -33 -29 -21 19 -34 56
-20 56 5 0 9 7 9 15 0 8 -4 15 -10 15 -5 0 -10 7 -10 15 0 23 15 18 30 -10z
m-1480 -25 c0 -15 6 -19 23 -17 19 2 22 -3 24 -38 1 -22 0 -35 -3 -28 -3 7
-12 9 -20 6 -12 -4 -7 -14 22 -44 26 -27 40 -35 45 -27 6 9 15 6 33 -11 l25
-24 -11 31 c-16 41 1 64 28 38 20 -21 32 -13 13 10 -11 14 -11 18 5 30 21 15
38 10 30 -10 -3 -7 5 -24 16 -37 l21 -24 -15 26 c-13 21 -14 28 -3 43 22 30
55 6 55 -39 0 -19 -5 -35 -11 -35 -6 0 -8 -2 -5 -5 16 -16 33 9 32 45 -1 30
-8 47 -29 65 -22 21 -25 28 -15 40 16 19 28 19 46 0 14 -13 13 -15 -8 -16 -16
-1 -18 -3 -6 -6 9 -2 20 -13 23 -23 8 -25 55 -71 67 -64 5 3 20 -5 33 -18 13
-12 29 -28 37 -34 13 -12 48 -52 48 -57 0 -1 -11 -3 -25 -3 -26 -2 -42 25 -30
48 4 7 0 5 -9 -6 -8 -10 -19 -15 -25 -11 -17 10 -13 -5 7 -23 10 -10 16 -16
14 -15 -3 1 -11 -4 -19 -12 -15 -16 -43 -20 -43 -7 0 4 -7 16 -16 27 -12 16
-16 17 -23 6 -12 -18 -46 -6 -59 22 -11 22 -11 22 -11 1 -1 -12 6 -27 14 -34
8 -7 15 -24 15 -37 0 -23 2 -24 18 -12 15 13 16 12 3 -3 -7 -10 -18 -15 -24
-11 -5 3 -16 -2 -24 -12 -9 -13 -13 -14 -13 -5 0 7 7 22 17 32 15 17 15 18 -1
18 -9 0 -19 7 -22 15 -5 12 -10 12 -32 -3 -32 -20 -43 -33 -36 -44 9 -15 -24
-8 -40 8 -9 8 -16 12 -16 8 0 -5 14 -23 32 -41 23 -24 41 -33 65 -33 26 0 33
-4 33 -20 0 -11 2 -20 5 -20 3 0 15 9 27 20 24 22 28 23 46 11 13 -8 31 -68
32 -106 0 -18 -1 -18 -17 -2 -10 10 -17 31 -16 52 1 26 -3 35 -15 35 -15 0
-15 -2 -2 -10 13 -8 12 -12 -8 -25 -12 -9 -19 -21 -16 -27 4 -6 -2 -6 -15 1
-11 7 -21 15 -21 19 0 5 -17 8 -37 9 -21 0 -51 4 -66 8 -23 6 -29 4 -34 -13
-3 -14 -10 -19 -21 -15 -12 5 -14 2 -9 -11 4 -10 3 -15 -3 -11 -6 3 -10 0 -10
-8 0 -19 -34 -49 -45 -40 -4 5 -5 -4 -1 -19 5 -22 1 -31 -19 -44 -31 -20 -38
-14 -39 30 -1 27 -4 32 -14 24 -7 -6 -16 -8 -19 -4 -12 11 12 41 36 44 11 2
21 11 21 20 0 8 10 26 22 39 26 28 22 33 -30 40 -36 5 -40 3 -46 -20 -10 -40
-45 -45 -73 -11 -27 34 -28 47 -9 63 12 10 17 8 26 -8 12 -24 35 -29 26 -6 -3
8 -1 15 4 15 5 0 12 9 15 21 4 11 18 24 31 29 13 5 24 14 24 19 0 15 -73 32
-107 25 -17 -3 -40 -1 -52 5 -24 13 -28 41 -6 41 8 0 15 5 15 10 0 6 -7 10
-15 10 -20 0 -19 36 1 44 9 4 23 1 32 -6 8 -7 25 -13 36 -13 14 0 22 -7 24
-23 3 -19 6 -21 18 -11 8 6 27 9 44 5 34 -6 35 -6 17 37 -8 18 -12 37 -10 43
2 6 -8 19 -22 28 -32 21 -35 61 -4 51 19 -6 20 -5 9 15 -6 12 -9 28 -6 36 8
21 46 -1 46 -26z m350 32 c0 -15 -11 -21 -27 -15 -12 5 -12 7 -1 14 17 11 28
11 28 1z m2637 -64 c-4 -14 0 -26 11 -34 14 -10 12 -12 -15 -10 -43 2 -49 11
-29 41 20 31 40 33 33 3z m-2751 -15 c-10 -10 -19 5 -10 18 6 11 8 11 12 0 2
-7 1 -15 -2 -18z m2794 2 c0 -2 -9 -3 -19 -2 -11 0 -18 5 -15 9 4 6 34 0 34
-7z m-35 -61 c9 -10 12 -20 7 -23 -5 -3 -14 -16 -20 -28 -11 -20 -14 -21 -42
-7 -35 18 -37 27 -10 54 24 24 43 25 65 4z m-485 -59 c0 -9 -7 -18 -16 -22
-18 -7 -39 11 -30 26 11 17 46 13 46 -4z m383 8 c3 -5 -11 -15 -29 -24 -34
-17 -39 -14 -28 15 6 16 49 22 57 9z m177 -3 c0 -5 -5 -10 -11 -10 -5 0 -8 -4
-5 -8 3 -5 -11 -9 -32 -10 l-37 -1 24 19 c25 21 61 27 61 10z m-3285 -30 c3
-5 -1 -10 -9 -10 -8 0 -18 5 -21 10 -3 6 1 10 9 10 8 0 18 -4 21 -10z m3143 4
c12 -4 22 -10 22 -14 0 -10 -56 -30 -81 -30 -17 0 -17 2 3 25 24 27 23 27 56
19z m-918 -24 c0 -5 -4 -10 -10 -10 -5 0 -10 5 -10 10 0 6 5 10 10 10 6 0 10
-4 10 -10z m527 -15 c9 -25 -4 -29 -17 -6 -7 15 -7 21 0 21 6 0 13 -7 17 -15z
m-67 -11 l25 -14 -29 2 c-16 2 -31 9 -34 16 -5 16 7 15 38 -4z m564 7 c3 -5
-9 -11 -27 -14 -36 -5 -42 -3 -32 12 8 13 52 15 59 2z m-76 -38 c2 -7 -5 -13
-15 -13 -10 0 -28 -7 -40 -15 -19 -13 -21 -13 -27 7 -3 13 0 26 7 30 18 12 70
5 75 -9z m-2608 -3 c0 -5 -2 -10 -4 -10 -3 0 -8 5 -11 10 -3 6 -1 10 4 10 6 0
11 -4 11 -10z m-116 -15 c-6 -16 -44 -21 -44 -7 0 14 12 22 31 22 12 0 16 -5
13 -15z m2836 -25 c0 -5 -11 -10 -25 -10 -14 0 -25 5 -25 10 0 6 11 10 25 10
14 0 25 -4 25 -10z m-101 -19 c17 -11 -1 -23 -23 -15 -10 4 -16 1 -16 -7 0
-10 -3 -10 -11 -2 -24 24 18 44 50 24z m-74 -51 c3 -5 1 -10 -4 -10 -6 0 -11
5 -11 10 0 6 2 10 4 10 3 0 8 -4 11 -10z m-3061 -16 c3 -8 2 -12 -4 -9 -6 3
-10 10 -10 16 0 14 7 11 14 -7z m2090 0 c7 -18 -11 -47 -24 -39 -9 6 0 55 10
55 4 0 11 -7 14 -16z m1076 -3 c0 -12 -29 -23 -41 -15 -18 10 -9 24 16 24 14
0 25 -4 25 -9z m-530 -56 c0 -41 -12 -45 -28 -10 -9 20 -8 26 6 34 9 6 18 11
20 11 1 0 2 -16 2 -35z m470 15 c0 -5 -2 -10 -4 -10 -3 0 -8 5 -11 10 -3 6 -1
10 4 10 6 0 11 -4 11 -10z m57 -46 c-3 -3 -12 -4 -19 -1 -8 3 -5 6 6 6 11 1
17 -2 13 -5z m-749 -42 c5 -15 -15 -24 -38 -17 -31 10 -25 34 7 31 15 -2 29
-8 31 -14z m49 -27 c8 -22 -6 -33 -17 -15 -13 20 -12 30 0 30 6 0 13 -7 17
-15z m-2343 -10 c3 -9 0 -15 -9 -15 -8 0 -15 7 -15 15 0 8 4 15 9 15 5 0 11
-7 15 -15z m996 -70 c-7 -8 -16 -12 -21 -9 -13 8 -1 24 18 24 13 0 13 -3 3
-15z m550 -25 c0 -27 -103 -136 -119 -126 -15 10 20 47 47 50 9 2 27 24 40 49
26 52 32 57 32 27z m-101 -76 c-20 -24 -97 -66 -109 -59 -16 10 28 53 75 75
41 20 57 12 34 -16z m2078 -22 c-14 -17 -22 0 -12 26 5 14 7 14 15 2 5 -9 4
-20 -3 -28z m-2436 -1 c-8 -5 -10 -14 -6 -22 6 -11 5 -11 -5 -2 -14 12 -6 33
13 33 8 0 7 -3 -2 -9z m323 -53 c-5 -8 -2 -9 11 -4 15 5 16 4 5 -9 -14 -17
-35 -21 -25 -5 3 6 1 10 -5 10 -7 0 -14 -9 -17 -20 -3 -11 -9 -20 -15 -20 -13
0 9 37 30 49 22 13 25 13 16 -1z m-108 -83 c-20 -30 -4 -34 28 -8 12 10 5 0
-14 -22 -32 -36 -27 -35 26 5 11 8 2 -3 -20 -25 -23 -22 -40 -45 -38 -51 1 -5
-14 -18 -33 -27 -19 -9 -35 -22 -35 -28 0 -6 -6 -9 -13 -6 -8 3 -38 -3 -68
-14 -30 -10 -63 -18 -74 -18 -11 0 8 10 43 21 55 18 60 22 45 34 -10 7 -21 10
-25 8 -4 -3 -21 -7 -37 -9 -38 -4 -32 19 10 37 40 18 36 30 -7 22 -27 -5 -35
-4 -30 5 4 6 15 11 24 11 21 0 134 41 187 69 51 26 50 26 31 -4z m139 -11 c30
-19 33 -38 5 -29 -10 3 -29 1 -41 -5 -29 -16 -45 7 -22 32 20 22 27 22 58 2z
m59 -51 c4 -9 1 -20 -6 -25 -16 -10 -20 -10 -37 1 -12 8 -12 12 -2 25 17 21
37 20 45 -1z m-51 -37 c24 -19 21 -36 -7 -36 -26 0 -51 24 -41 40 8 14 26 12
48 -4z m85 -24 c3 -9 -2 -13 -14 -10 -9 1 -19 9 -22 16 -3 9 2 13 14 10 9 -1
19 -9 22 -16z m-788 -82 c0 -34 -15 -40 -25 -10 -3 11 -11 20 -16 20 -5 0 -9
5 -9 10 0 6 11 10 25 10 21 0 25 -5 25 -30z m800 -41 c0 -35 -24 -39 -41 -7
-10 18 -8 24 6 34 24 18 35 9 35 -27z m-1170 5 c0 -2 -14 -23 -31 -47 -25 -33
-30 -37 -26 -17 4 14 7 37 7 51 0 23 4 26 25 21 14 -2 25 -6 25 -8z m1131 -50
c10 -13 10 -17 -2 -25 -14 -9 -49 -12 -49 -5 0 2 -3 11 -6 19 -5 13 4 20 37
26 4 0 12 -6 20 -15z m-1286 -34 c3 -5 1 -10 -4 -10 -6 0 -11 5 -11 10 0 6 2
10 4 10 3 0 8 -4 11 -10z m139 -34 c-11 -29 -84 -42 -84 -15 0 12 14 11 27 -2
8 -8 16 -4 29 14 19 25 37 27 28 3z m583 -6 c2 -21 -13 -24 -57 -10 -23 7 -22
8 10 9 26 1 31 4 20 11 -12 8 -11 10 5 10 14 0 21 -7 22 -20z m119 5 c-11 -8
-31 -15 -45 -14 -21 0 -19 3 14 14 52 17 53 17 31 0z m464 6 c0 -13 -29 -35
-37 -28 -7 8 15 37 28 37 5 0 9 -4 9 -9z m-1300 -16 c11 -13 10 -14 -4 -9 -9
3 -16 10 -16 15 0 13 6 11 20 -6z m-306 -87 c-4 -6 -10 -5 -15 3 -14 22 -10
33 6 19 8 -7 12 -17 9 -22z m282 4 c-18 -16 -18 -16 -6 6 6 13 14 21 18 18 3
-4 -2 -14 -12 -24z m1209 -2 c0 -23 -59 -20 -63 3 -3 15 2 18 30 15 21 -2 33
-8 33 -18z m-1101 -31 c8 -16 12 -37 9 -45 -7 -19 -44 -18 -69 2 -19 15 -19
15 2 9 18 -5 23 0 28 30 4 19 9 35 11 35 2 0 10 -14 19 -31z m423 25 c-3 -3
-12 -4 -19 -1 -8 3 -5 6 6 6 11 1 17 -2 13 -5z m216 -21 c-7 -2 -19 -2 -25 0
-7 3 -2 5 12 5 14 0 19 -2 13 -5z m467 -16 c0 -2 -11 -14 -25 -27 l-25 -23 0
26 c0 22 5 27 25 27 14 0 25 -1 25 -3z m-2005 -187 c-3 -5 -10 -10 -16 -10 -5
0 -9 5 -9 10 0 6 7 10 16 10 8 0 12 -4 9 -10z m500 -84 c11 -16 22 -22 35 -19
16 4 20 0 20 -18 0 -12 6 -30 14 -38 7 -9 16 -28 20 -42 5 -23 2 -27 -22 -32
-15 -3 -30 -3 -34 0 -12 7 -9 58 3 70 8 8 6 11 -7 10 -14 -2 -19 5 -19 23 0
18 -6 26 -23 28 -14 2 -22 10 -22 23 0 26 16 24 35 -5z m1160 14 c8 -13 -12
-40 -30 -40 -6 0 -17 11 -23 25 -11 24 -10 25 18 25 16 0 32 -5 35 -10z
m-1055 -67 c-24 -17 -35 -12 -27 11 4 9 14 12 27 9 l21 -6 -21 -14z m972 -17
c10 -14 10 -18 -1 -35 -8 -12 -13 -12 -35 3 -14 9 -26 25 -26 36 0 17 4 19 28
14 15 -4 30 -12 34 -18z m-854 -4 c10 -7 8 -13 -7 -26 -19 -17 -20 -17 -30 3
-6 11 -11 22 -11 25 0 9 33 7 48 -2z m36 -63 c4 -24 2 -35 -11 -45 -10 -7 -22
-12 -28 -10 -15 4 -18 42 -5 65 16 31 37 25 44 -10z m-2374 1 c0 -5 -2 -10 -4
-10 -3 0 -8 5 -11 10 -3 6 -1 10 4 10 6 0 11 -4 11 -10z m2413 -4 c6 -16 -2
-28 -14 -20 -12 7 -11 34 0 34 5 0 11 -6 14 -14z m747 -6 c0 -11 -4 -20 -10
-20 -5 0 -10 9 -10 20 0 11 5 20 10 20 6 0 10 -9 10 -20z m-22 -101 c1 -9 -4
-21 -12 -28 -11 -9 -17 -8 -30 4 -24 24 -19 41 11 40 17 0 29 -6 31 -16z
m-1283 -79 c-5 -8 -11 -8 -17 -2 -6 6 -7 16 -3 22 5 8 11 8 17 2 6 -6 7 -16 3
-22z m330 -28 c3 -8 -4 -6 -20 5 -13 10 -25 21 -25 26 0 11 39 -16 45 -31z
m960 17 c9 -27 4 -30 -19 -14 -10 8 -15 18 -11 24 10 17 23 13 30 -10z m-658
-25 c9 -20 9 -26 -3 -31 -15 -5 -20 -33 -6 -33 4 0 13 5 20 12 20 20 33 -4 38
-67 3 -43 0 -63 -11 -75 -9 -10 -18 -34 -20 -55 -3 -20 -8 -41 -11 -46 -3 -5
-1 -9 4 -9 12 0 25 47 17 61 -4 5 0 12 9 15 8 3 12 12 9 20 -3 7 2 17 11 20
12 5 15 15 10 45 -8 51 10 52 60 3 27 -26 34 -39 27 -48 -6 -7 -8 -16 -4 -19
3 -4 1 -7 -5 -7 -7 0 -12 10 -12 23 0 16 -3 18 -9 8 -5 -7 -13 -11 -17 -9 -5
3 -18 -3 -28 -13 -19 -19 -19 -19 12 -15 34 4 44 -8 14 -17 -32 -8 -34 -46 -6
-74 23 -23 31 -25 75 -20 53 7 79 -8 79 -44 0 -19 0 -19 -20 1 -11 11 -31 20
-45 20 -35 0 -115 -22 -115 -32 0 -5 -12 -6 -27 -2 -19 4 -24 3 -15 -4 24 -17
-23 -21 -56 -5 -30 14 -49 42 -56 79 -5 27 5 43 32 49 12 2 27 7 34 11 8 5 9
1 4 -12 -6 -15 -5 -16 5 -7 15 15 20 53 7 53 -4 0 -8 11 -8 25 0 33 -25 81
-46 89 -16 6 -16 8 0 25 17 18 17 20 -3 31 -25 13 -45 4 -37 -16 3 -7 1 -16
-4 -19 -6 -4 -10 -1 -10 5 0 6 -4 9 -8 6 -4 -2 -14 -1 -22 4 -11 7 -10 11 3
25 10 9 17 20 17 25 0 14 33 21 42 8 5 -9 8 -9 8 -1 0 15 28 43 43 43 7 0 17
-12 24 -26z m95 -16 c7 -13 11 -26 10 -30 -1 -5 6 -8 17 -8 30 0 45 -24 30
-49 -16 -25 -49 -11 -49 21 0 17 -3 19 -12 10 -16 -16 -48 13 -48 43 0 41 32
49 52 13z m-322 -3 c-7 -9 -15 -13 -17 -11 -7 7 7 26 19 26 6 0 6 -6 -2 -15z
m80 -14 c0 -5 -6 -13 -13 -19 -15 -13 -42 1 -33 17 8 13 46 15 46 2z m850 -18
c0 -54 -59 -83 -93 -45 -16 17 -15 19 19 32 19 8 40 20 46 27 17 21 28 15 28
-14z m77 -37 c-2 -6 -16 -12 -32 -14 -22 -3 -27 0 -21 13 3 9 6 21 6 26 0 5
11 3 25 -3 14 -6 24 -16 22 -22z m348 14 c-3 -5 -10 -10 -16 -10 -5 0 -9 5 -9
10 0 6 7 10 16 10 8 0 12 -4 9 -10z m-65 -14 c0 -8 -8 -22 -17 -32 -16 -15
-17 -15 -24 2 -12 29 -11 32 14 37 12 2 23 5 25 6 1 0 2 -5 2 -13z m-220 -15
c0 -9 -23 -21 -41 -21 -4 0 -6 7 -3 15 7 16 44 21 44 6z m148 -24 c4 -33 -22
-67 -51 -67 -16 0 -17 3 -8 14 7 8 13 31 14 51 2 29 5 35 22 33 14 -2 21 -12
23 -31z m1179 7 c3 -8 1 -26 -5 -39 -9 -20 -15 -23 -34 -16 -16 6 -22 16 -20
32 4 37 47 54 59 23z m-4652 -14 c3 -5 1 -10 -4 -10 -6 0 -11 5 -11 10 0 6 2
10 4 10 3 0 8 -4 11 -10z m2443 -15 c-3 -3 -9 2 -12 12 -6 14 -5 15 5 6 7 -7
10 -15 7 -18z m1137 5 c9 -14 -4 -50 -18 -50 -7 0 -18 10 -26 21 -11 18 -11
23 1 30 18 12 35 11 43 -1z m-3559 -25 c9 -8 11 -15 6 -15 -5 0 -15 7 -22 15
-7 8 -9 15 -6 15 4 0 14 -7 22 -15z m3499 -15 c22 -24 13 -70 -14 -70 -20 0
-32 37 -24 71 7 24 15 24 38 -1z m1135 -19 c0 -6 -4 -13 -10 -16 -5 -3 -10 1
-10 9 0 9 5 16 10 16 6 0 10 -4 10 -9z m-1960 -5 c0 -9 -30 -14 -35 -6 -4 6 3
10 14 10 12 0 21 -2 21 -4z m2578 -48 c-3 -7 -11 -13 -18 -13 -7 0 -15 6 -17
13 -3 7 4 12 17 12 13 0 20 -5 18 -12z m-1714 -14 c11 -30 6 -44 -23 -59 -32
-16 -35 -14 -45 28 -5 23 -3 27 14 27 11 0 20 5 20 10 0 16 27 11 34 -6z
m1271 -14 c9 -15 -3 -47 -21 -54 -21 -8 -55 11 -48 27 4 11 38 33 56 36 4 0
10 -4 13 -9z m-85 -15 c0 -8 -4 -15 -9 -15 -13 0 -22 16 -14 24 11 11 23 6 23
-9z m150 -15 c0 -25 -27 -51 -45 -44 -16 7 -10 54 8 66 16 10 37 -2 37 -22z
m-2 -75 c-3 -3 -13 -2 -22 1 -14 5 -15 9 -4 15 13 8 36 -6 26 -16z m-2178 -36
c0 -14 -17 -10 -23 5 -4 10 -1 13 9 9 7 -3 14 -9 14 -14z m30 -34 c11 -13 10
-14 -4 -9 -9 3 -16 10 -16 15 0 13 6 11 20 -6z m45 -15 c3 -5 1 -10 -4 -10 -6
0 -11 5 -11 10 0 6 2 10 4 10 3 0 8 -4 11 -10z m1853 -52 c-7 -19 -38 -22 -38
-4 0 10 9 16 21 16 12 0 19 -5 17 -12z m670 -94 c-10 -10 -28 6 -28 24 0 15 1
15 17 -1 9 -9 14 -19 11 -23z m-522 11 c6 -16 -12 -45 -28 -45 -15 0 -21 30
-8 45 16 19 29 19 36 0z m-6 -98 c0 -20 -1 -20 -16 -5 -9 9 -13 21 -9 27 10
16 25 3 25 -22z m40 -1 c0 -3 -4 -8 -10 -11 -5 -3 -10 -1 -10 4 0 6 5 11 10
11 6 0 10 -2 10 -4z m265 -46 c15 -28 14 -30 -4 -30 -24 0 -43 23 -35 44 9 24
22 20 39 -14z"/>
<path d="M4830 3238 c0 -17 2 -18 15 -8 8 7 15 14 15 15 0 2 -7 5 -15 9 -10 4
-15 -1 -15 -16z"/>
<path d="M4790 3225 c0 -18 19 -40 26 -32 4 4 0 15 -9 24 -9 10 -17 13 -17 8z"/>
<path d="M4320 3131 c0 -7 14 -29 30 -48 17 -18 30 -38 30 -43 0 -6 7 -10 15
-10 8 0 15 4 15 9 0 5 -7 14 -15 21 -8 7 -15 19 -15 26 0 8 -6 14 -14 14 -8 0
-22 10 -30 22 -9 13 -16 16 -16 9z"/>
<path d="M4573 3129 c-7 -7 -13 -24 -12 -38 0 -16 3 -20 6 -11 3 8 10 18 15
21 6 4 8 14 6 23 -2 14 -5 15 -15 5z"/>
<path d="M4610 3075 c-14 -16 -10 -18 14 -9 9 3 16 10 16 15 0 14 -16 11 -30
-6z"/>
<path d="M4290 3049 l35 -34 6 25 c6 29 1 40 -10 21 -7 -11 -14 -10 -37 4 -27
16 -26 15 6 -16z"/>
<path d="M4460 2987 c0 -5 4 -17 10 -27 7 -14 6 -20 -8 -26 -16 -7 -21 -8 -47
-13 -5 -1 -1 -8 9 -16 19 -15 19 -15 -2 -15 -29 0 -28 -18 2 -32 27 -12 45
-41 20 -31 -9 3 -14 -1 -14 -12 0 -12 5 -15 16 -11 9 4 24 1 32 -6 13 -11 15
-10 9 4 -8 23 14 73 32 73 21 0 37 65 19 76 -7 5 -20 6 -30 3 -10 -3 -23 4
-32 18 -9 12 -16 19 -16 15z m10 -133 c0 -8 -4 -12 -10 -9 -5 3 -10 10 -10 16
0 5 5 9 10 9 6 0 10 -7 10 -16z"/>
<path d="M4370 2940 c0 -5 5 -10 11 -10 5 0 7 5 4 10 -3 6 -8 10 -11 10 -2 0
-4 -4 -4 -10z"/>
<path d="M4374 2854 c3 -9 6 -20 6 -26 0 -6 6 -5 15 2 12 10 13 16 4 26 -16
19 -33 18 -25 -2z"/>
<path d="M2701 2991 c-9 -6 -7 -10 8 -14 12 -3 21 -1 21 3 0 14 -15 19 -29 11z"/>
<path d="M2615 2860 c3 -5 10 -10 16 -10 5 0 9 5 9 10 0 6 -7 10 -16 10 -8 0
-12 -4 -9 -10z"/>
<path d="M2350 2851 c0 -6 5 -13 10 -16 6 -3 10 1 10 9 0 9 -4 16 -10 16 -5 0
-10 -4 -10 -9z"/>
<path d="M5240 2890 c-9 -6 -10 -10 -3 -10 6 0 15 5 18 10 8 12 4 12 -15 0z"/>
<path d="M3586 2255 c-11 -8 -15 -15 -9 -15 6 0 16 7 23 15 16 19 11 19 -14 0z"/>
<path d="M3440 2089 c0 -5 -5 -7 -12 -3 -7 4 -8 3 -4 -4 10 -16 23 -15 30 3 3
8 1 15 -4 15 -6 0 -10 -5 -10 -11z"/>
<path d="M2490 910 c0 -5 5 -21 12 -35 12 -28 34 -35 23 -7 -4 9 -10 25 -12
35 -6 18 -23 24 -23 7z"/>
<path d="M2490 666 c0 -16 -2 -17 -17 -5 -10 7 -7 1 7 -15 19 -21 26 -24 28
-12 2 8 -1 23 -7 33 -10 17 -10 17 -11 -1z"/>
<path d="M3037 3889 c7 -7 15 -10 18 -7 3 3 -2 9 -12 12 -14 6 -15 5 -6 -5z"/>
<path d="M3113 3870 c-45 -10 -158 -67 -179 -91 -9 -10 -21 -19 -25 -19 -9 0
-65 -37 -89 -58 -37 -33 -170 -120 -215 -142 -30 -14 -75 -25 -112 -28 -35 -2
-61 -8 -58 -12 2 -3 1 -20 -4 -36 l-8 -29 -17 33 c-9 18 -14 37 -11 42 3 6 -3
10 -14 10 -14 0 -19 -5 -15 -15 4 -8 1 -15 -5 -15 -10 0 -15 13 -13 31 1 4
-10 10 -25 14 -28 7 -43 -6 -43 -39 0 -15 -3 -16 -15 -6 -21 17 -19 50 3 51
32 1 -28 19 -94 28 -45 7 -79 6 -120 -4 -52 -12 -95 -35 -66 -35 7 0 12 -7 12
-15 0 -18 -26 -20 -33 -2 -4 9 -7 9 -17 0 -11 -10 -10 -14 3 -19 19 -7 24 -62
7 -82 -6 -6 -7 -10 -3 -7 3 3 16 -4 28 -15 12 -11 32 -22 43 -25 17 -3 22 1
21 18 0 12 -3 16 -6 10 -7 -19 -20 -16 -43 9 -21 23 -25 45 -11 66 6 11 19 6
57 -20 61 -41 64 -46 60 -83 -2 -16 -1 -22 1 -12 7 29 32 32 59 7 13 -13 24
-19 24 -13 0 5 -9 18 -20 28 -30 27 -22 110 9 91 7 -5 11 3 11 22 0 25 25 63
33 51 13 -20 24 -72 20 -93 -6 -30 -18 -33 -32 -9 -5 10 -13 14 -17 10 -4 -4
12 -27 35 -51 32 -33 41 -49 37 -64 -4 -11 -3 -23 2 -26 6 -3 12 4 16 16 5 22
6 22 20 3 14 -19 15 -17 16 23 0 49 7 52 40 17 13 -14 31 -25 40 -25 22 0 50
-31 50 -55 0 -18 1 -18 14 1 12 15 17 17 27 7 22 -22 26 -15 15 22 -11 36 -26
47 -26 20 0 -22 -13 -19 -39 9 -17 18 -21 30 -16 47 l7 22 17 -20 c9 -12 27
-24 41 -28 40 -12 65 -34 65 -57 0 -12 6 -23 13 -25 7 -3 12 5 12 21 0 26 23
36 35 16 3 -5 13 -10 22 -10 12 0 9 7 -11 25 -40 37 -31 81 10 50 36 -27 48
-15 14 14 -32 26 -34 30 -22 56 9 19 16 24 25 17 6 -5 24 -12 40 -16 25 -6 27
-4 27 23 0 16 3 37 6 46 6 14 8 14 26 -2 20 -18 20 -17 14 14 -12 55 2 56 67
6 34 -26 65 -52 69 -58 5 -7 8 -6 8 1 0 7 -16 24 -35 38 -19 15 -35 36 -35 46
0 13 -5 17 -14 14 -19 -7 -28 10 -20 40 5 22 8 23 25 13 11 -7 17 -17 15 -23
-3 -7 3 -10 14 -7 13 3 28 -5 45 -23 l25 -29 -16 37 c-16 34 -16 38 0 53 16
16 18 16 31 -1 17 -24 30 -12 16 15 -9 15 -8 26 1 41 16 25 33 26 44 3 6 -15
8 -12 14 12 3 17 11 29 18 28 7 -2 12 4 12 12 0 18 16 20 26 3 4 -6 2 -14 -4
-16 -26 -8 -55 -92 -32 -92 6 0 10 10 10 23 0 33 15 49 41 45 32 -4 39 -43 10
-51 -13 -3 -21 -13 -21 -27 0 -16 -4 -20 -15 -16 -10 3 -15 -1 -15 -12 0 -10
-5 -23 -12 -30 -9 -9 -9 -12 -1 -12 7 0 15 5 18 10 4 6 11 8 16 4 10 -6 59
-80 59 -88 0 -3 -17 -13 -37 -23 -21 -9 -44 -25 -51 -35 -7 -10 -20 -18 -28
-18 -9 0 -22 -7 -31 -16 -14 -14 -14 -17 6 -35 12 -11 21 -32 21 -48 0 -30
-21 -56 -35 -43 -4 4 0 -8 11 -27 25 -44 52 -61 102 -63 35 -1 42 -5 42 -22 0
-11 12 -31 27 -43 l27 -23 28 27 c27 26 28 26 43 7 8 -10 17 -27 20 -36 4 -10
11 -18 16 -18 6 0 5 8 -1 21 -13 24 -4 41 10 19 6 -8 13 -30 16 -48 5 -26 2
-38 -14 -54 -23 -23 -42 -17 -42 15 0 18 -2 19 -10 7 -9 -13 -13 -12 -30 9
l-20 23 2 -26 c1 -14 5 -26 8 -26 3 0 13 -7 23 -14 17 -13 17 -16 2 -39 -11
-17 -15 -41 -13 -73 2 -28 -1 -48 -8 -51 -7 -2 -10 6 -9 22 4 29 -10 42 -19
19 -4 -9 1 -28 10 -42 l17 -26 19 25 c40 51 48 59 58 59 6 0 8 -10 5 -23 -5
-17 -2 -24 9 -24 11 0 13 8 9 28 -4 21 0 31 16 41 12 7 21 18 21 25 0 15 -16
17 -25 3 -13 -21 -26 -9 -23 23 3 30 5 32 41 31 29 -1 37 2 37 16 0 26 35 31
50 7 10 -17 10 -22 -4 -33 -11 -8 -13 -14 -7 -19 6 -3 11 -1 11 4 0 18 30 12
36 -6 3 -10 10 -27 16 -38 8 -14 8 -20 -1 -23 -6 -2 -11 -7 -11 -12 0 -4 11
-3 25 3 26 12 40 35 29 46 -4 3 -9 0 -11 -7 -7 -18 -33 5 -33 29 0 10 -12 30
-26 44 -24 24 -25 27 -10 44 9 10 16 22 16 27 0 5 -4 3 -9 -5 -8 -12 -18 -13
-58 -4 -39 9 -45 9 -30 -1 22 -17 22 -32 0 -40 -22 -9 -34 12 -30 51 2 23 -2
34 -13 37 -31 8 25 6 63 -3 39 -9 44 -5 25 22 -15 20 -120 50 -129 36 -3 -5
-14 -2 -25 6 -21 16 -22 15 51 19 11 1 25 4 30 8 6 4 17 3 25 -3 8 -5 24 -9
36 -9 23 0 61 -36 51 -47 -4 -3 -7 -1 -7 5 0 7 -7 12 -15 12 -9 0 -12 -6 -9
-15 4 -8 13 -15 21 -15 8 0 11 -4 8 -10 -3 -6 1 -7 9 -4 9 3 17 1 17 -5 3 -26
4 -30 13 -38 5 -5 6 -3 2 5 -5 8 0 12 16 12 l23 1 -21 17 c-48 40 -57 111 -28
217 44 161 54 285 29 350 -21 55 -72 105 -143 140 -46 23 -72 29 -137 30 -44
1 -94 -1 -112 -5z m167 -20 c0 -5 -2 -10 -4 -10 -3 0 -8 5 -11 10 -3 6 -1 10
4 10 6 0 11 -4 11 -10z m-120 -47 c0 -9 -3 -13 -7 -10 -3 4 -14 0 -23 -8 -15
-14 -18 -14 -30 0 -11 13 -10 14 3 9 10 -3 20 2 27 16 12 22 30 18 30 -7z
m100 -25 c-10 -3 -20 -13 -23 -22 -4 -9 -11 -16 -17 -16 -16 0 -12 42 7 62 15
17 17 17 33 1 16 -17 16 -18 0 -25z m-266 7 c-7 -16 -24 -21 -24 -6 0 8 7 13
27 20 1 1 0 -6 -3 -14z m396 1 c0 -16 -28 -42 -36 -33 -3 3 -3 15 1 26 7 23
35 29 35 7z m-437 -35 c-5 -3 -12 -14 -16 -24 -8 -20 -27 -14 -27 8 0 16 31
36 43 28 5 -3 5 -8 0 -12z m235 0 c3 -8 0 -11 -6 -8 -5 4 -15 0 -22 -8 -7 -8
-9 -15 -4 -16 5 -1 20 -2 34 -2 18 -2 26 -9 28 -26 2 -13 -1 -21 -6 -17 -5 3
-18 -1 -28 -9 -26 -20 -34 -18 -34 6 0 11 -4 28 -9 37 -12 24 5 64 26 60 9 -2
18 -9 21 -17z m115 -1 c3 -10 -1 -24 -9 -31 -8 -6 -14 -18 -14 -26 0 -18 -25
-44 -34 -36 -15 15 -5 73 16 93 27 25 34 25 41 0z m94 -26 c3 -8 -4 -26 -17
-39 -19 -20 -26 -22 -51 -13 -36 12 -36 21 -3 45 32 24 63 27 71 7z m-500 -20
c3 -8 -1 -23 -10 -32 -15 -14 -17 -14 -23 1 -8 21 1 47 16 47 6 0 13 -7 17
-16z m563 -37 c0 -6 -3 -7 -6 -4 -10 10 -44 -12 -44 -28 0 -8 -7 -15 -15 -15
-29 0 -9 52 25 62 19 6 40 -1 40 -15z m-320 -19 c0 -11 -8 -27 -17 -34 -10 -7
-15 -16 -11 -20 4 -4 15 -1 25 7 9 8 14 9 10 3 -4 -6 3 -20 15 -30 21 -19 21
-19 15 6 -7 29 0 44 25 53 24 9 31 -7 23 -52 -5 -33 -11 -40 -42 -49 -39 -12
-53 -9 -53 13 0 8 -11 26 -25 41 -30 33 -30 34 -4 68 23 29 39 26 39 -6z m205
-8 c3 -5 1 -10 -6 -10 -7 0 -20 -7 -30 -16 -10 -9 -25 -14 -34 -10 -13 5 -13
9 -3 26 13 21 62 28 73 10z m135 -34 c0 -15 -29 -30 -39 -20 -3 3 3 12 13 20
24 17 26 17 26 0z m-91 -17 c11 -19 11 -21 -3 -16 -9 4 -25 1 -36 -5 -29 -18
-38 1 -11 23 29 24 33 24 50 -2z m-659 -5 c0 -17 -22 -14 -28 4 -2 7 3 12 12
12 9 0 16 -7 16 -16z m560 -14 c0 -16 -26 -29 -40 -20 -11 7 -11 11 -1 24 12
14 41 12 41 -4z m-1180 6 c0 -15 -14 -35 -21 -30 -15 9 -10 34 6 34 8 0 15 -2
15 -4z m83 -2 c3 -4 -1 -16 -9 -28 -8 -13 -11 -26 -7 -29 3 -4 1 -7 -5 -7 -15
0 -53 50 -46 61 6 10 57 12 67 3z m507 -51 c0 -35 -1 -35 -22 -21 -39 26 -37
89 2 68 14 -8 20 -21 20 -47z m-622 -25 c-1 -32 -13 -35 -40 -11 -21 19 -24
53 -6 71 17 17 47 -23 46 -60z m550 17 c-1 -1 -14 2 -28 7 -24 10 -24 11 -5
18 13 5 23 3 28 -7 5 -8 7 -16 5 -18z m832 20 c0 -10 -10 -15 -30 -15 -29 0
-38 9 -23 23 13 13 53 7 53 -8z m-1316 -55 c-4 -14 -6 -33 -6 -42 1 -25 -14
-22 -32 4 -33 47 -11 114 26 81 14 -12 17 -24 12 -43z m1216 40 c0 -4 -11 -10
-25 -12 -26 -5 -41 5 -31 21 6 10 56 2 56 -9z m-1024 -7 c8 -13 8 -28 -1 -53
l-12 -35 -16 31 c-26 50 1 102 29 57z m188 -17 c-5 -13 -9 -14 -21 -4 -13 10
-13 13 4 19 23 8 25 6 17 -15z m75 4 c4 0 7 -16 8 -35 1 -38 0 -39 -26 -25
-34 18 -37 78 -4 66 8 -3 18 -6 22 -6z m-106 -22 c21 -18 23 -26 14 -45 -12
-27 -20 -29 -41 -7 -16 16 -22 55 -9 67 9 9 8 10 36 -15z m901 16 c9 -3 16
-13 16 -21 0 -9 -6 -13 -14 -10 -7 3 -18 1 -24 -5 -13 -13 -26 7 -18 27 6 16
16 18 40 9z m96 -3 c0 -11 -39 -25 -47 -18 -3 3 -2 10 2 16 8 13 45 15 45 2z
m-1196 -43 c16 -30 13 -68 -4 -68 -4 0 -14 10 -23 23 -12 19 -15 40 -8 80 2
14 19 -3 35 -35z m107 19 c7 -15 7 -36 2 -57 l-9 -34 -22 22 c-24 24 -29 61
-10 80 18 18 27 15 39 -11z m181 -78 c-4 -27 -5 -27 -27 -13 -27 18 -37 38
-29 59 5 13 9 13 33 -1 22 -13 26 -22 23 -45z m773 41 c8 -13 -25 -13 -45 0
-12 8 -9 10 12 10 15 0 30 -4 33 -10z m103 -8 c2 -7 -2 -10 -12 -6 -9 3 -16
11 -16 16 0 13 23 5 28 -10z m-48 -46 c0 -13 -21 -15 -58 -7 -2 1 0 6 3 11 10
16 55 12 55 -4z m-102 -15 c3 -8 -1 -12 -9 -9 -7 2 -15 10 -17 17 -3 8 1 12 9
9 7 -2 15 -10 17 -17z m132 -31 c0 -5 -2 -10 -4 -10 -2 0 -12 -3 -22 -7 -16
-6 -17 -5 -4 10 17 19 30 22 30 7z m-63 -17 c3 -8 -10 -11 -44 -9 -26 1 -54
-2 -61 -7 -7 -6 -16 -7 -20 -3 -4 4 0 13 9 19 21 16 111 16 116 0z m-33 -48
c-4 -8 -14 -15 -24 -15 -10 0 -25 -3 -34 -6 -25 -9 -19 10 7 22 34 17 57 17
51 -1z m90 7 c2 -4 -11 -12 -30 -18 -35 -11 -43 -7 -22 14 14 14 44 16 52 4z
m-237 -74 c31 -11 45 -28 24 -28 -5 0 -17 -7 -26 -16 -19 -19 -31 -11 -40 29
-8 31 -5 32 42 15z m86 -235 c3 -16 5 -29 4 -29 -1 -1 -12 -5 -24 -8 -19 -6
-23 -3 -23 13 0 52 34 71 43 24z"/>
<path d="M2900 3810 c0 -5 5 -10 11 -10 5 0 7 5 4 10 -3 6 -8 10 -11 10 -2 0
-4 -4 -4 -10z"/>
<path d="M3516 3755 c24 -39 24 -40 24 -28 0 6 -9 21 -21 34 l-20 24 17 -30z"/>
<path d="M2955 3626 c-19 -13 -18 -14 8 -13 15 1 27 8 27 15 0 16 -12 15 -35
-2z"/>
<path d="M2090 3619 c0 -5 5 -7 10 -4 6 3 10 8 10 11 0 2 -4 4 -10 4 -5 0 -10
-5 -10 -11z"/>
<path d="M2208 3613 c7 -3 16 -2 19 1 4 3 -2 6 -13 5 -11 0 -14 -3 -6 -6z"/>
<path d="M2526 3577 c3 -10 9 -15 12 -12 3 3 0 11 -7 18 -10 9 -11 8 -5 -6z"/>
<path d="M3004 3570 c0 -10 6 -16 13 -13 6 3 18 -5 25 -16 19 -32 31 -25 14 8
-18 33 -52 47 -52 21z"/>
<path d="M3551 3554 c0 -11 3 -14 6 -6 3 7 2 16 -1 19 -3 4 -6 -2 -5 -13z"/>
<path d="M2980 3515 c7 -8 17 -12 22 -9 6 4 5 10 -3 15 -22 14 -33 10 -19 -6z"/>
<path d="M1870 3509 c0 -5 5 -7 10 -4 6 3 10 8 10 11 0 2 -4 4 -10 4 -5 0 -10
-5 -10 -11z"/>
<path d="M1809 3486 c14 -15 26 -26 28 -26 9 0 -24 40 -37 45 -8 4 -4 -5 9
-19z"/>
<path d="M1896 3484 c-3 -8 1 -22 10 -31 19 -20 24 -15 17 20 -6 30 -18 35
-27 11z"/>
<path d="M3780 3490 c0 -5 5 -10 11 -10 5 0 7 5 4 10 -3 6 -8 10 -11 10 -2 0
-4 -4 -4 -10z"/>
<path d="M2673 3457 c4 -10 7 -26 7 -34 0 -9 3 -13 7 -10 3 4 16 -1 27 -10 21
-18 21 -18 4 3 -10 11 -18 25 -18 31 0 6 -8 17 -17 24 -15 12 -16 12 -10 -4z"/>
<path d="M1021 3445 c0 -5 6 -19 14 -29 8 -11 15 -15 15 -10 0 6 -7 19 -15 30
-8 10 -14 15 -14 9z"/>
<path d="M1857 3423 c-10 -18 -13 -33 -7 -33 5 0 10 -7 10 -16 0 -13 -3 -14
-13 -5 -15 12 -27 5 -27 -16 0 -8 5 -11 10 -8 6 3 10 -5 10 -18 0 -26 -25 -44
-35 -26 -4 5 -16 -2 -28 -17 -20 -26 -20 -28 -4 -56 9 -16 17 -40 17 -53 0
-30 10 -55 21 -55 6 0 5 9 -1 21 -8 14 -8 29 -2 48 8 23 7 31 -9 45 -20 16
-25 41 -11 50 17 10 52 -7 52 -24 0 -26 10 -50 21 -50 6 0 5 8 -1 19 -15 28
-12 51 5 51 14 0 14 2 0 23 -13 20 -13 26 -1 42 13 18 15 18 39 2 13 -9 34
-15 46 -14 22 1 28 12 11 22 -5 3 -10 17 -10 31 0 14 -4 22 -10 19 -6 -3 -7
-17 -4 -31 7 -28 -3 -30 -33 -6 -13 10 -23 31 -25 52 l-3 35 -18 -32z"/>
<path d="M2750 3436 c16 -16 36 -20 83 -18 16 1 26 6 23 11 -3 4 -17 6 -30 4
-14 -3 -40 0 -58 6 -29 10 -31 10 -18 -3z"/>
<path d="M869 3407 c5 -5 19 -7 32 -5 20 3 19 5 -9 9 -20 3 -29 2 -23 -4z"/>
<path d="M4366 3407 c3 -10 9 -15 12 -12 3 3 0 11 -7 18 -10 9 -11 8 -5 -6z"/>
<path d="M2205 3390 c-3 -11 -2 -28 4 -37 8 -15 10 -11 11 20 0 41 -5 47 -15
17z"/>
<path d="M3920 3395 c0 -8 4 -15 9 -15 5 0 11 7 15 15 3 9 0 15 -9 15 -8 0
-15 -7 -15 -15z"/>
<path d="M2690 3396 c0 -2 8 -10 18 -17 15 -13 16 -12 3 4 -13 16 -21 21 -21
13z"/>
<path d="M4330 3380 c-13 -8 -12 -10 3 -10 9 0 17 5 17 10 0 12 -1 12 -20 0z"/>
<path d="M825 3371 c-2 -4 29 -7 68 -7 50 -1 64 2 48 8 -25 9 -110 8 -116 -1z"/>
<path d="M2670 3358 c0 -9 5 -20 11 -23 17 -11 18 -2 3 19 -12 17 -14 17 -14
4z"/>
<path d="M1020 3334 c60 -34 80 -53 80 -76 0 -19 16 -25 22 -8 2 6 12 4 25 -5
12 -9 20 -22 17 -30 -3 -7 -1 -22 5 -32 9 -16 10 -16 11 5 0 14 5 22 12 20 19
-7 20 -24 3 -41 -11 -11 -12 -22 -6 -39 l10 -23 0 26 c1 15 8 32 16 39 13 11
15 9 15 -13 0 -13 7 -30 16 -38 8 -7 22 -26 30 -43 l14 -31 -4 30 c-3 17 -1
37 3 44 13 21 53 -5 49 -32 -3 -24 8 -47 22 -47 6 0 5 11 0 26 -14 36 -13 36
20 19 28 -14 30 -19 24 -54 -4 -27 -2 -40 7 -43 11 -4 14 6 15 41 1 45 0 46
-47 70 -26 13 -113 72 -192 131 -152 113 -177 130 -199 130 -7 0 7 -12 32 -26z
m256 -201 c-3 -8 -6 -17 -6 -19 0 -3 -4 -2 -10 1 -17 11 -12 45 6 38 8 -3 13
-12 10 -20z"/>
<path d="M1055 3348 c3 -7 17 -18 31 -25 22 -10 24 -10 13 3 -18 22 -50 38
-44 22z"/>
<path d="M2380 3322 c0 -18 5 -32 10 -32 6 0 8 11 4 28 -10 39 -14 40 -14 4z"/>
<path d="M790 3332 c0 -5 9 -12 21 -15 13 -3 19 -1 16 6 -5 15 -37 22 -37 9z"/>
<path d="M5120 3310 c20 -13 33 -13 25 0 -3 6 -14 10 -23 10 -15 0 -15 -2 -2
-10z"/>
<path d="M2926 3291 c-4 -5 -2 -20 3 -33 9 -21 10 -21 10 10 1 32 -3 39 -13
23z"/>
<path d="M860 3270 c8 -5 22 -10 30 -10 13 0 13 1 0 10 -8 5 -22 10 -30 10
-13 0 -13 -1 0 -10z"/>
<path d="M1180 3255 c7 -8 17 -15 22 -15 6 0 5 7 -2 15 -7 8 -17 15 -22 15 -6
0 -5 -7 2 -15z"/>
<path d="M1231 3254 c0 -11 3 -14 6 -6 3 7 2 16 -1 19 -3 4 -6 -2 -5 -13z"/>
<path d="M1650 3244 c0 -3 7 -13 16 -21 8 -9 12 -19 7 -22 -4 -3 -19 -19 -33
-35 -20 -23 -21 -26 -5 -16 37 23 57 58 45 80 -10 18 -30 28 -30 14z"/>
<path d="M3492 3230 c0 -14 2 -19 5 -12 2 6 2 18 0 25 -3 6 -5 1 -5 -13z"/>
<path d="M1735 3219 c-7 -20 7 -38 28 -39 13 0 7 18 -8 24 -8 3 -12 12 -9 21
3 8 4 15 1 15 -3 0 -9 -10 -12 -21z"/>
<path d="M1000 3210 c0 -5 5 -10 11 -10 5 0 7 5 4 10 -3 6 -8 10 -11 10 -2 0
-4 -4 -4 -10z"/>
<path d="M1267 3199 c12 -12 24 -21 27 -18 2 2 -8 13 -22 23 l-27 19 22 -24z"/>
<path d="M1311 3194 c0 -11 3 -14 6 -6 3 7 2 16 -1 19 -3 4 -6 -2 -5 -13z"/>
<path d="M5395 3200 c-3 -5 -1 -10 4 -10 6 0 11 5 11 10 0 6 -2 10 -4 10 -3 0
-8 -4 -11 -10z"/>
<path d="M3020 3194 c0 -5 4 -16 10 -24 5 -9 5 -19 -2 -27 -9 -11 -6 -12 14
-4 22 8 28 6 47 -20 12 -16 29 -29 38 -29 11 0 8 6 -12 21 -23 19 -26 27 -21
58 6 32 5 34 -7 19 -18 -22 -26 -22 -49 -1 -10 9 -18 12 -18 7z"/>
<path d="M1030 3180 c0 -5 5 -10 10 -10 6 0 10 5 10 10 0 6 -4 10 -10 10 -5 0
-10 -4 -10 -10z"/>
<path d="M1713 3162 c4 -38 -14 -52 -38 -32 -9 7 -18 10 -21 7 -10 -10 6 -27
26 -27 25 0 32 -13 22 -42 -5 -12 -7 -29 -5 -35 9 -25 31 13 30 48 -2 30 1 34
21 32 27 -3 29 13 3 22 -11 3 -24 18 -30 33 -11 27 -11 27 -8 -6z"/>
<path d="M2930 3181 c0 -5 7 -15 16 -22 9 -7 20 -23 25 -36 5 -13 15 -23 23
-23 7 0 19 -13 26 -30 9 -21 19 -30 36 -30 13 0 24 4 24 9 0 5 -8 8 -17 7 -11
0 -25 13 -35 34 -10 19 -18 31 -18 26 0 -5 -7 -3 -15 4 -8 7 -15 19 -15 28 0
8 -8 21 -17 28 -21 16 -33 18 -33 5z"/>
<path d="M1550 3160 c0 -5 5 -10 10 -10 6 0 10 5 10 10 0 6 -4 10 -10 10 -5 0
-10 -4 -10 -10z"/>
<path d="M1341 3144 c12 -15 79 -47 85 -42 1 2 -20 15 -47 30 -28 14 -45 20
-38 12z"/>
<path d="M5463 3142 c-7 -4 -9 -13 -4 -21 5 -7 6 -23 4 -35 -3 -12 -1 -17 4
-10 4 6 16 15 25 20 16 9 16 10 0 31 -10 13 -22 19 -29 15z"/>
<path d="M1627 3114 c-4 -4 -4 -24 -1 -43 l7 -36 -29 27 c-25 23 -32 25 -52
14 -12 -6 -21 -14 -19 -17 2 -2 7 -17 11 -32 l7 -28 -31 16 c-18 9 -30 23 -30
35 0 13 -7 20 -20 20 -18 0 -18 -1 -3 -27 8 -16 30 -35 47 -44 23 -12 30 -22
29 -40 -2 -23 -1 -22 9 4 7 15 15 27 19 27 5 0 0 13 -9 29 -9 16 -13 33 -10
37 13 12 78 -26 78 -46 0 -10 4 -22 10 -25 6 -4 7 6 4 25 -6 27 -4 30 17 30
l23 0 -21 15 c-12 8 -23 27 -25 41 -2 14 -6 22 -11 18z"/>
<path d="M3420 3110 c-9 -6 -10 -10 -3 -10 6 0 15 5 18 10 8 12 4 12 -15 0z"/>
<path d="M3140 3047 c0 -8 6 -20 14 -26 8 -7 17 -27 20 -46 4 -19 12 -35 18
-35 6 0 7 7 2 18 -4 9 -8 30 -9 45 -2 30 -45 72 -45 44z"/>
<path d="M3080 3013 c0 -11 7 -26 15 -33 20 -17 20 7 0 34 -15 19 -15 19 -15
-1z"/>
<path d="M3634 3011 c3 -5 -3 -11 -14 -14 -11 -3 -18 -1 -14 4 6 10 -9 12 -19
2 -12 -11 13 -31 33 -26 25 7 26 -5 3 -23 -25 -19 -30 -17 -41 15 -5 15 -19
31 -31 34 -27 7 -27 -4 -1 -21 11 -7 20 -18 20 -25 0 -6 7 -25 15 -41 9 -16
13 -37 10 -45 -4 -11 -3 -13 4 -6 5 6 11 21 13 34 2 18 12 27 34 33 36 9 50
33 33 54 -9 11 -8 14 2 15 8 0 5 4 -6 9 -27 12 -47 12 -41 1z"/>
<path d="M3360 3001 c0 -11 29 -35 35 -29 2 2 -4 12 -15 21 -11 9 -20 13 -20
8z"/>
<path d="M1470 2976 c0 -7 6 -19 14 -25 11 -9 12 -6 8 14 -5 26 -22 35 -22 11z"/>
<path d="M3137 2973 c-3 -5 -2 -15 2 -22 7 -10 10 -10 16 -1 4 6 3 16 -3 22
-5 5 -12 6 -15 1z"/>
<path d="M3161 2904 c0 -11 3 -14 6 -6 3 7 2 16 -1 19 -3 4 -6 -2 -5 -13z"/>
<path d="M3380 2900 c0 -6 -11 -15 -25 -20 -34 -13 -52 -53 -37 -82 l12 -23
-1 25 c-2 41 0 48 17 54 12 5 30 -8 60 -41 24 -26 44 -42 44 -36 0 7 -4 15
-10 18 -5 3 -10 18 -10 33 0 21 -2 24 -10 12 -9 -13 -11 -13 -20 0 -11 18 -13
50 -2 50 13 0 59 -35 84 -64 25 -29 25 -29 22 -5 -1 13 -3 29 -3 34 -1 6 -5 5
-9 -2 -5 -8 -19 -1 -46 23 -38 34 -66 44 -66 24z"/>
<path d="M3162 2864 c-5 -9 -24 -19 -43 -24 l-34 -8 35 -1 c40 -1 54 7 58 32
4 21 -4 22 -16 1z"/>
<path d="M5522 2848 c-7 -7 -12 -17 -12 -24 0 -6 -9 -14 -21 -17 -12 -3 -18
-10 -14 -16 3 -6 11 -9 16 -5 14 8 59 -23 59 -41 0 -8 -9 -15 -20 -15 -11 0
-20 -4 -20 -10 0 -5 9 -10 19 -10 11 0 30 -12 42 -27 15 -20 20 -22 14 -8 -15
39 -17 65 -6 65 7 0 9 5 6 10 -4 6 -10 8 -15 5 -14 -9 -37 39 -34 73 2 36 2
36 -14 20z"/>
<path d="M3176 2815 c-6 -17 5 -26 21 -17 8 5 7 11 -2 19 -10 10 -14 9 -19 -2z"/>
<path d="M3375 2799 c-4 -6 -5 -12 -2 -15 2 -3 7 2 10 11 7 17 1 20 -8 4z"/>
<path d="M3520 2791 c0 -5 5 -13 10 -16 6 -3 10 -2 10 4 0 5 -4 13 -10 16 -5
3 -10 2 -10 -4z"/>
<path d="M3260 2781 c0 -6 4 -13 10 -16 6 -3 7 1 4 9 -7 18 -14 21 -14 7z"/>
<path d="M880 2715 c-17 -10 -20 -14 -9 -15 9 0 39 -20 67 -45 l50 -45 6 32
c3 17 5 32 4 33 -2 0 -22 13 -45 28 -24 15 -44 27 -45 27 -2 -1 -14 -7 -28
-15z"/>
<path d="M5421 2664 c0 -11 3 -14 6 -6 3 7 2 16 -1 19 -3 4 -6 -2 -5 -13z"/>
<path d="M5490 2672 c0 -6 5 -14 10 -17 18 -11 10 -26 -10 -20 -11 4 -20 2
-20 -4 0 -6 4 -11 10 -11 5 0 16 -12 25 -27 l15 -28 -6 27 c-10 45 36 57 80
19 18 -15 18 -15 8 5 -12 22 -32 34 -60 34 -8 0 -24 7 -34 17 -10 9 -18 11
-18 5z"/>
<path d="M5395 2504 c-22 -35 -43 -64 -47 -64 -4 0 -8 -6 -8 -12 -1 -13 -92
-89 -107 -89 -4 0 -17 -8 -28 -19 -19 -17 -249 -115 -330 -139 -22 -7 -49 -16
-60 -21 -11 -5 -72 -31 -135 -57 -198 -84 -305 -158 -437 -301 -59 -64 -145
-221 -192 -351 -34 -92 -91 -204 -124 -239 -16 -17 -17 -21 -5 -17 9 4 28 24
42 46 30 44 55 50 86 17 l20 -22 0 26 c0 32 21 41 49 21 29 -20 34 -14 37 49
1 29 3 54 3 55 1 1 12 -2 26 -7 19 -7 25 -6 25 4 0 7 -15 17 -32 22 -23 7 -34
17 -36 32 -3 19 1 22 27 22 18 0 40 -9 51 -20 28 -28 36 -25 15 6 -24 36 -6
54 42 44 39 -9 53 -23 53 -56 0 -17 -5 -20 -30 -16 -25 4 -32 -1 -47 -27 -10
-17 -21 -31 -25 -31 -5 0 -8 -8 -7 -17 0 -10 3 -13 5 -6 3 7 12 9 21 6 11 -4
14 -2 9 5 -4 8 -2 10 8 6 20 -8 29 -35 16 -48 -8 -8 -15 -6 -26 8 -12 18 -14
18 -15 3 -2 -25 -4 -31 -12 -44 -5 -8 -4 -13 2 -13 6 0 11 5 11 10 0 15 42 11
64 -5 31 -24 42 -17 16 10 -20 21 -21 25 -6 31 9 3 23 3 32 0 10 -4 14 -1 11
6 -2 7 -14 12 -26 11 -13 -2 -24 4 -28 15 -4 9 -13 22 -21 28 -8 6 -12 16 -8
22 12 20 55 13 78 -13 12 -14 25 -25 30 -25 13 0 9 17 -8 35 -20 19 -12 42 18
55 21 9 21 9 -7 7 -24 -1 -34 4 -48 27 -17 27 -17 29 0 49 17 19 17 20 1 14
-13 -5 -22 2 -34 24 -17 33 -12 43 22 53 26 8 56 -23 58 -61 0 -15 10 -35 21
-45 26 -21 30 -16 11 15 -15 21 -15 26 -2 36 8 7 20 9 27 5 7 -4 10 -2 7 7 -3
8 -15 14 -27 14 -30 1 -68 45 -49 56 25 16 77 10 90 -11 7 -11 17 -20 21 -20
5 0 -1 16 -14 36 -18 30 -19 38 -8 45 8 5 19 7 24 5 6 -2 18 -7 28 -11 26 -11
21 10 -6 22 -15 7 -29 8 -40 1 -14 -8 -20 -4 -28 21 -7 20 -18 31 -29 31 -11
0 -22 5 -25 10 -4 6 -10 8 -15 5 -4 -3 -13 8 -18 25 -7 19 -7 32 -1 36 14 8
59 -23 59 -41 0 -7 5 -17 12 -21 8 -5 9 2 5 25 -4 18 -2 41 3 52 11 20 45 26
55 9 9 -15 25 -12 25 5 0 19 40 35 71 29 23 -5 23 -5 5 10 -11 9 -32 16 -47
16 -17 0 -32 9 -43 25 -9 14 -12 25 -7 25 5 0 11 7 13 15 5 22 52 -5 56 -33 4
-27 22 -29 22 -2 0 25 35 27 68 5 20 -14 21 -14 16 0 -4 8 -15 20 -25 26 -21
11 -26 63 -7 75 16 10 38 -24 39 -60 l1 -31 11 28 c14 34 49 36 71 5 12 -16
16 -18 16 -7 0 20 -37 55 -75 69 l-30 12 39 14 c47 17 66 6 67 -40 l1 -31 11
28 c12 29 27 33 58 17 23 -13 25 -7 3 15 -19 18 -12 60 11 69 11 4 19 -3 25
-20 12 -31 34 -21 26 12 -9 33 17 32 52 -3 15 -15 31 -26 36 -25 38 12 80 -35
69 -77 -3 -12 -1 -21 6 -21 6 0 11 12 11 26 0 29 -36 94 -51 94 -11 0 -2 39
11 54 5 5 20 -3 34 -17 16 -16 26 -21 26 -13 0 8 6 16 14 19 8 3 16 18 18 33
4 39 24 41 58 4 21 -22 30 -27 30 -16 0 9 4 16 9 16 5 0 12 14 16 30 4 19 13
30 24 30 14 0 18 9 19 42 1 23 5 44 8 47 9 9 54 -47 54 -67 0 -14 2 -14 9 -3
6 9 5 24 0 39 -9 24 -9 25 33 19 l43 -6 -27 22 c-31 26 -48 77 -25 77 8 0 26
-9 41 -21 26 -20 26 -20 26 -1 0 11 6 23 13 25 8 4 9 8 1 14 -6 4 -14 23 -17
41 -6 31 -6 32 30 32 35 0 36 1 18 13 -47 33 -59 28 -100 -39z m35 -30 c0 -8
-7 -14 -15 -14 -15 0 -21 21 -9 33 10 9 24 -2 24 -19z m-81 -95 c-7 -4 -17 -5
-22 -2 -5 3 -3 9 4 14 7 4 17 5 22 2 5 -3 3 -9 -4 -14z m-79 -63 c0 -16 -18
-31 -27 -22 -8 8 5 36 17 36 5 0 10 -6 10 -14z m-45 -45 c3 -10 3 -25 -1 -34
-5 -14 -9 -14 -35 5 -33 25 -36 35 -11 41 33 9 41 7 47 -12z m-125 -45 c0 -8
-3 -21 -6 -30 -5 -14 -9 -14 -37 0 l-31 16 30 13 c39 18 44 18 44 1z m-100
-56 c0 -33 -6 -36 -34 -15 -20 15 -20 15 0 30 28 21 34 18 34 -15z m-203 -55
c0 -17 -13 -20 -21 -6 -4 5 0 12 6 14 7 3 13 6 14 6 0 1 1 -6 1 -14z m-207
-105 c0 -11 -4 -20 -9 -20 -13 0 -32 26 -24 33 13 14 33 6 33 -13z m-126 -76
c26 -25 20 -43 -14 -41 -36 2 -47 24 -23 43 22 17 19 17 37 -2z m-140 -147 c7
-29 -1 -37 -34 -37 -37 0 -46 15 -26 45 18 28 51 24 60 -8z m101 -60 c14 -41
10 -51 -23 -58 -30 -6 -34 -4 -47 29 -9 19 -14 36 -13 37 33 25 73 21 83 -8z
m-195 3 c0 -11 -7 -20 -15 -20 -13 0 -13 3 -3 20 7 11 14 20 15 20 2 0 3 -9 3
-20z m102 -27 c21 -19 24 -63 4 -63 -8 0 -20 -2 -28 -5 -19 -6 -52 66 -35 77
19 12 39 9 59 -9z m-66 -48 c21 -33 12 -55 -23 -55 -20 0 -33 8 -45 27 -15 26
-15 28 5 39 33 18 45 16 63 -11z m-84 -60 c2 -16 -2 -19 -22 -17 -33 5 -33 5
-19 36 10 22 15 24 25 14 7 -7 14 -22 16 -33z m99 -25 c10 -6 19 -21 19 -34 0
-20 -6 -25 -35 -28 -19 -2 -35 -2 -36 2 0 3 -2 13 -4 24 -8 42 16 57 56 36z
m-81 -39 c19 -36 13 -47 -25 -43 -19 2 -35 7 -35 11 0 3 -3 16 -6 29 -6 19 -3
22 24 22 21 0 35 -7 42 -19z m-80 -36 c0 -18 -4 -23 -15 -19 -8 4 -15 15 -15
25 0 10 7 19 15 19 9 0 15 -9 15 -25z m0 -66 c15 -27 13 -29 -22 -22 -42 8
-42 7 -29 32 13 23 36 19 51 -10z m9 -81 c19 -33 15 -37 -25 -31 -31 5 -61 43
-46 57 15 15 57 0 71 -26z m-79 -41 l0 -31 -16 22 c-9 13 -13 30 -10 38 9 24
26 6 26 -29z"/>
<path d="M324 2505 c-32 -32 -28 -59 8 -63 21 -3 30 3 42 27 9 16 16 37 16 46
0 24 -38 18 -66 -10z"/>
<path d="M5622 2505 c6 -14 15 -25 20 -25 11 0 10 7 -2 31 -16 28 -32 23 -18
-6z"/>
<path d="M3134 2467 c-21 -24 -86 -72 -97 -72 -7 0 -19 -8 -28 -17 -23 -25
-39 -22 -34 5 4 19 0 17 -25 -13 -16 -19 -30 -38 -30 -42 0 -4 -17 -10 -37
-14 -36 -7 -37 -7 -13 -17 14 -6 41 -11 60 -12 32 -2 35 -4 32 -30 -3 -27 -2
-28 20 -13 13 8 34 21 48 29 87 48 118 71 113 85 -3 7 4 31 15 52 14 27 17 43
10 55 -11 20 -19 21 -34 4z m-34 -61 c0 -2 -8 -10 -17 -17 -16 -13 -17 -12 -4
4 13 16 21 21 21 13z m-95 -116 c-3 -5 -12 -10 -18 -10 -7 0 -6 4 3 10 19 12
23 12 15 0z"/>
<path d="M3587 2444 c-10 -13 -22 -22 -26 -19 -5 2 -17 -5 -27 -18 -10 -12
-12 -16 -4 -9 8 6 18 12 23 12 4 0 5 -6 1 -12 -4 -7 7 3 24 22 17 19 31 38 32
43 0 11 -4 8 -23 -19z"/>
<path d="M5520 2454 c0 -8 5 -12 10 -9 6 3 10 10 10 16 0 5 -4 9 -10 9 -5 0
-10 -7 -10 -16z"/>
<path d="M5600 2430 c13 -24 35 -27 26 -4 -3 9 -6 18 -6 20 0 2 -7 4 -15 4
-13 0 -14 -4 -5 -20z"/>
<path d="M3605 2410 c-3 -5 -2 -10 4 -10 5 0 13 5 16 10 3 6 2 10 -4 10 -5 0
-13 -4 -16 -10z"/>
<path d="M5519 2375 c-4 -27 -7 -30 -34 -28 -25 2 -27 1 -10 -6 25 -11 42 -30
46 -53 3 -12 8 -15 18 -8 13 7 13 11 1 25 -12 15 -12 19 5 31 10 8 27 14 37
14 20 0 24 15 7 25 -5 4 -19 -1 -29 -10 -17 -15 -18 -15 -28 12 l-9 28 -4 -30z"/>
<path d="M3410 2365 c7 -9 15 -13 17 -11 7 7 -7 26 -19 26 -6 0 -6 -6 2 -15z"/>
<path d="M521 2325 c-24 -41 -25 -78 -1 -83 15 -2 50 48 50 72 0 7 -6 20 -13
30 -13 17 -15 16 -36 -19z"/>
<path d="M5441 2283 c-1 -37 0 -37 -35 -23 -36 13 -31 1 12 -35 23 -19 34 -24
30 -13 -8 19 11 29 41 21 12 -3 21 -1 21 6 0 10 -6 13 -40 15 -8 1 -18 15 -21
31 l-7 30 -1 -32z"/>
<path d="M587 2268 c-8 -25 13 -48 44 -48 38 0 34 18 -8 43 -24 14 -32 15 -36
5z"/>
<path d="M2900 2266 c0 -4 5 -17 11 -28 8 -14 8 -23 0 -31 -15 -15 -14 -27 4
-27 8 0 15 -9 15 -19 0 -23 16 -36 25 -21 4 6 -1 22 -10 36 -9 14 -14 33 -10
43 3 11 -3 25 -15 36 -11 10 -20 15 -20 11z"/>
<path d="M5330 2226 c0 -13 -6 -31 -13 -38 -15 -14 -19 -78 -5 -78 4 0 8 14 8
30 0 28 3 30 35 30 38 0 47 14 15 23 -12 3 -20 14 -20 25 0 12 -4 24 -10 27
-6 3 -10 -5 -10 -19z"/>
<path d="M4795 2200 c3 -5 8 -10 11 -10 2 0 4 5 4 10 0 6 -5 10 -11 10 -5 0
-7 -4 -4 -10z"/>
<path d="M639 2183 c-34 -21 -51 -50 -44 -74 7 -22 28 -25 47 -6 7 7 25 21 40
31 24 15 26 20 16 42 -13 28 -23 29 -59 7z"/>
<path d="M2785 2160 c-4 -12 -1 -27 5 -35 7 -8 10 -24 7 -36 -7 -24 12 -21 27
5 8 14 8 20 -1 23 -7 3 -13 18 -13 34 0 33 -16 39 -25 9z"/>
<path d="M2246 2162 c-11 -19 15 -83 38 -92 12 -4 30 -19 39 -33 11 -18 22
-24 37 -20 11 3 20 8 20 12 0 3 3 16 6 29 4 13 2 22 -5 22 -6 0 -11 -7 -11
-15 0 -23 -16 -18 -28 10 -6 14 -17 26 -24 27 -7 0 -17 2 -23 3 -5 2 -14 3
-20 4 -6 1 -5 4 1 9 7 4 8 15 3 30 -9 22 -24 29 -33 14z"/>
<path d="M5200 2151 c0 -8 -7 -11 -18 -9 -16 5 -17 2 -8 -28 6 -18 14 -30 19
-27 5 3 6 11 3 19 -3 8 1 14 9 14 17 0 19 9 5 30 -8 12 -10 12 -10 1z"/>
<path d="M5248 2110 c12 -11 24 -20 27 -20 3 0 1 9 -5 20 -6 11 -18 20 -27 20
-14 0 -13 -3 5 -20z"/>
<path d="M2378 2093 c7 -3 16 -2 19 1 4 3 -2 6 -13 5 -11 0 -14 -3 -6 -6z"/>
<path d="M3792 2074 c9 -9 21 -15 27 -13 6 2 -2 10 -17 17 -25 11 -25 11 -10
-4z"/>
<path d="M5100 2087 c0 -12 62 -46 75 -40 13 4 8 10 -22 24 -37 18 -53 22 -53
16z"/>
<path d="M2831 2050 c-9 -5 -4 -7 13 -7 29 0 32 2 13 10 -8 3 -20 2 -26 -3z"/>
<path d="M4924 2043 c3 -8 6 -21 6 -29 0 -8 5 -14 10 -14 6 0 10 7 10 15 0 21
12 19 44 -6 33 -26 43 -20 19 10 -22 27 -98 48 -89 24z"/>
<path d="M2410 2031 c0 -5 5 -13 10 -16 6 -3 10 -2 10 4 0 5 -4 13 -10 16 -5
3 -10 2 -10 -4z"/>
<path d="M3820 2001 c0 -6 4 -13 10 -16 6 -3 7 1 4 9 -7 18 -14 21 -14 7z"/>
<path d="M4823 1990 c4 -14 7 -31 7 -37 0 -7 5 -13 10 -13 16 0 11 46 -7 61
-15 13 -16 11 -10 -11z"/>
<path d="M2404 1981 c0 -10 9 -18 23 -19 24 -2 28 5 15 23 -12 16 -38 13 -38
-4z"/>
<path d="M4870 1995 c0 -10 59 -34 64 -26 3 4 -6 13 -20 20 -26 12 -44 14 -44
6z"/>
<path d="M4760 1951 c0 -8 -7 -10 -19 -6 -19 6 -19 5 -3 -27 l16 -33 7 35 c4
19 6 37 3 39 -2 2 -4 -1 -4 -8z"/>
<path d="M3605 1919 c-4 -6 -5 -13 -2 -16 7 -7 27 6 27 18 0 12 -17 12 -25 -2z"/>
<path d="M4660 1898 c0 -15 5 -30 11 -33 16 -11 17 -2 3 30 l-13 30 -1 -27z"/>
<path d="M3565 1890 c-3 -5 -1 -10 4 -10 6 0 11 5 11 10 0 6 -2 10 -4 10 -3 0
-8 -4 -11 -10z"/>
<path d="M4612 1831 c0 -17 4 -31 9 -31 11 0 12 30 0 48 -5 9 -8 3 -9 -17z"/>
<path d="M3465 1830 c-3 -5 -1 -10 4 -10 6 0 11 5 11 10 0 6 -2 10 -4 10 -3 0
-8 -4 -11 -10z"/>
<path d="M4190 1825 c7 -8 17 -15 22 -15 6 0 5 7 -2 15 -7 8 -17 15 -22 15 -6
0 -5 -7 2 -15z"/>
<path d="M4520 1806 c0 -13 -5 -16 -17 -12 -10 4 -2 -7 17 -23 41 -36 56 -39
38 -10 -7 12 -19 31 -25 43 -11 19 -13 19 -13 2z"/>
<path d="M2735 1760 c-7 -12 2 -12 30 0 19 8 19 9 -2 9 -12 1 -25 -3 -28 -9z"/>
<path d="M3290 1705 c-7 -9 -11 -17 -9 -20 3 -2 10 5 17 15 14 24 10 26 -8 5z"/>
<path d="M3680 1584 c0 -7 -8 -11 -17 -10 -12 1 -18 -6 -18 -19 0 -14 6 -19
20 -17 30 5 38 18 26 39 -6 10 -11 13 -11 7z"/>
<path d="M4428 1343 c7 -3 16 -2 19 1 4 3 -2 6 -13 5 -11 0 -14 -3 -6 -6z"/>
<path d="M4410 1286 c0 -2 7 -7 16 -10 8 -3 12 -2 9 4 -6 10 -25 14 -25 6z"/>
<path d="M2090 1260 c0 -5 5 -10 11 -10 5 0 7 5 4 10 -3 6 -8 10 -11 10 -2 0
-4 -4 -4 -10z"/>
<path d="M2986 1237 c3 -10 9 -15 12 -12 3 3 0 11 -7 18 -10 9 -11 8 -5 -6z"/>
<path d="M4251 1209 c-41 -10 -77 -22 -80 -25 -6 -6 11 -3 68 12 17 5 22 4 17
-4 -4 -7 -2 -12 3 -12 6 0 11 4 11 9 0 4 17 15 38 24 50 20 32 19 -57 -4z"/>
<path d="M4390 1206 c0 -2 7 -7 16 -10 8 -3 12 -2 9 4 -6 10 -25 14 -25 6z"/>
<path d="M2522 1180 c-15 -24 -16 -40 -2 -40 6 0 10 10 10 21 0 17 5 20 21 16
16 -4 18 -3 8 9 -15 19 -22 18 -37 -6z"/>
<path d="M2653 1141 c-7 -22 -8 -40 -2 -45 6 -6 9 -3 9 9 0 10 6 26 14 34 11
12 11 18 2 27 -9 8 -15 2 -23 -25z"/>
<path d="M4022 1164 c-12 -8 -22 -22 -22 -30 0 -10 8 -6 25 12 35 38 34 44 -3
18z"/>
<path d="M4103 1162 c11 -10 20 -11 32 -4 15 8 13 10 -14 14 -28 4 -30 3 -18
-10z"/>
<path d="M2100 1160 c0 -5 5 -10 11 -10 5 0 7 5 4 10 -3 6 -8 10 -11 10 -2 0
-4 -4 -4 -10z"/>
<path d="M4200 1160 c0 -5 5 -10 10 -10 6 0 10 5 10 10 0 6 -4 10 -10 10 -5 0
-10 -4 -10 -10z"/>
<path d="M4490 1128 c0 -7 5 -20 10 -28 8 -12 10 -11 10 7 0 12 -4 25 -10 28
-5 3 -10 0 -10 -7z"/>
<path d="M2540 1121 c0 -5 5 -13 10 -16 6 -3 10 -2 10 4 0 5 -4 13 -10 16 -5
3 -10 2 -10 -4z"/>
<path d="M2610 1118 c0 -9 5 -20 10 -23 13 -8 13 5 0 25 -8 13 -10 13 -10 -2z"/>
<path d="M3876 1118 c3 -4 12 -8 20 -8 8 0 14 4 14 8 0 4 -9 8 -19 8 -11 0
-17 -4 -15 -8z"/>
<path d="M4600 1118 c0 -9 5 -20 10 -23 13 -8 13 5 0 25 -8 13 -10 13 -10 -2z"/>
<path d="M2280 1111 c0 -6 5 -13 10 -16 6 -3 10 1 10 9 0 9 -4 16 -10 16 -5 0
-10 -4 -10 -9z"/>
<path d="M4155 1100 c-3 -5 -1 -10 4 -10 6 0 11 5 11 10 0 6 -2 10 -4 10 -3 0
-8 -4 -11 -10z"/>
<path d="M4381 1094 c0 -11 3 -14 6 -6 3 7 2 16 -1 19 -3 4 -6 -2 -5 -13z"/>
<path d="M4420 1108 c0 -17 24 -58 36 -58 7 0 22 -12 33 -27 11 -16 21 -22 21
-15 0 17 -30 62 -42 62 -5 0 -18 10 -29 23 -10 12 -18 19 -19 15z"/>
<path d="M4540 1091 c0 -6 16 -28 35 -50 19 -21 35 -46 35 -54 0 -13 5 -14 30
-6 17 6 30 15 30 21 0 6 -7 7 -16 4 -17 -7 -94 51 -94 71 0 6 -4 15 -10 18 -5
3 -10 1 -10 -4z"/>
<path d="M2339 1063 c-13 -16 -12 -17 4 -4 9 7 17 15 17 17 0 8 -8 3 -21 -13z"/>
<path d="M3749 1063 c-13 -16 -12 -17 4 -4 16 13 21 21 13 21 -2 0 -10 -8 -17
-17z"/>
<path d="M3852 1045 c0 -16 2 -22 5 -12 2 9 2 23 0 30 -3 6 -5 -1 -5 -18z"/>
<path d="M4110 1059 c0 -5 5 -7 10 -4 6 3 10 8 10 11 0 2 -4 4 -10 4 -5 0 -10
-5 -10 -11z"/>
<path d="M4320 1064 c1 -16 29 -60 29 -44 0 8 -6 24 -14 34 -8 11 -15 16 -15
10z"/>
<path d="M4776 1055 c-4 -13 -2 -14 14 -5 23 13 26 20 6 20 -8 0 -16 -7 -20
-15z"/>
<path d="M2696 1047 c3 -10 9 -15 12 -12 3 3 0 11 -7 18 -10 9 -11 8 -5 -6z"/>
<path d="M3975 1040 c3 -5 8 -10 11 -10 2 0 4 5 4 10 0 6 -5 10 -11 10 -5 0
-7 -4 -4 -10z"/>
<path d="M4035 1040 c-3 -6 1 -7 12 -4 10 3 8 -1 -6 -9 -19 -11 -20 -15 -8
-20 18 -7 42 17 32 33 -8 13 -22 13 -30 0z"/>
<path d="M4228 1013 c3 -18 7 -21 13 -12 6 11 14 8 33 -11 15 -13 26 -19 26
-13 0 12 -39 48 -61 56 -12 4 -15 0 -11 -20z"/>
<path d="M4380 1022 c0 -5 14 -18 30 -30 34 -25 41 -13 10 18 -21 21 -40 26
-40 12z"/>
<path d="M2650 1002 c0 -4 12 -9 28 -10 21 -1 23 0 12 8 -18 12 -40 13 -40 2z"/>
<path d="M4546 971 c10 -16 26 -32 35 -34 15 -4 13 2 -9 29 -33 42 -49 45 -26
5z"/>
<path d="M3798 983 c7 -3 16 -2 19 1 4 3 -2 6 -13 5 -11 0 -14 -3 -6 -6z"/>
<path d="M3938 965 c2 -14 6 -25 8 -25 2 0 4 11 4 25 0 14 -4 25 -9 25 -4 0
-6 -11 -3 -25z"/>
<path d="M4169 961 c20 -15 23 -24 18 -50 -6 -29 -5 -31 8 -17 9 8 15 19 14
23 -3 20 2 24 16 13 9 -8 15 -8 15 -2 0 15 -55 52 -77 52 -16 0 -15 -3 6 -19z"/>
<path d="M4495 970 c-3 -5 -1 -10 4 -10 6 0 11 5 11 10 0 6 -2 10 -4 10 -3 0
-8 -4 -11 -10z"/>
<path d="M3789 968 c-6 -11 -3 -58 3 -58 4 0 8 14 8 30 0 25 -6 38 -11 28z"/>
<path d="M4000 950 c6 -11 15 -20 21 -20 6 0 24 -14 40 -31 19 -20 29 -26 29
-16 0 11 7 13 23 9 20 -5 21 -4 8 12 -8 9 -20 15 -27 12 -7 -3 -24 4 -37 14
-13 11 -27 17 -30 13 -4 -3 -9 2 -13 11 -3 9 -10 16 -15 16 -6 0 -5 -9 1 -20z"/>
<path d="M4375 936 c7 -35 -10 -60 -25 -36 -4 7 -16 9 -29 5 -14 -4 -21 -2
-21 7 0 10 -3 9 -10 -2 -6 -10 -4 -20 6 -31 7 -8 14 -21 14 -28 0 -7 5 -9 10
-6 6 4 8 15 5 26 -8 23 8 25 25 4 12 -14 25 -13 25 3 1 4 6 17 13 30 9 16 10
27 2 42 -16 30 -22 24 -15 -14z"/>
<path d="M3730 921 c0 -11 5 -23 10 -26 6 -4 8 -11 5 -16 -4 -5 -1 -9 4 -9 12
0 14 14 5 48 -8 27 -24 29 -24 3z"/>
<path d="M2994 891 c27 -29 28 -29 47 -10 25 25 24 26 -10 21 -16 -2 -32 1
-35 7 -4 6 -12 11 -18 11 -7 0 1 -13 16 -29z"/>
<path d="M3924 909 c-3 -5 6 -21 20 -34 29 -27 31 -36 14 -53 -8 -8 -17 -6
-36 8 -33 27 -39 25 -44 -10 -5 -33 6 -40 20 -14 8 14 11 14 25 -7 15 -21 15
-24 0 -41 -16 -18 -18 -17 -45 12 -15 17 -28 35 -28 41 0 5 -5 9 -11 9 -6 0
-8 -9 -4 -20 4 -11 0 -33 -8 -50 -13 -26 -13 -31 0 -42 14 -11 15 -10 9 8 -9
29 18 52 39 34 8 -7 15 -18 15 -24 0 -6 11 -11 24 -11 19 0 26 7 30 28 3 15
12 27 21 27 8 0 14 8 13 18 -1 9 0 29 0 45 2 25 5 27 30 21 l27 -7 -19 22
c-11 12 -26 19 -33 17 -7 -3 -22 3 -33 14 -12 12 -22 15 -26 9z"/>
<path d="M4146 875 c-9 -24 3 -42 29 -42 20 0 23 3 15 17 -5 9 -15 22 -23 29
-12 9 -16 8 -21 -4z"/>
<path d="M4251 867 c-6 -8 -8 -23 -4 -33 6 -15 8 -14 15 11 9 34 5 41 -11 22z"/>
<path d="M3800 849 c0 -5 5 -7 10 -4 6 3 10 8 10 11 0 2 -4 4 -10 4 -5 0 -10
-5 -10 -11z"/>
<path d="M4113 848 c2 -7 -12 -28 -32 -46 l-36 -32 32 12 c28 10 35 10 52 -7
24 -21 28 -8 7 21 -8 10 -12 29 -9 42 3 13 1 22 -7 22 -6 0 -10 -6 -7 -12z"/>
<path d="M3726 835 c4 -11 7 -32 7 -47 0 -28 12 -38 19 -17 6 18 38 -19 38
-44 1 -20 2 -20 11 -5 7 13 5 24 -6 42 -9 14 -13 31 -9 37 5 9 2 10 -9 6 -10
-4 -23 3 -37 21 -15 19 -19 21 -14 7z"/>
<path d="M4202 800 c0 -14 2 -19 5 -12 2 6 2 18 0 25 -3 6 -5 1 -5 -13z"/>
<path d="M4005 770 c-3 -5 -1 -10 4 -10 6 0 11 5 11 10 0 6 -2 10 -4 10 -3 0
-8 -4 -11 -10z"/>
<path d="M4031 754 c0 -11 3 -14 6 -6 3 7 2 16 -1 19 -3 4 -6 -2 -5 -13z"/>
<path d="M3130 745 c-11 -13 -11 -18 0 -28 10 -9 11 -9 6 1 -4 7 -2 19 4 27 7
8 10 15 7 15 -2 0 -10 -7 -17 -15z"/>
<path d="M3985 741 c-3 -5 -1 -12 4 -15 5 -3 11 1 15 9 6 16 -9 21 -19 6z"/>
<path d="M2990 730 c-9 -6 -10 -10 -3 -10 6 0 15 5 18 10 8 12 4 12 -15 0z"/>
<path d="M4050 726 c0 -2 8 -10 18 -17 15 -13 16 -12 3 4 -13 16 -21 21 -21
13z"/>
<path d="M3220 700 c0 -11 4 -20 9 -20 5 0 7 9 4 20 -3 11 -7 20 -9 20 -2 0
-4 -9 -4 -20z"/>
<path d="M3255 700 c3 -5 16 -10 28 -9 21 0 21 1 2 9 -28 12 -37 12 -30 0z"/>
<path d="M3745 691 c-8 -14 65 -61 93 -61 13 0 20 4 17 10 -3 6 -16 10 -28 10
-26 0 -80 33 -70 43 3 4 4 7 0 7 -3 0 -8 -4 -12 -9z"/>
<path d="M3706 671 c-4 -7 -5 -15 -2 -18 9 -9 19 4 14 18 -4 11 -6 11 -12 0z"/>
<path d="M3863 665 c0 -8 4 -15 9 -15 4 0 8 7 8 15 0 8 -4 15 -8 15 -5 0 -9
-7 -9 -15z"/>
<path d="M3050 666 c0 -2 7 -6 15 -10 8 -3 15 -1 15 4 0 6 -7 10 -15 10 -8 0
-15 -2 -15 -4z"/>
<path d="M3188 643 c-10 -2 -18 -11 -18 -19 0 -12 3 -12 20 -2 11 7 20 16 20
20 0 5 -1 7 -2 7 -2 -1 -11 -3 -20 -6z"/>
<path d="M3285 620 c-3 -5 -2 -10 4 -10 5 0 13 5 16 10 3 6 2 10 -4 10 -5 0
-13 -4 -16 -10z"/>
<path d="M4990 580 c0 -5 7 -10 16 -10 8 0 12 5 9 10 -3 6 -10 10 -16 10 -5 0
-9 -4 -9 -10z"/>
<path d="M5272 506 c1 -10 8 -17 13 -17 15 1 12 24 -3 29 -9 3 -13 -2 -10 -12z"/>
</g>
</svg>
