<?xml version="1.0" standalone="no"?>
<!DOCTYPE svg PUBLIC "-//W3C//DTD SVG 20010904//EN"
 "http://www.w3.org/TR/2001/REC-SVG-20010904/DTD/svg10.dtd">
<svg version="1.0" xmlns="http://www.w3.org/2000/svg"
 width="275.000000pt" height="183.000000pt" viewBox="0 0 275.000000 183.000000"
 preserveAspectRatio="xMidYMid meet">

<g transform="translate(0.000000,183.000000) scale(0.100000,-0.100000)"
fill="#000000" stroke="none">
<path d="M2 1768 c3 -61 4 -63 30 -63 20 1 24 -2 17 -12 -6 -6 -20 -14 -32
-16 -15 -3 -12 -5 11 -6 17 0 35 -1 40 -2 21 -1 51 -45 57 -85 4 -26 10 -42
16 -38 6 3 8 12 5 19 -2 7 -1 16 4 21 24 26 -25 152 -55 140 -7 -2 -12 2 -12
10 0 21 15 17 43 -11 26 -26 35 -31 33 -17 -4 21 4 34 36 67 20 19 34 39 31
44 -3 5 -44 9 -92 10 -56 1 -83 -2 -79 -9 3 -5 -1 -10 -9 -10 -8 0 -18 5 -21
10 -16 26 -26 5 -23 -52z m61 -25 c-7 -2 -19 -2 -25 0 -7 3 -2 5 12 5 14 0 19
-2 13 -5z"/>
<path d="M268 1823 c6 -2 10 -9 7 -14 -9 -14 13 -47 35 -54 15 -5 29 3 56 32
20 21 32 29 26 17 -6 -11 -8 -39 -5 -62 6 -44 25 -58 58 -46 13 5 16 3 13 -7
-5 -14 -66 -31 -81 -22 -5 3 -12 15 -17 27 -7 16 -9 17 -9 4 -1 -9 6 -23 14
-32 9 -9 11 -17 5 -21 -17 -11 -11 -37 10 -42 21 -5 28 -33 9 -33 -34 0 -81
45 -75 73 3 11 0 14 -7 10 -7 -4 -19 -8 -27 -10 -19 -3 -42 -34 -36 -50 6 -16
-10 -17 -19 -2 -4 6 -4 26 0 45 5 27 13 38 36 46 31 11 37 34 19 69 -16 30
-42 25 -34 -7 6 -24 5 -25 -15 -12 -20 12 -24 10 -42 -10 -15 -20 -17 -28 -7
-45 l11 -22 -22 20 -23 20 13 -30 c7 -17 16 -34 19 -38 8 -10 -24 -107 -50
-149 -10 -17 -17 -34 -15 -38 2 -3 -6 -12 -18 -20 -20 -12 -21 -12 -8 3 12 15
11 17 -8 17 -15 0 -21 -6 -21 -22 0 -13 -4 -30 -10 -38 -5 -9 -5 -19 2 -27 7
-9 7 -13 -1 -13 -6 0 -11 -5 -11 -12 0 -6 3 -8 7 -5 3 4 13 -2 21 -14 12 -18
12 -22 -4 -40 -16 -18 -16 -20 1 -39 15 -16 15 -20 3 -20 -23 0 -48 33 -48 63
0 15 -4 27 -10 27 -6 0 -10 -27 -10 -62 0 -41 3 -58 9 -49 5 8 16 11 27 7 16
-6 16 -7 -1 -19 -21 -16 -17 -46 9 -61 14 -8 20 -8 23 2 7 19 23 14 23 -8 0
-26 -47 -46 -72 -31 -14 9 -16 8 -12 -4 4 -8 17 -15 29 -15 13 0 27 -4 30 -10
10 -16 54 -12 51 5 -1 8 -5 18 -9 21 -14 14 -6 26 13 21 11 -3 18 -1 14 4 -13
22 15 6 30 -16 17 -26 51 -33 59 -12 4 9 8 9 16 -3 15 -22 -23 -44 -65 -37
-25 4 -37 2 -41 -9 -3 -7 -16 -14 -29 -14 -17 0 -24 -6 -24 -19 0 -23 28 -35
45 -21 9 8 14 7 17 -2 6 -15 -20 -37 -43 -38 -9 0 -27 9 -40 20 -24 20 -24 20
-5 35 16 12 17 15 4 15 -9 0 -26 12 -37 28 l-20 27 -1 -56 c0 -53 3 -59 36
-88 19 -17 40 -28 46 -25 6 4 9 1 6 -7 -5 -15 -41 -17 -71 -4 -16 7 -18 3 -15
-26 2 -26 8 -35 25 -37 13 -2 23 -8 23 -13 0 -9 -15 -13 -39 -9 -13 1 -13 -1
-1 -15 21 -25 62 -39 71 -23 13 20 22 2 10 -20 -13 -25 -41 -36 -55 -22 -20
20 -36 10 -36 -21 0 -26 3 -29 21 -24 18 6 20 5 10 -14 -7 -12 -16 -21 -20
-21 -10 0 -15 -544 -5 -595 l6 -35 224 0 c159 0 224 3 224 11 0 8 4 8 14 0 11
-9 15 -9 20 1 5 10 7 10 12 1 3 -7 15 -13 25 -13 13 0 18 4 13 13 -6 10 -4 10
7 0 16 -16 570 -19 598 -4 10 6 33 6 54 1 35 -7 52 2 25 13 -7 3 -3 6 10 7 12
2 28 3 35 4 6 1 17 -3 23 -9 9 -7 8 -12 -5 -17 -9 -3 1 -6 23 -6 36 1 37 2 20
16 -18 13 -17 14 11 7 16 -3 32 -10 35 -14 3 -5 71 -9 153 -10 141 -1 147 0
147 19 0 22 33 27 60 10 13 -8 12 -10 -5 -11 -11 -1 -26 -2 -32 -2 -7 1 -10
-3 -7 -8 8 -13 38 -11 70 6 25 13 26 20 2 16 -20 -3 7 27 36 40 27 12 33 13
29 2 -3 -7 -12 -13 -20 -13 -8 0 -12 -4 -8 -10 3 -5 -3 -18 -13 -28 -19 -19
-17 -20 164 -21 171 -2 185 0 203 18 19 19 39 12 26 -9 -3 -5 1 -10 9 -10 9 0
16 6 16 13 0 8 3 8 8 2 8 -12 22 -13 40 -2 7 5 12 4 12 -2 0 -8 78 -11 240
-11 l239 0 -4 533 c-2 292 -4 554 -4 580 -1 52 -14 87 -34 87 -7 0 -19 15 -27
33 -9 19 -25 34 -40 37 -18 4 -27 16 -35 42 -15 55 -56 113 -94 134 -27 15
-38 30 -51 71 -16 48 -60 100 -82 97 -5 -1 -15 -2 -23 -2 -21 -3 -19 -39 2
-51 17 -10 16 -10 -2 -10 -26 0 -55 22 -55 42 0 33 82 59 106 34 16 -16 44 -5
59 23 18 34 25 39 18 12 -7 -27 26 -132 43 -139 8 -3 14 -16 14 -29 0 -25 38
-77 50 -69 4 3 10 -5 13 -18 16 -66 37 -103 68 -121 l34 -19 -22 22 c-32 31
-29 56 12 81 36 22 46 57 25 90 -8 13 -13 13 -37 -2 -23 -14 -27 -24 -25 -49
2 -28 0 -30 -13 -19 -36 30 -5 104 50 118 39 11 56 70 33 111 -9 14 -18 38
-22 53 -7 32 -53 58 -84 47 -15 -6 -29 -2 -48 13 -22 17 -30 19 -45 10 -11 -7
-19 -8 -19 -4 0 21 46 30 80 16 27 -12 35 -12 42 -2 6 10 8 10 8 -1 0 -8 3
-11 7 -8 3 4 12 2 19 -3 30 -26 54 -20 69 17 24 58 20 73 -20 73 -39 0 -42 -5
-18 -32 15 -16 15 -18 0 -18 -9 0 -27 12 -40 26 -18 19 -32 25 -53 22 l-29 -4
25 -11 25 -12 -27 0 c-15 -1 -33 6 -42 14 -16 17 -106 21 -106 5 0 -5 7 -10
15 -10 8 0 15 -5 15 -12 0 -6 7 -3 15 8 13 17 13 16 3 -13 -15 -39 0 -79 34
-93 21 -8 21 -9 3 -9 -38 -1 -63 11 -74 35 -11 26 -39 32 -59 12 -19 -19 -14
-49 9 -55 15 -4 17 -8 8 -14 -7 -4 -21 -3 -31 2 -23 12 -24 64 -2 73 12 5 15
14 10 36 -7 37 7 39 22 4 10 -20 17 -24 35 -18 29 9 35 16 18 22 -7 2 -21 12
-30 21 -10 10 -37 17 -74 19 -50 3 -57 1 -57 -15 0 -24 19 -43 43 -43 10 0 15
-4 12 -10 -10 -17 -44 -11 -67 12 -20 20 -22 20 -35 3 -17 -24 -17 -31 5 -47
9 -7 18 -20 20 -28 4 -22 31 -40 50 -33 10 4 13 2 8 -5 -18 -29 -86 1 -86 37
0 7 -10 11 -22 9 -29 -4 -36 -37 -12 -55 17 -12 17 -13 0 -13 -20 0 -45 27
-46 48 0 8 7 29 16 48 13 27 14 37 4 49 -7 8 -9 15 -5 15 4 0 2 7 -5 15 -14
16 -80 21 -80 6 0 -6 10 -17 22 -25 19 -14 20 -16 5 -16 -27 0 -57 19 -57 35
0 15 -86 20 -95 5 -7 -12 23 -33 39 -27 9 4 16 -3 20 -19 4 -14 12 -24 19 -21
7 2 18 -9 24 -25 10 -24 17 -28 35 -22 21 6 21 5 9 -10 -9 -11 -23 -15 -36
-12 -12 3 -25 3 -29 -1 -8 -9 24 -43 41 -43 26 0 12 -18 -18 -22 -37 -6 -50
13 -43 67 6 46 -2 72 -25 84 -14 8 -17 4 -19 -26 -2 -21 3 -40 10 -45 8 -5 -1
-7 -24 -6 -20 1 -35 5 -32 10 3 4 10 5 17 2 16 -6 14 62 -3 99 -12 25 -18 27
-73 27 -52 0 -58 -2 -47 -15 7 -8 19 -15 26 -15 8 0 14 -4 14 -10 0 -18 -31
-10 -55 14 -24 24 -25 24 -260 25 -221 1 -236 0 -233 -16 2 -10 10 -17 16 -16
7 2 12 -2 12 -7 0 -19 -39 -10 -57 14 -15 19 -29 24 -70 24 -57 2 -78 -18 -43
-40 25 -16 26 -28 2 -28 -23 0 -52 30 -52 53 0 22 -75 24 -83 2 -8 -19 10 -30
28 -15 11 9 13 7 11 -7 -2 -10 -11 -20 -20 -21 -19 -4 -56 24 -56 43 0 8 -24
13 -75 14 -65 2 -74 0 -69 -14 4 -9 12 -14 20 -11 10 4 10 -1 2 -25 -12 -34 0
-55 35 -62 21 -3 21 -4 3 -12 -27 -12 -68 14 -77 48 -14 51 -37 67 -68 48 -12
-8 -12 -12 -2 -25 12 -14 10 -16 -7 -16 -15 0 -24 10 -33 35 -12 33 -16 35
-56 35 -42 0 -58 -15 -28 -26 8 -4 15 -10 15 -15 0 -17 -27 -9 -50 16 -19 21
-32 25 -74 24 -28 -1 -42 -4 -31 -6 29 -7 45 -23 45 -43 0 -10 10 -24 23 -33
l22 -15 -27 5 c-21 4 -28 0 -33 -18 -5 -15 -2 -26 9 -34 15 -11 12 -25 -5 -25
-29 0 -54 73 -27 82 20 7 0 52 -33 71 -24 13 -53 17 -142 16 -62 0 -106 -3
-99 -6z m1502 -25 c-3 -37 -1 -46 16 -62 21 -22 -4 -21 -28 1 -21 18 -24 53
-6 71 17 17 20 15 18 -10z m-220 2 c0 -5 -7 -10 -16 -10 -8 0 -12 5 -9 10 3 6
10 10 16 10 5 0 9 -4 9 -10z m55 -11 c-4 -5 -12 -9 -18 -8 -9 0 -8 2 1 6 6 2
9 10 6 15 -4 7 -2 8 5 4 6 -4 9 -12 6 -17z m91 -6 c-1 -32 -22 -42 -22 -11 0
18 10 36 22 38 1 0 1 -12 0 -27z m-433 1 c7 1 9 1 5 -1 -12 -7 3 -33 26 -45
17 -9 19 -8 9 3 -20 21 -15 34 6 15 17 -15 19 -15 25 -1 3 9 10 14 15 10 6 -3
8 -12 4 -20 -3 -10 2 -15 16 -15 12 0 21 -4 21 -10 0 -6 -9 -6 -24 0 -17 6
-26 5 -28 -2 -5 -14 -65 -15 -77 -2 -5 5 -11 27 -14 49 -3 22 -3 35 0 28 2 -7
10 -11 16 -9z m390 -5 c-8 -8 -13 -7 -18 2 -5 8 -4 10 3 5 7 -4 12 -2 12 5 0
7 3 9 7 6 4 -4 2 -12 -4 -18z m-618 -31 c0 -18 5 -22 23 -21 12 2 22 -2 22 -7
0 -6 -10 -15 -22 -20 -16 -6 -18 -9 -7 -9 9 -1 19 -10 22 -21 5 -21 27 -28 27
-9 0 6 -6 7 -12 2 -7 -4 -5 4 4 19 9 14 14 35 12 46 -3 11 -1 23 4 26 6 3 8
-2 5 -13 -3 -10 1 -22 8 -27 9 -5 10 -2 6 10 -6 14 -2 17 16 15 12 -2 27 0 33
4 7 4 17 0 24 -8 7 -8 16 -12 21 -9 5 3 9 2 8 -3 -4 -24 3 -43 16 -43 8 0 15
-6 15 -12 1 -23 49 -50 76 -44 28 7 32 -9 5 -23 -22 -12 -75 10 -85 34 -7 18
-37 20 -54 3 -7 -7 -12 -23 -12 -36 0 -14 -4 -21 -11 -16 -6 3 -9 24 -7 45 3
35 1 38 -17 33 -16 -4 -17 -3 -5 5 8 6 23 8 34 5 12 -4 17 -2 14 6 -4 12 -9
13 -45 3 -14 -3 -23 -13 -23 -24 0 -12 -10 -21 -32 -27 -17 -4 -33 -13 -34
-20 -1 -7 0 -8 3 -2 2 5 12 10 21 10 10 0 3 -9 -18 -24 -33 -23 -57 -25 -44
-5 3 5 10 7 15 4 5 -4 9 1 9 10 0 8 -7 18 -15 21 -8 4 -15 13 -15 22 0 13 4
12 23 -4 22 -19 22 -19 5 2 -10 11 -18 30 -18 42 0 12 -4 22 -10 22 -17 0 -33
40 -21 54 6 7 7 16 3 21 -4 4 2 3 13 -3 11 -6 20 -21 20 -34z m363 16 c0 -18
-3 -22 -9 -13 -7 12 -9 12 -9 0 0 -8 -3 -11 -6 -8 -4 4 -2 13 4 20 7 8 9 17 5
20 -3 4 -2 7 4 7 6 0 11 -12 11 -26z m-695 4 c-31 -40 -18 -104 18 -93 13 4
19 2 19 -9 0 -17 -26 -19 -70 -7 -17 5 -26 16 -31 39 -4 21 -3 32 5 32 6 0 22
12 35 25 24 26 41 35 24 13z m824 0 c-2 -7 -10 -13 -18 -13 -8 0 -20 -4 -27
-9 -7 -4 -16 -5 -19 -2 -4 3 -1 6 5 6 19 0 14 18 -5 23 -10 3 2 5 25 6 31 1
42 -3 39 -11z m93 -8 c0 -5 -8 -10 -17 -10 -15 0 -16 2 -3 10 19 12 20 12 20
0z m177 -12 c-3 -8 -6 -5 -6 6 -1 11 2 17 5 13 3 -3 4 -12 1 -19z m89 -4 c-3
-7 3 -18 12 -23 11 -7 12 -11 4 -11 -7 0 -10 -4 -7 -10 3 -5 4 -10 1 -10 -5 0
-36 66 -36 76 0 2 7 1 16 -3 8 -3 13 -12 10 -19z m-41 -3 c0 -8 -7 -16 -15
-19 -8 -3 -12 -1 -8 3 4 5 2 15 -4 23 -10 12 -9 14 7 11 11 -3 20 -11 20 -18z
m-340 0 c3 -5 1 -12 -5 -16 -5 -3 -10 1 -10 9 0 18 6 21 15 7z m95 -7 c0 -2
-7 -4 -15 -4 -8 0 -15 4 -15 10 0 5 7 7 15 4 8 -4 15 -8 15 -10z m-33 -9 c8
-9 23 -13 33 -10 13 4 18 1 16 -9 -1 -9 -5 -19 -9 -22 -13 -13 -7 -22 11 -17
24 6 64 -30 56 -51 -7 -19 -9 -19 -36 -5 -20 11 -20 12 -4 24 9 7 13 16 8 19
-5 3 -15 -1 -22 -9 -6 -7 -19 -11 -28 -9 -11 4 -10 1 3 -7 11 -6 21 -13 23
-14 6 -4 -11 -35 -19 -35 -4 0 -6 7 -2 15 3 9 -2 22 -13 30 -11 8 -14 15 -9
15 6 0 3 5 -5 11 -13 10 -13 10 0 6 11 -3 16 2 18 16 1 15 -1 18 -7 8 -7 -11
-12 -11 -30 0 -11 8 -21 18 -21 23 0 4 7 3 15 -4 23 -19 31 -3 10 20 -21 23
-11 27 12 5z m368 5 c3 -5 2 -10 -4 -10 -5 0 -13 5 -16 10 -3 6 -2 10 4 10 5
0 13 -4 16 -10z m-481 -10 c14 -5 26 -15 26 -22 0 -9 -3 -8 -10 2 -5 8 -10 11
-10 6 0 -5 -6 -3 -13 3 -8 6 -17 8 -20 4 -4 -3 -7 -1 -7 5 0 14 2 15 34 2z
m303 -16 c-3 -3 -12 -4 -19 -1 -8 3 -5 6 6 6 11 1 17 -2 13 -5z m183 -4 c0 -5
-5 -10 -11 -10 -5 0 -7 5 -4 10 3 6 8 10 11 10 2 0 4 -4 4 -10z m-930 -25 c-7
-8 -17 -15 -23 -15 -6 0 -2 7 9 15 25 19 30 19 14 0z m490 5 c0 -5 -5 -10 -11
-10 -5 0 -7 5 -4 10 3 6 8 10 11 10 2 0 4 -4 4 -10z m30 -11 c0 -6 -4 -7 -10
-4 -5 3 -10 11 -10 16 0 6 5 7 10 4 6 -3 10 -11 10 -16z m467 -11 c-3 -8 -6
-5 -6 6 -1 11 2 17 5 13 3 -3 4 -12 1 -19z m683 2 c37 -75 43 -90 37 -96 -3
-4 -10 2 -14 12 -10 29 -46 64 -65 64 -10 0 -18 -9 -20 -22 l-3 -23 -14 24
c-12 22 -11 26 10 43 27 21 59 20 69 -2z m-760 -10 c-24 -12 -28 -18 -18 -28
8 -8 9 -12 1 -12 -6 0 -13 6 -16 13 -3 9 -10 7 -23 -6 -17 -15 -17 -19 -4 -27
8 -5 11 -10 5 -10 -23 0 -32 15 -24 38 5 13 12 21 17 19 4 -3 18 1 32 9 l25
15 -27 -4 c-16 -2 -28 0 -28 4 0 5 20 8 45 7 l45 -2 -30 -16z m-1439 -11 c16
-16 29 -20 50 -15 31 6 37 -2 17 -22 -29 -29 -98 -6 -98 33 0 30 4 31 31 4z
m1226 7 c-3 -7 0 -19 6 -25 8 -8 7 -11 -4 -11 -9 0 -15 9 -15 25 0 14 4 25 9
25 5 0 7 -6 4 -14z m-1032 -26 c8 0 15 -4 15 -9 0 -15 -30 -22 -50 -11 -28 15
-40 12 -40 -8 0 -27 33 -54 55 -46 13 5 16 3 13 -7 -9 -28 -47 -22 -84 15 -31
31 -33 37 -22 55 19 31 49 41 75 25 12 -8 29 -14 38 -14z m315 20 c0 -5 -2
-10 -4 -10 -3 0 -8 5 -11 10 -3 6 -1 10 4 10 6 0 11 -4 11 -10z m556 -2 c4 -6
3 -8 -4 -4 -6 3 -13 2 -17 -4 -3 -5 -1 -10 5 -10 6 0 8 -5 4 -11 -4 -8 -9 -7
-16 2 -7 10 -8 9 -4 -5 6 -18 -9 -46 -25 -46 -9 0 10 59 25 77 14 16 23 16 32
1z m-518 -35 c-13 -16 -28 -17 -28 -2 0 5 5 7 10 4 6 -3 10 -1 10 4 0 14 -17
14 -25 0 -4 -6 2 -19 14 -30 11 -11 18 -26 14 -35 -3 -8 -7 -13 -10 -10 -2 2
-15 -7 -28 -20 -25 -25 -45 -31 -45 -13 0 5 -4 7 -10 4 -5 -3 -10 -1 -10 4 0
14 13 14 28 -1 9 -9 12 -9 12 0 0 7 -4 12 -10 12 -5 0 -10 5 -10 11 0 5 5 7
10 4 6 -3 10 -1 10 4 0 15 -27 14 -33 -1 -3 -10 -9 -9 -23 4 -18 16 -21 16
-43 -1 -15 -11 -20 -21 -13 -25 6 -4 16 3 22 14 15 28 40 9 40 -31 0 -16 5
-29 11 -29 5 0 7 6 3 13 -5 9 -4 9 6 0 15 -14 3 -36 -16 -29 -8 3 -13 2 -13
-2 3 -18 -2 -26 -10 -14 -7 11 -11 11 -24 -2 -20 -20 -24 -20 -30 3 -2 10 -15
25 -28 32 -21 10 -22 10 -12 -2 9 -11 7 -14 -13 -15 -18 -2 -24 3 -24 18 0 18
5 20 34 15 26 -4 36 -1 40 10 5 13 4 14 -9 3 -12 -10 -15 -10 -15 0 0 7 -7 10
-17 6 -15 -6 -15 -5 1 13 10 11 21 20 25 19 20 -2 31 4 31 17 0 9 10 15 26 15
19 0 25 4 20 15 -5 15 8 20 47 17 9 -1 17 3 17 8 0 6 9 10 20 10 11 0 20 5 20
10 0 6 8 5 19 -2 15 -9 17 -15 9 -25z m782 33 c0 -2 -7 -7 -16 -10 -8 -3 -12
-2 -9 4 6 10 25 14 25 6z m210 -11 c0 -8 -5 -15 -11 -15 -5 0 -7 5 -3 11 4 8
-4 9 -27 5 -25 -4 -29 -4 -14 3 31 15 55 13 55 -4z m-1568 -29 c1 5 4 -16 7
-46 5 -45 10 -57 31 -67 l25 -13 -25 0 c-41 1 -68 31 -71 81 -1 24 -7 50 -13
58 -7 10 -1 8 17 -3 15 -10 28 -14 29 -10z m1126 15 c11 -7 10 -9 -3 -14 -9
-4 -14 -3 -10 2 3 5 -1 12 -7 14 -7 3 -8 6 -3 6 6 0 16 -3 23 -8z m317 -30
c-2 -2 -11 3 -19 12 -8 8 -12 17 -9 21 3 3 12 -2 19 -12 7 -9 11 -19 9 -21z
m-99 9 c0 -20 -7 -25 -19 -13 -4 3 -2 12 4 20 15 17 15 17 15 -7z m202 -3 c2
-9 -2 -17 -8 -17 -7 0 -9 7 -6 16 3 8 2 12 -3 9 -5 -3 -13 0 -16 6 -5 7 0 10
11 7 10 -2 20 -11 22 -21z m132 2 c0 -5 -8 -9 -17 -8 -11 0 -13 3 -5 6 6 2 9
10 6 15 -4 7 -2 8 4 4 7 -4 12 -11 12 -17z m-480 7 c0 -2 -7 -9 -15 -16 -13
-11 -14 -10 -9 4 5 14 24 23 24 12z m50 -1 c0 -3 -12 -10 -27 -16 -20 -7 -24
-12 -14 -18 9 -6 10 -11 2 -15 -6 -4 -11 -2 -11 4 0 7 -6 8 -17 2 -16 -7 -27
-8 -49 -3 -3 0 -2 6 1 11 5 8 11 8 20 0 10 -8 20 -5 41 14 27 23 54 34 54 21z
m54 -10 c-4 -8 -11 -15 -16 -15 -6 0 -5 6 2 15 7 8 14 15 16 15 2 0 1 -7 -2
-15z m172 6 c-4 -5 0 -11 6 -14 7 -2 9 -8 5 -13 -4 -5 -12 -2 -17 6 -13 20
-12 30 1 30 5 0 8 -4 5 -9z m158 -48 c3 -7 1 -15 -4 -18 -6 -4 -10 0 -10 8 0
8 -7 20 -15 27 -12 10 -12 7 1 -19 14 -28 14 -33 -2 -53 -12 -17 -15 -18 -10
-5 3 10 3 30 0 43 -5 19 -11 23 -25 19 -13 -4 -19 -1 -19 9 0 9 4 16 10 16 5
0 7 7 3 16 -4 12 3 10 30 -7 20 -13 39 -29 41 -36z m-1799 18 c-3 -12 0 -21
10 -25 9 -3 13 -12 10 -18 -4 -7 1 -4 9 6 9 11 16 16 16 12 0 -5 6 -3 14 3 11
9 12 7 9 -12 -3 -13 4 -39 15 -58 14 -26 26 -34 48 -35 47 -2 50 -4 30 -19
-26 -20 -65 -19 -88 2 -17 15 -18 15 -18 -15 0 -34 41 -75 66 -65 8 3 14 0 14
-6 0 -18 -24 -23 -53 -12 -33 13 -60 64 -52 99 8 39 -15 68 -42 53 -17 -8 -22
-8 -27 4 -3 8 -14 15 -25 15 -26 0 -52 -27 -44 -45 4 -11 1 -13 -11 -9 -38 15
3 94 49 94 12 0 33 11 46 24 30 30 32 30 24 7z m1277 4 c12 -15 9 -27 -4 -19
-7 5 -8 3 -3 -6 5 -8 3 -11 -6 -8 -18 6 -25 49 -7 46 7 -2 16 -7 20 -13z m664
-22 c-4 -4 -11 -1 -16 7 -16 25 -11 35 7 17 9 -9 13 -20 9 -24z m-906 -8 c0
-5 -5 -3 -10 5 -5 8 -10 20 -10 25 0 6 5 3 10 -5 5 -8 10 -19 10 -25z m1318
21 c-23 -17 -23 -26 -1 -26 14 0 13 -3 -5 -16 -12 -8 -27 -12 -32 -9 -19 12
-30 -5 -20 -30 13 -33 -7 -33 -21 -1 -19 40 0 78 39 81 18 2 36 6 39 9 4 3 9
6 12 6 3 0 -2 -7 -11 -14z m-1263 -6 c3 -5 1 -10 -4 -10 -6 0 -11 5 -11 10 0
6 2 10 4 10 3 0 8 -4 11 -10z m139 -17 c-8 -34 -10 -37 -22 -29 -7 4 -6 15 1
31 16 33 29 32 21 -2z m476 12 c0 -8 -4 -15 -10 -15 -5 0 -10 7 -10 15 0 8 5
15 10 15 6 0 10 -7 10 -15z m-500 -5 c0 -5 -5 -10 -11 -10 -5 0 -7 5 -4 10 3
6 8 10 11 10 2 0 4 -4 4 -10z m168 -16 c6 3 14 1 18 -5 4 -7 3 -9 -4 -5 -6 3
-13 2 -16 -3 -3 -4 -17 -8 -31 -8 -25 0 -25 0 -9 18 12 14 20 16 25 8 4 -6 11
-9 17 -5z m372 6 c0 -5 -5 -10 -11 -10 -5 0 -7 5 -4 10 3 6 8 10 11 10 2 0 4
-4 4 -10z m-478 -11 c15 -8 19 -8 14 0 -4 6 0 11 8 11 10 0 13 -6 10 -15 -7
-17 -44 -21 -44 -4 0 5 -4 7 -10 4 -5 -3 -10 -1 -10 4 0 14 6 14 32 0z m723 2
c3 -5 1 -12 -4 -15 -5 -3 -11 1 -15 9 -6 16 9 21 19 6z m-772 -29 c20 10 39 2
21 -10 -5 -4 -11 -19 -12 -34 -1 -21 3 -28 16 -28 14 0 15 2 2 10 -13 8 -13
10 2 10 9 0 19 8 21 18 3 9 5 3 4 -15 -1 -17 -4 -31 -7 -31 -3 0 -14 0 -25 -1
-17 -1 -17 -3 -5 -11 13 -8 13 -11 1 -22 -8 -7 -11 -8 -8 -2 6 11 -19 29 -35
26 -13 -3 -9 16 5 22 6 4 2 4 -10 2 -13 -2 -23 -1 -23 4 0 9 31 24 43 21 5 -1
0 10 -12 25 -12 15 -21 32 -21 38 1 6 6 1 13 -11 10 -17 16 -20 30 -11z m420
-2 c-7 -28 -13 -25 -13 6 0 14 4 23 9 20 5 -3 7 -15 4 -26z m182 20 c-3 -5
-10 -10 -16 -10 -5 0 -9 5 -9 10 0 6 7 10 16 10 8 0 12 -4 9 -10z m29 -6 c3
-8 2 -12 -4 -9 -6 3 -10 10 -10 16 0 14 7 11 14 -7z m92 5 c4 -8 -1 -9 -16 -4
-15 5 -20 3 -16 -3 4 -6 -2 -10 -14 -9 -20 1 -20 2 -4 14 22 16 41 17 50 2z
m-246 -20 c0 -6 -4 -7 -10 -4 -5 3 -10 11 -10 16 0 6 5 7 10 4 6 -3 10 -11 10
-16z m-762 -14 c-3 -3 -9 2 -12 12 -6 14 -5 15 5 6 7 -7 10 -15 7 -18z m240 0
c-3 -3 -9 2 -12 12 -6 14 -5 15 5 6 7 -7 10 -15 7 -18z m-15 -14 c3 -11 -1
-28 -9 -38 -7 -10 -14 -13 -14 -6 0 7 -7 10 -16 6 -13 -5 -13 -7 -2 -14 10 -7
9 -9 -4 -9 -25 0 -22 12 7 40 14 13 23 30 20 38 -2 7 -1 11 4 8 5 -3 11 -15
14 -25z m640 15 c4 -10 1 -13 -9 -9 -15 6 -19 23 -5 23 5 0 11 -7 14 -14z
m-913 -16 c0 -5 -4 -10 -9 -10 -6 0 -13 5 -16 10 -3 6 1 10 9 10 9 0 16 -4 16
-10z m450 6 c0 -11 -19 -15 -25 -6 -3 5 1 10 9 10 9 0 16 -2 16 -4z m697 -28
c-3 -7 -5 -2 -5 12 0 14 2 19 5 13 2 -7 2 -19 0 -25z m-151 0 c0 -12 -6 -23
-13 -25 -6 -2 -10 3 -8 14 2 10 4 21 4 26 2 18 18 5 17 -15z m34 12 c0 -5 -4
-10 -10 -10 -5 0 -10 5 -10 10 0 6 5 10 10 10 6 0 10 -4 10 -10z m-1925 -9 c6
-1 -1 -7 -15 -14 -28 -15 -29 -43 -2 -64 15 -11 14 -12 -9 -13 -16 0 -33 9
-43 23 -9 12 -14 16 -10 8 4 -9 3 -12 -4 -8 -11 8 -4 45 11 62 9 9 39 12 72 6z
m500 -4 c6 0 20 3 33 7 14 5 22 3 22 -4 0 -6 -3 -9 -7 -7 -5 3 -14 -1 -20 -8
-10 -11 -7 -13 20 -12 17 2 38 6 45 10 17 11 15 -1 -4 -20 -12 -13 -18 -13
-24 -4 -5 9 -9 7 -12 -7 -4 -16 -2 -19 11 -15 14 4 14 3 1 -6 -8 -6 -23 -8
-34 -5 -10 4 -22 1 -26 -6 -4 -7 -13 -9 -19 -6 -12 8 -15 27 -3 25 22 -4 31 3
25 18 -6 15 -7 15 -14 -3 -6 -16 -9 -13 -15 16 -6 29 -9 31 -15 15 -5 -14 -8
-15 -8 -5 -1 12 -3 12 -10 2 -7 -11 -9 -10 -14 3 -4 9 -3 13 2 10 5 -3 13 0
16 6 4 5 14 7 24 3 9 -3 21 -7 26 -7z m269 -13 c5 -14 4 -15 -9 -4 -17 14 -19
20 -6 20 5 0 12 -7 15 -16z m-74 -9 c7 -9 8 -15 2 -15 -5 0 -12 7 -16 15 -3 8
-4 15 -2 15 2 0 9 -7 16 -15z m639 -12 c2 -2 -3 -3 -11 -3 -9 0 -19 7 -22 16
-6 15 -4 15 11 3 10 -7 20 -15 22 -16z m411 2 c12 -2 25 -7 29 -11 3 -4 -2 -4
-11 -1 -14 5 -18 1 -19 -16 -1 -20 -2 -20 -6 -2 -3 11 -11 24 -19 28 -8 4 -14
13 -14 20 0 9 2 9 8 -1 5 -7 19 -14 32 -17z m187 19 c-3 -3 -12 -4 -19 -1 -8
3 -5 6 6 6 11 1 17 -2 13 -5z m218 -3 c3 -5 2 -12 -3 -15 -5 -3 -9 1 -9 9 0
17 3 19 12 6z m-1287 -21 c22 -18 22 -21 8 -36 -17 -16 -18 -16 -20 16 0 12
-8 25 -16 30 -8 5 -10 10 -5 10 6 -1 21 -9 33 -20z m193 3 c8 -9 9 -14 2 -10
-6 4 -13 4 -16 0 -2 -5 -2 -2 0 5 1 8 -3 12 -9 9 -7 -2 -12 -10 -10 -16 1 -7
-2 -10 -8 -6 -8 5 -7 11 1 21 15 18 24 18 40 -3z m-1168 1 c3 -3 -3 -14 -14
-25 -15 -15 -17 -24 -9 -39 14 -25 13 -31 -4 -28 -8 2 -14 -1 -13 -7 1 -5 7
-9 13 -7 6 1 16 -9 22 -23 6 -14 16 -25 22 -25 5 0 10 -4 10 -10 0 -5 -11 -10
-24 -10 -28 0 -74 66 -57 83 11 11 3 39 -9 32 -7 -5 -5 18 6 53 3 12 46 17 57
6z m532 -4 c3 -6 18 -7 32 -4 19 5 24 3 21 -7 -3 -8 -12 -14 -21 -14 -8 0 -19
-4 -24 -9 -4 -5 -3 -7 2 -4 6 3 18 2 29 -1 17 -7 17 -8 2 -24 -13 -12 -14 -17
-4 -18 10 0 10 -2 -1 -6 -11 -5 -11 -7 0 -14 11 -7 10 -9 -5 -9 -23 0 -129
-80 -126 -95 1 -3 -1 -11 -3 -18 -4 -9 -9 -8 -17 3 -10 13 -11 12 -6 -3 6 -18
-12 -67 -25 -67 -4 0 -10 -13 -14 -30 -6 -29 -25 -42 -25 -17 0 8 -3 7 -10 -3
-7 -11 -5 -17 8 -22 14 -5 12 -7 -6 -7 -18 -1 -22 3 -18 17 10 32 15 74 9 68
-4 -4 -8 -12 -9 -19 -2 -7 -6 -24 -9 -40 -4 -22 -1 -29 17 -36 l22 -8 -27 -18
c-28 -18 -38 -65 -15 -65 6 0 3 -7 -8 -16 -16 -13 -16 -15 -1 -10 22 7 23 -10
0 -18 -9 -4 -21 -1 -26 6 -6 10 -7 9 -4 -4 4 -10 -1 -18 -15 -21 -11 -3 -17
-10 -14 -15 3 -6 3 -12 -1 -15 -5 -2 -2 -2 6 0 10 2 12 -4 8 -24 -4 -16 -4
-22 -1 -15 3 6 11 9 16 5 7 -4 9 2 6 15 -4 15 -2 22 9 22 8 0 17 -9 20 -20 3
-11 9 -17 15 -14 5 3 7 -7 4 -23 -2 -15 -5 -34 -5 -41 -1 -7 -5 -10 -11 -7 -5
3 -10 4 -10 1 0 -3 4 -8 10 -11 5 -3 16 9 24 27 l15 33 -6 -30 c-3 -16 -12
-35 -20 -42 -9 -7 -13 -19 -9 -29 4 -10 -1 -22 -11 -31 -16 -13 -16 -13 5 -3
18 9 27 8 39 -2 10 -8 43 -13 82 -14 l66 0 0 37 c0 24 -3 34 -10 28 -17 -17
-32 -9 -32 15 0 24 23 39 57 37 11 0 11 1 2 5 -9 4 -10 9 -2 19 6 8 12 27 12
44 1 17 5 28 10 25 4 -3 8 -1 8 5 0 5 7 17 16 26 14 13 14 19 4 28 -8 7 -11 8
-7 1 4 -6 -4 -21 -17 -33 -14 -13 -23 -34 -24 -53 -1 -38 -11 -48 -37 -38 -18
8 -18 9 5 9 20 1 22 3 10 11 -8 5 -10 10 -5 10 6 0 11 9 12 20 1 11 9 28 19
37 15 16 15 18 -3 33 -11 8 -18 22 -16 30 4 13 3 13 -6 0 -6 -8 -11 -10 -11
-4 0 6 3 14 8 18 4 4 7 11 7 14 2 35 46 65 60 43 3 -6 -5 -8 -17 -6 -22 4 -22
4 -4 -10 29 -22 37 -18 34 15 -2 20 -7 29 -15 26 -18 -7 -16 -2 6 18 18 16 19
16 20 -9 3 -52 5 -55 27 -55 16 0 22 5 18 14 -3 8 -1 17 5 21 7 3 8 0 5 -9 -4
-11 0 -13 16 -9 12 3 24 12 27 20 8 20 23 -3 22 -32 -1 -16 -2 -16 -9 5 -5 15
-8 19 -9 8 -1 -9 -11 -18 -23 -20 -13 -2 -24 -11 -26 -22 -3 -14 0 -17 12 -13
10 4 19 1 22 -8 4 -8 10 -12 16 -9 5 3 7 13 4 21 -3 8 -1 11 4 8 5 -3 12 6 16
20 3 14 10 25 14 25 19 0 1 35 -21 41 l-24 7 26 1 c30 1 43 22 26 42 -10 11
-9 11 6 0 14 -11 17 -11 17 0 0 8 5 6 13 -6 13 -17 14 -17 20 4 3 13 1 19 -5
15 -6 -4 -9 -1 -6 6 4 13 98 24 98 11 0 -3 -12 -12 -27 -18 -21 -10 -28 -10
-35 0 -9 15 -10 5 -2 -18 6 -14 9 -14 30 0 12 8 25 11 28 6 3 -5 -8 -14 -24
-21 -17 -7 -30 -16 -30 -20 0 -3 -7 -7 -15 -7 -8 0 -15 4 -15 9 0 5 -5 6 -10
3 -13 -8 -3 -26 13 -24 27 3 37 -2 37 -18 -1 -16 -2 -16 -13 -3 -7 9 -22 15
-35 14 -12 -1 -27 6 -32 15 -7 13 -9 12 -7 -6 0 -12 5 -19 9 -17 5 3 7 -6 4
-19 -5 -27 18 -46 28 -24 3 8 8 6 16 -5 6 -10 16 -18 21 -18 6 0 3 10 -5 22
-20 28 -20 50 -1 24 8 -11 15 -14 15 -7 0 7 4 10 9 7 5 -4 11 -1 13 5 2 6 13
9 23 7 18 -4 17 -6 -8 -18 -16 -8 -23 -16 -17 -20 17 -10 1 -39 -18 -34 -15 5
-14 4 1 -6 20 -13 41 -4 31 13 -4 7 -5 10 -1 7 3 -3 6 -9 7 -15 1 -5 6 -16 12
-22 14 -18 -6 -17 -41 2 -16 8 -32 11 -35 7 -4 -3 -4 1 -1 10 4 9 0 18 -11 22
-12 4 -15 2 -10 -9 3 -8 1 -15 -4 -15 -6 0 -10 7 -10 16 0 14 -2 15 -17 3 -14
-12 -15 -12 -9 -1 7 11 4 12 -13 3 -30 -16 -27 -35 5 -27 22 6 24 5 12 -8 -7
-7 -17 -11 -22 -8 -5 3 -31 4 -58 3 -26 -1 -48 2 -48 6 0 4 -11 9 -25 9 -20 2
-23 -1 -15 -11 6 -8 19 -11 27 -8 11 4 14 2 9 -6 -4 -6 -4 -10 1 -9 16 4 53
-14 48 -23 -4 -5 4 -5 19 1 14 5 26 7 26 4 0 -4 7 -1 15 6 8 6 20 8 26 4 8 -4
9 -3 5 4 -4 7 -5 12 -2 12 2 0 11 3 20 6 9 3 16 1 16 -6 0 -6 -5 -8 -12 -4 -7
5 -8 3 -3 -7 5 -7 10 -24 11 -37 2 -13 6 -27 10 -31 4 -3 4 5 1 20 -5 18 -1
29 13 39 19 14 19 15 3 22 -17 6 -17 7 0 7 10 1 29 -7 44 -16 22 -15 27 -15
37 -2 6 8 20 18 31 22 16 6 15 3 -5 -14 -24 -20 -25 -21 -3 -16 13 3 26 1 29
-4 3 -5 -2 -9 -10 -9 -9 0 -16 -4 -16 -10 0 -5 8 -6 18 -3 15 6 15 5 3 -10 -9
-12 -10 -17 -2 -17 7 0 10 -4 7 -9 -3 -5 1 -12 10 -15 12 -5 14 -14 9 -37 -5
-22 -3 -35 6 -41 11 -8 10 -9 -3 -4 -13 4 -18 0 -18 -14 0 -14 5 -18 16 -13
12 4 15 2 12 -8 -3 -8 -16 -13 -34 -12 -27 2 -27 1 -9 -10 11 -6 26 -12 34
-13 8 -2 18 -9 23 -16 5 -8 6 -4 3 13 -5 19 -2 26 10 26 10 0 14 -6 10 -16 -4
-12 -2 -12 9 2 13 16 14 16 22 -10 4 -15 8 -32 9 -38 1 -19 17 -35 27 -29 7 4
8 2 4 -5 -6 -9 -11 -9 -21 -1 -8 7 -20 8 -26 4 -7 -4 -9 -3 -5 4 3 6 1 14 -5
18 -8 4 -9 3 -5 -4 4 -7 2 -12 -3 -12 -6 0 -10 -5 -8 -11 1 -6 -26 -21 -60
-33 -35 -13 -63 -21 -63 -18 0 3 -6 -3 -14 -13 -21 -29 -13 -50 18 -48 15 1
25 -1 22 -5 -2 -4 0 -16 5 -27 l8 -20 1 20 c0 11 7 29 15 39 19 26 19 34 -1
32 -9 0 -19 6 -21 14 -4 13 -3 13 6 0 10 -13 12 -13 22 0 7 10 12 11 15 4 3
-7 13 -10 24 -7 15 4 18 1 13 -19 -3 -12 -12 -28 -20 -34 -12 -10 -11 -12 1
-17 10 -4 17 4 22 26 3 17 14 37 23 44 9 7 12 13 6 13 -18 1 20 20 40 20 16 0
17 -2 5 -10 -8 -5 -12 -12 -8 -15 3 -3 14 5 24 18 22 27 51 40 59 27 4 -6 1
-10 -6 -10 -7 0 -10 -3 -6 -6 3 -3 15 0 26 8 12 8 18 18 14 21 -3 4 3 7 14 7
17 0 20 -5 16 -21 -4 -12 -15 -24 -26 -27 -20 -5 -20 -6 -1 -12 25 -10 34 -4
34 25 0 26 17 35 65 35 18 0 35 5 37 12 3 8 7 6 11 -4 3 -10 -3 -28 -14 -42
l-20 -26 21 0 c11 0 20 6 19 13 -4 30 3 37 34 37 42 0 77 10 77 22 0 5 -5 6
-12 2 -7 -4 -8 -3 -4 5 9 14 26 5 26 -14 0 -8 6 -12 14 -9 7 3 16 -2 20 -11 3
-9 10 -14 15 -10 5 3 12 1 15 -4 10 -16 -11 -22 -24 -6 -6 7 -18 11 -26 8 -8
-3 -14 -1 -14 4 0 5 -10 10 -22 10 -16 2 -19 0 -9 -6 8 -5 11 -16 6 -30 -6
-20 -3 -21 49 -18 49 2 55 4 51 22 -2 11 -4 21 -6 23 -6 8 -4 29 5 41 7 9 5
17 -9 27 -16 12 -16 14 -3 14 9 0 19 6 21 13 4 8 6 6 6 -4 1 -9 8 -16 16 -16
20 0 19 7 -2 23 -15 10 -16 15 -5 25 20 21 14 31 -15 27 -17 -2 -36 -15 -50
-33 -19 -27 -20 -31 -5 -48 12 -14 13 -20 3 -30 -17 -17 -29 6 -25 45 3 25 1
28 -10 19 -10 -9 -13 -7 -12 11 1 13 7 22 14 21 19 -4 25 42 18 132 -4 54 -3
86 4 90 5 3 10 -2 10 -12 1 -17 1 -17 11 0 5 9 19 17 30 17 20 0 20 -1 -3 -29
-13 -15 -26 -26 -30 -24 -5 2 -8 -6 -7 -19 0 -13 3 -17 6 -10 6 16 23 15 23
-2 0 -8 -7 -16 -15 -20 -8 -3 -15 -11 -15 -17 0 -8 4 -9 13 0 8 6 17 8 20 4 4
-3 7 1 7 10 0 10 5 17 11 17 5 0 7 5 4 10 -3 6 2 10 12 11 10 0 26 2 36 4 11
2 17 -1 14 -8 -3 -8 8 -12 32 -12 28 0 36 -4 35 -17 -2 -21 37 -19 44 2 3 7 0
10 -6 6 -9 -5 -69 62 -61 68 2 1 27 10 54 19 l50 17 -55 -7 c-64 -7 -68 -7
-137 2 -56 8 -63 17 -36 47 16 18 16 18 -1 12 -9 -4 -19 -19 -22 -34 -6 -26
-34 -38 -34 -14 0 7 -5 16 -10 19 -7 4 -9 -3 -5 -22 5 -25 4 -26 -4 -5 -11 24
-26 28 -37 10 -4 -7 -3 -8 5 -4 7 4 15 -2 20 -16 11 -29 4 -40 -19 -33 -10 3
-21 2 -24 -4 -3 -5 9 -8 29 -7 30 1 35 -2 35 -21 0 -21 -38 -68 -48 -59 -7 8
16 41 25 36 4 -3 9 4 10 15 1 16 1 16 -3 2 -3 -9 -9 -15 -13 -12 -5 2 -16 -4
-26 -15 -32 -35 -82 -18 -54 18 11 13 9 13 -8 -2 -22 -18 -22 -18 -18 4 2 12
12 29 22 37 15 12 16 14 1 10 -10 -4 -18 1 -21 15 -3 11 -3 18 0 15 9 -9 53
45 46 56 -3 6 -1 7 6 3 6 -4 18 -2 26 4 8 7 24 10 36 7 15 -4 19 -2 15 9 -4 9
-2 12 5 8 16 -9 89 -12 89 -2 0 8 -21 12 -52 9 -10 -1 -18 4 -18 13 0 17 21
22 34 9 7 -8 11 -9 37 -12 7 -1 9 -11 5 -26 -4 -14 -3 -24 1 -23 16 4 53 -14
48 -23 -7 -10 52 -5 63 6 4 4 -3 4 -15 1 -14 -5 -23 -3 -23 3 0 6 8 11 18 11
11 0 24 10 30 23 11 21 11 21 7 -6 -3 -23 -1 -26 9 -18 7 6 16 8 19 4 4 -3 7
-1 7 5 0 7 5 12 11 12 6 0 9 -6 6 -14 -7 -18 15 -27 34 -14 11 8 10 9 -3 4
-10 -3 -18 -1 -18 4 0 6 6 10 13 10 8 0 7 4 -3 10 -21 13 -3 13 22 -1 11 -6
18 -7 15 -2 -3 5 26 9 66 8 41 0 72 -4 72 -10 0 -5 -16 -10 -35 -11 -63 -2
-67 -4 -40 -20 l25 -15 -30 5 c-23 4 -19 0 20 -19 l50 -25 -72 4 c-40 2 -71 0
-68 -4 7 -11 -24 -22 -38 -14 -8 5 -7 2 1 -7 20 -22 14 -34 -8 -14 -18 17 -20
17 -14 2 5 -14 2 -16 -12 -10 -11 4 -25 14 -32 22 -10 13 -10 11 -1 -12 7 -15
14 -25 17 -22 3 3 12 -1 20 -8 11 -8 16 -9 19 -1 2 7 21 9 50 6 35 -3 44 -1
38 8 -6 9 -4 11 5 5 7 -4 16 -2 22 6 8 11 9 10 4 -3 -6 -20 5 -23 21 -7 9 9
11 7 7 -8 -4 -15 -12 -20 -27 -17 -12 2 -16 1 -8 -2 11 -5 9 -11 -10 -26 -13
-11 -18 -17 -10 -13 7 4 18 1 23 -6 7 -11 11 -11 15 -1 2 6 10 9 15 6 7 -4 8
-2 4 4 -4 6 -14 8 -23 5 -11 -4 -14 -3 -9 5 9 16 31 15 48 -1 15 -14 32 -16
44 -4 4 4 12 7 18 7 5 0 1 -6 -9 -14 -11 -8 -23 -12 -27 -10 -5 3 -8 0 -8 -5
0 -6 -7 -11 -15 -11 -8 0 -15 -9 -15 -20 0 -12 -7 -20 -17 -21 -15 0 -15 -2 2
-9 13 -6 15 -9 5 -9 -13 -1 -13 -2 0 -11 26 -17 33 -11 26 21 -4 24 -3 30 8
26 7 -3 19 0 25 6 10 9 16 8 26 -7 8 -10 12 -24 8 -29 -4 -6 0 -8 10 -4 8 3
18 0 21 -8 3 -9 0 -12 -10 -8 -10 4 -12 0 -8 -11 4 -10 13 -15 20 -12 10 4 14
-4 14 -29 0 -43 -16 -53 -41 -26 -11 12 -25 18 -32 14 -7 -4 -6 1 2 11 12 14
12 19 1 29 -10 10 -12 9 -7 -5 4 -10 2 -18 -3 -18 -6 0 -10 9 -10 20 0 26 15
25 34 -2 l16 -22 0 21 c0 12 -7 29 -16 37 -12 12 -12 16 -2 17 10 0 10 2 0 6
-6 2 -10 9 -6 14 3 5 0 9 -5 9 -6 0 -11 -11 -11 -24 0 -26 -15 -42 -45 -48
-21 -4 -23 -20 -10 -68 5 -20 5 -22 -5 -10 -9 12 -10 11 -5 -9 5 -15 3 -21 -3
-17 -6 3 -13 2 -17 -4 -3 -5 3 -10 14 -10 12 0 21 3 21 8 0 4 21 8 46 8 35 1
44 -2 40 -12 -3 -8 -1 -14 4 -14 5 0 7 -7 4 -15 -5 -11 -2 -13 10 -9 9 3 15
14 14 23 -2 9 4 16 14 16 9 0 20 4 24 8 4 4 3 7 -3 7 -6 0 -14 7 -17 16 -5 14
-4 15 8 5 11 -9 15 -8 20 4 7 20 22 12 29 -15 7 -27 -1 -25 -14 3 -8 18 -9 16
-5 -15 3 -26 0 -38 -10 -42 -9 -3 -12 -1 -9 4 3 6 4 10 1 10 -2 0 -12 3 -22 7
-12 4 -15 3 -10 -6 4 -6 2 -18 -4 -26 -10 -12 -10 -15 1 -15 11 0 11 -2 -1
-10 -10 -6 -20 -4 -32 7 -14 13 -21 13 -32 4 -12 -10 -15 -9 -13 8 1 11 7 23
15 26 7 2 10 0 7 -5 -3 -6 -1 -10 5 -10 7 0 10 6 7 13 -5 14 -96 14 -106 0 -3
-5 -19 -6 -36 -2 -18 4 -22 7 -10 8 14 1 16 4 7 13 -8 8 -15 8 -24 1 -21 -17
-116 -8 -140 13 -12 11 -18 14 -15 7 4 -6 1 -14 -5 -16 -7 -3 -4 -6 7 -7 19
-1 19 -1 2 -14 -17 -13 -16 -14 7 -12 13 0 22 4 19 8 -7 13 7 9 21 -5 7 -7 11
-18 8 -25 -2 -7 1 -19 8 -27 8 -10 8 -14 -2 -18 -7 -2 -3 -2 10 0 15 2 22 -2
22 -13 0 -11 -5 -14 -16 -10 -22 9 -59 -13 -45 -27 7 -7 7 -15 -2 -25 -10 -13
-8 -14 13 -8 18 5 21 5 10 -3 -8 -5 -12 -13 -8 -16 3 -3 13 1 21 10 19 18 34
20 18 2 -6 -8 -8 -17 -4 -21 9 -9 -29 -2 -46 8 -10 6 -12 5 -7 -2 4 -7 3 -12
-3 -12 -5 0 -12 6 -14 13 -3 7 -6 5 -6 -5 -1 -10 6 -18 14 -18 8 0 15 -5 15
-11 0 -6 -8 -8 -17 -5 -15 5 -14 3 2 -10 18 -15 18 -16 2 -10 -10 3 -23 6 -28
6 -5 0 -9 7 -9 15 0 18 -34 20 -52 2 -7 -7 -26 -20 -41 -30 l-28 -18 17 25 c9
15 27 29 40 32 24 6 23 34 -2 34 -7 0 -12 6 -10 12 1 7 1 9 -2 5 -2 -5 -13 0
-25 10 -13 12 -17 13 -12 3 5 -8 -4 -5 -19 8 -16 12 -37 22 -48 22 -11 0 -17
3 -15 7 3 5 -28 9 -68 9 -68 2 -73 0 -63 -16 13 -20 3 -70 -13 -70 -7 0 -9 12
-5 33 3 17 1 39 -4 47 -5 8 -10 10 -10 4 0 -6 -12 -9 -29 -6 -16 2 -37 -1 -48
-7 -10 -6 -12 -11 -5 -11 6 0 12 -6 12 -13 0 -8 7 -14 15 -14 8 0 15 7 15 14
0 8 -5 11 -10 8 -6 -3 -10 -1 -10 5 0 6 10 10 23 8 24 -3 33 -33 17 -58 -8
-13 -11 -12 -24 5 -15 19 -17 19 -20 -7 -2 -23 -26 -20 -26 4 0 13 -4 28 -8
34 -8 11 -53 14 -46 3 2 -4 -3 -10 -12 -13 -11 -4 -13 -14 -9 -39 5 -26 3 -36
-9 -40 -11 -5 -16 -1 -16 13 0 11 -5 20 -12 20 -6 0 -3 7 8 15 18 13 18 14 -4
8 -19 -4 -22 -10 -17 -27 11 -38 10 -51 -5 -51 -8 0 -14 6 -13 12 2 7 -2 13
-8 13 -8 0 -7 6 2 17 13 16 12 17 -4 4 -10 -8 -16 -19 -14 -25 17 -45 18 -56
3 -56 -17 0 -31 34 -20 52 4 7 -1 6 -11 -3 -16 -16 -16 -18 0 -42 19 -30 12
-55 -11 -36 -8 6 -14 18 -14 25 0 8 -7 14 -15 14 -19 0 -19 -5 1 -35 9 -13 13
-29 9 -35 -11 -18 -22 -11 -29 21 -5 26 -8 29 -21 19 -13 -11 -13 -16 1 -42
13 -25 14 -32 2 -39 -9 -6 -14 -2 -16 16 -2 14 -8 25 -13 25 -6 0 -7 5 -3 11
8 13 10 14 -81 -30 -40 -20 -86 -35 -107 -35 -21 -1 -38 -4 -38 -7 0 -4 -18
-7 -40 -7 -27 -1 -43 5 -51 16 -9 15 -10 15 -5 -1 5 -16 2 -18 -27 -12 -17 4
-34 10 -37 14 -3 4 -15 6 -26 5 -31 -2 -61 26 -68 64 -5 28 -2 34 19 44 18 8
28 8 39 -1 12 -10 13 -9 9 9 -4 14 -11 19 -21 15 -8 -3 -20 -1 -27 5 -15 12
-30 -3 -20 -19 3 -5 1 -12 -5 -16 -5 -3 -7 -20 -4 -38 4 -28 3 -29 -5 -9 -6
12 -16 22 -23 22 -9 0 -9 -3 2 -10 8 -5 12 -12 8 -15 -8 -9 -68 23 -68 36 0 6
4 8 8 5 5 -3 8 12 8 33 -1 22 -6 38 -13 38 -8 0 -8 -8 -2 -24 6 -17 5 -28 -4
-38 -12 -11 -17 -10 -31 7 -15 17 -16 22 -5 30 10 6 7 7 -8 3 -13 -4 -23 -2
-23 4 0 5 -3 17 -7 27 -5 13 -3 16 10 11 10 -4 17 -1 18 6 0 7 2 19 4 27 1 10
-5 16 -16 16 -14 0 -15 -3 -7 -13 6 -8 8 -16 5 -19 -8 -8 -29 35 -23 45 3 5
-1 11 -9 15 -8 3 -15 11 -14 18 0 10 2 10 6 -1 5 -11 7 -11 14 0 7 11 12 9 25
-10 13 -17 19 -20 25 -10 4 7 5 17 2 22 -3 5 -9 3 -14 -4 -5 -9 -10 -5 -15 15
-5 21 -9 25 -16 14 -8 -10 -9 -10 -5 2 2 8 12 17 22 18 12 3 15 0 10 -10 -6
-10 -5 -11 5 -1 10 9 17 10 27 2 13 -12 19 2 6 15 -14 13 -10 44 5 39 10 -4
13 0 10 13 -2 12 -13 20 -28 21 l-25 2 25 -8 25 -7 -24 -6 c-18 -5 -22 -12
-18 -27 4 -16 0 -21 -13 -21 -22 0 -50 26 -50 46 0 16 16 19 25 4 11 -18 25
-10 25 14 0 14 7 32 16 40 9 9 11 16 4 16 -6 0 -9 4 -5 9 3 5 1 12 -4 15 -5 4
-12 2 -16 -4 -4 -6 -10 -8 -14 -6 -9 6 -7 -40 4 -69 5 -16 5 -17 -4 -5 -6 8
-15 15 -21 15 -6 0 -15 7 -20 15 -9 13 -10 13 -11 0 -1 -8 -4 -1 -8 15 -6 27
-10 30 -41 28 -19 -1 -29 1 -22 3 6 3 9 10 6 15 -3 6 0 16 6 24 8 9 8 15 2 15
-5 0 -8 10 -4 22 4 16 2 19 -9 13 -11 -6 -12 -5 -2 5 17 18 23 10 28 -40 4
-39 15 -70 15 -40 0 10 3 10 15 0 25 -21 30 -2 5 20 -13 11 -20 20 -15 20 4 0
2 6 -4 14 -10 12 -8 13 10 9 20 -6 21 -5 8 9 -7 9 -17 14 -21 11 -13 -7 -9 12
5 26 10 10 9 12 -2 9 -7 -2 -15 5 -16 14 -3 15 0 16 16 8 10 -6 19 -20 19 -30
0 -11 5 -20 11 -20 7 0 8 -11 4 -30 -7 -32 2 -38 24 -17 10 10 11 8 5 -8 -4
-11 -4 -17 1 -13 4 4 14 3 22 -4 8 -6 13 -7 12 -2 -4 15 13 44 22 38 5 -3 6 2
3 10 -4 11 0 16 11 16 15 0 15 1 1 16 -9 8 -22 14 -29 11 -6 -2 -18 3 -25 12
-8 10 -11 10 -6 2 5 -9 3 -12 -4 -7 -7 4 -12 14 -12 22 0 9 -11 14 -30 14 -20
0 -30 5 -30 15 0 18 -20 16 -38 -5 -11 -13 -11 -11 -2 8 6 13 7 22 1 22 -11 0
-8 41 5 61 4 8 10 21 11 31 1 9 12 41 24 72 20 54 30 62 70 58 3 -1 6 12 6 28
0 16 -4 27 -9 24 -4 -3 -5 1 -2 9 7 20 34 17 34 -4 0 -10 5 -21 12 -25 7 -5 8
-3 3 7 -8 12 -6 12 9 0 11 -9 14 -17 7 -24 -7 -7 -15 -6 -26 3 -12 10 -15 10
-15 -3 0 -9 -6 -20 -14 -24 -14 -8 -31 -77 -35 -143 -1 -13 -2 -13 -11 0 -11
17 -13 1 -4 -25 4 -9 10 -12 13 -7 3 6 12 3 21 -6 13 -14 12 -15 -3 -9 -11 4
-17 1 -17 -9 0 -24 -27 7 -36 40 -3 14 -11 29 -17 33 -6 4 -7 1 -2 -7 4 -7 2
-16 -6 -21 -11 -7 -11 -9 -1 -9 9 0 10 -5 3 -18 -6 -11 -6 -24 0 -33 8 -13 14
-5 10 15 -1 5 5 4 13 -4 9 -7 16 -19 16 -26 0 -17 12 -18 28 -2 9 9 12 8 12
-4 0 -9 7 -19 16 -22 12 -5 15 0 13 27 -2 18 1 39 5 46 7 10 5 12 -4 6 -10 -6
-12 -4 -7 8 3 9 1 19 -5 23 -7 4 -8 3 -4 -4 4 -7 3 -12 -3 -12 -5 0 -9 14 -9
30 1 17 5 30 10 30 4 0 7 -5 6 -11 -7 -28 19 -16 29 13 10 26 10 30 0 17 -12
-16 -37 -15 -37 2 0 6 5 7 10 4 6 -3 10 -1 10 4 0 6 7 11 15 11 15 0 20 16 17
53 -1 10 2 16 7 13 10 -7 24 22 16 34 -3 5 -1 11 3 14 5 3 8 21 5 41 -2 19 1
35 5 35 5 0 8 -11 7 -25 -4 -28 10 -34 19 -8 6 15 8 15 17 3 8 -12 9 -11 6 5
-2 11 -8 19 -13 18 -14 -2 -15 35 -2 43 7 5 9 1 5 -9 -8 -22 9 -31 19 -9 4 9
8 20 8 24 1 3 5 10 10 15 5 4 7 3 3 -3 -3 -6 0 -11 7 -11 8 0 12 10 10 24 -1
13 2 23 7 23 5 0 9 7 9 17 0 15 2 14 20 -2 10 -9 18 -22 17 -27 -1 -6 5 -13
13 -15 9 -3 11 -1 5 4 -16 13 -19 47 -3 40 7 -3 21 -8 31 -12 10 -4 17 -3 17
5 0 6 -4 8 -10 5 -5 -3 -10 -1 -10 4 0 14 13 14 28 -1 9 -9 12 -8 12 7 0 10
-3 16 -6 12 -4 -3 -19 0 -35 8 -18 10 -30 11 -34 5 -4 -6 -3 -10 2 -9 20 3 34
-2 28 -11 -4 -7 -13 -6 -27 1 -16 9 -19 8 -13 -2 5 -7 4 -10 -3 -5 -6 4 -8 14
-5 24 5 14 3 15 -8 5 -15 -15 -43 -18 -35 -4 4 5 0 11 -6 14 -7 3 7 3 31 2 33
-3 41 -1 32 8 -6 6 -11 16 -11 21 0 6 7 0 16 -12 17 -24 39 -29 50 -10 4 7 3
8 -4 4 -7 -4 -12 -2 -12 4 0 6 -4 9 -9 6 -5 -3 -11 1 -15 9 -4 10 1 15 14 15
11 0 20 -4 20 -9 0 -5 6 -11 13 -14 8 -3 14 1 14 9 0 8 -6 14 -13 14 -6 0 -15
7 -18 16 -3 8 -2 12 3 9 5 -3 12 -1 16 5 8 13 22 13 30 0z m543 -13 c19 7 14
-14 -5 -22 -25 -11 -63 -12 -63 -3 0 4 6 8 13 9 10 0 10 2 0 6 -7 2 -13 9 -13
14 0 6 5 7 10 4 6 -3 10 -1 10 6 0 8 5 7 18 -3 9 -9 23 -13 30 -11z m220 11
c-5 -13 -38 -20 -38 -8 0 8 17 18 33 19 5 1 7 -4 5 -11z m752 2 c0 -5 -5 -10
-11 -10 -5 0 -7 5 -4 10 3 6 8 10 11 10 2 0 4 -4 4 -10z m113 -5 c-3 -9 -8
-14 -10 -11 -3 3 -2 9 2 15 9 16 15 13 8 -4z m-1226 -1 c-3 -3 -12 -4 -19 -1
-8 3 -5 6 6 6 11 1 17 -2 13 -5z m-145 -44 c41 -43 44 -50 27 -50 -12 0 -79
69 -79 81 0 17 13 9 52 -31z m55 34 c14 -4 20 -12 18 -25 -4 -22 5 -25 23 -7
8 8 12 9 12 1 0 -6 -6 -14 -12 -16 -8 -3 -6 -6 5 -6 10 -1 22 9 28 22 l10 22
-5 -23 c-4 -19 -2 -21 9 -12 8 6 12 19 9 28 -2 9 1 7 8 -6 9 -19 9 -25 -3 -33
-10 -8 -8 -8 10 -4 16 5 21 4 17 -4 -4 -6 -26 -9 -51 -7 -35 4 -43 2 -38 -10
3 -9 -1 -14 -12 -14 -9 0 -13 -5 -10 -10 3 -6 -1 -13 -9 -16 -9 -3 -13 -10
-10 -15 3 -5 11 -6 17 -2 7 4 18 8 26 10 19 2 32 26 19 34 -5 4 2 7 16 7 15 0
29 -5 32 -9 3 -5 9 -7 13 -5 4 3 8 -1 8 -9 0 -17 -23 -20 -32 -5 -3 6 -10 10
-16 10 -13 0 -11 -28 3 -32 8 -3 8 -9 0 -24 -11 -18 -12 -18 -18 4 -3 12 -10
22 -15 22 -5 0 -6 -8 -3 -17 5 -17 5 -17 -6 0 -6 9 -15 15 -21 12 -16 -11 -10
-24 15 -31 13 -3 26 -14 29 -23 4 -17 2 -17 -25 -4 -19 10 -33 12 -41 5 -7 -5
-20 -8 -29 -7 -10 2 -18 -2 -18 -8 0 -8 16 -11 48 -9 44 4 46 3 31 -13 -17
-17 -123 -29 -113 -13 3 5 12 7 19 4 9 -3 12 5 10 30 -2 19 0 32 5 29 5 -3 11
-1 15 5 10 17 25 11 18 -7 -6 -16 -5 -16 10 -5 15 13 13 47 -3 37 -5 -3 -7 2
-6 11 1 8 9 20 17 25 8 5 10 9 4 9 -5 0 -2 7 8 14 16 12 16 14 2 20 -9 3 -14
10 -11 14 3 5 -6 20 -20 35 -26 28 -24 31 13 21z m363 2 c0 -22 -14 -32 -42
-28 -22 3 -29 1 -26 -9 2 -7 10 -15 18 -17 7 -3 10 0 6 7 -4 6 -2 11 3 11 6 0
11 -5 11 -12 0 -9 3 -9 12 0 17 17 33 15 18 -3 -10 -12 -10 -15 3 -15 22 0 27
23 8 37 -11 9 -12 12 -3 13 7 0 10 5 6 11 -4 8 0 8 15 0 11 -7 21 -14 21 -17
0 -3 -4 -2 -10 1 -14 9 -12 -8 3 -24 10 -11 10 -13 0 -7 -9 5 -13 0 -13 -16 0
-13 6 -30 13 -38 6 -7 -1 -4 -18 7 -16 11 -47 26 -67 32 -21 7 -38 17 -38 22
0 5 -7 9 -16 9 -10 0 -14 -5 -10 -16 3 -8 2 -12 -4 -9 -14 8 -13 42 2 51 7 4
8 3 4 -5 -6 -8 1 -10 26 -5 18 4 41 6 51 6 9 0 15 3 12 9 -4 5 -1 9 4 9 6 0
11 -2 11 -4z m127 -25 c3 -21 1 -22 -13 -10 -11 9 -13 14 -4 17 9 3 9 7 -1 14
-12 8 -12 9 0 6 8 -2 16 -15 18 -27z m73 19 c4 7 10 8 13 4 3 -5 -1 -15 -9
-22 -9 -8 -14 -9 -14 -2 0 6 -4 8 -10 5 -11 -7 -14 8 -3 19 4 4 9 2 12 -5 2
-8 5 -8 11 1z m861 -23 c-10 -9 -11 -8 -5 6 3 10 9 15 12 12 3 -3 0 -11 -7
-18z m-2197 -39 c11 -10 31 -18 44 -18 12 0 22 -4 22 -10 0 -32 -122 9 -128
42 -3 18 31 30 37 13 2 -5 13 -18 25 -27z m558 25 c-10 -16 -42 -28 -42 -14 0
5 24 20 48 30 2 0 -1 -7 -6 -16z m444 -8 c-1 -26 -12 -33 -18 -13 -4 10 9 35
18 38 1 0 1 -11 0 -25z m859 -29 c2 -27 -2 -49 -9 -56 -9 -7 -13 -5 -13 5 0 8
4 12 9 9 4 -3 8 -1 8 3 0 14 -40 34 -53 27 -7 -4 0 4 16 19 15 14 27 32 27 38
0 32 12 -5 15 -45z m109 38 c3 -8 2 -12 -4 -9 -6 3 -10 10 -10 16 0 14 7 11
14 -7z m-1294 -49 c42 -47 35 -47 -18 0 -25 21 -50 60 -35 54 5 -2 29 -26 53
-54z m968 30 c-3 -3 -9 2 -12 12 -6 14 -5 15 5 6 7 -7 10 -15 7 -18z m469 19
c-3 -3 -12 -4 -19 -1 -8 3 -5 6 6 6 11 1 17 -2 13 -5z m-1494 -86 c27 -21 18
-33 -10 -13 -26 18 -55 73 -46 87 3 6 12 -5 20 -23 8 -19 24 -42 36 -51z m324
76 c-3 -3 -12 -4 -19 -1 -8 3 -5 6 6 6 11 1 17 -2 13 -5z m263 -9 c0 -8 -4
-15 -10 -15 -5 0 -7 7 -4 15 4 8 8 15 10 15 2 0 4 -7 4 -15z m815 5 c3 -5 1
-10 -4 -10 -6 0 -11 5 -11 10 0 6 2 10 4 10 3 0 8 -4 11 -10z m75 -21 c0 -5
-4 -9 -10 -9 -5 0 -10 7 -10 16 0 8 5 12 10 9 6 -3 10 -10 10 -16z m-1147 -3
c3 -8 -3 -22 -14 -32 -19 -17 -19 -17 -17 7 2 13 8 27 13 31 13 10 12 10 18
-6z m310 2 c-2 -5 -10 -8 -18 -8 -8 0 -16 3 -18 8 -3 4 5 7 18 7 13 0 21 -3
18 -7z m-163 -2 c0 -2 -7 -7 -16 -10 -8 -3 -12 -2 -9 4 6 10 25 14 25 6z m690
-6 c0 -5 -5 -10 -11 -10 -5 0 -7 5 -4 10 3 6 8 10 11 10 2 0 4 -4 4 -10z m274
-22 c5 -21 3 -26 -7 -22 -12 4 -15 30 -8 53 2 8 8 -4 15 -31z m96 10 c0 6 4
12 10 12 5 0 7 -7 3 -15 -7 -19 -25 -15 -31 6 -3 11 -2 11 7 -1 7 -10 11 -11
11 -2z m-1856 -29 c-9 -10 -21 -16 -26 -13 -5 3 -15 1 -22 -5 -10 -9 -15 -8
-20 4 -3 9 -2 13 3 10 6 -3 13 1 18 9 8 14 42 26 56 18 5 -2 1 -12 -9 -23z
m1360 23 c3 -5 -1 -9 -9 -9 -8 0 -12 4 -9 9 3 4 7 8 9 8 2 0 6 -4 9 -8z m-44
-12 c-13 -8 -12 -10 4 -10 11 0 17 -3 13 -6 -3 -4 -13 -4 -22 0 -18 6 -11 26
8 26 7 0 6 -4 -3 -10z m187 -20 c2 -11 -1 -20 -5 -20 -4 0 -8 11 -8 25 0 28 8
24 13 -5z m300 23 c-9 -9 23 -44 34 -37 5 3 9 0 9 -5 0 -16 -16 -13 -34 5 -9
8 -16 13 -16 9 0 -3 -5 -3 -10 0 -11 7 5 35 18 35 3 0 2 -3 -1 -7z m33 -8 c7
-9 8 -15 2 -15 -5 0 -12 7 -16 15 -3 8 -4 15 -2 15 2 0 9 -7 16 -15z m45 -4
c-3 -6 -11 -11 -16 -11 -5 0 -4 6 3 14 14 16 24 13 13 -3z m-1030 3 c12 -5 14
-9 4 -14 -14 -9 -39 -2 -39 11 0 11 12 11 35 3z m-609 -31 c-7 -7 -26 7 -26
19 0 6 6 6 15 -2 9 -7 13 -15 11 -17z m1139 18 c-3 -5 1 -16 9 -24 23 -23 24
-59 2 -63 -11 -1 -25 0 -30 4 -17 10 -36 11 -36 1 0 -13 26 -22 71 -23 35 -1
37 -2 22 -18 -19 -21 -11 -23 17 -6 16 10 22 10 32 -1 7 -8 8 -11 2 -8 -6 3
-28 0 -50 -8 -21 -8 -32 -14 -24 -15 13 0 13 -1 0 -10 -13 -9 -13 -10 0 -11 8
-1 22 -1 30 0 11 1 11 -1 -2 -9 -12 -8 -24 -8 -37 0 -26 14 -31 13 -31 -6 0
-10 6 -14 15 -11 8 4 16 3 19 -1 3 -5 -11 -9 -30 -10 -33 -3 -41 5 -26 24 4 5
-1 1 -10 -9 -12 -13 -28 -18 -54 -15 -24 2 -38 -1 -40 -10 -1 -7 0 -8 3 -2 8
16 26 12 19 -5 -7 -18 5 -19 24 -2 12 10 12 9 1 -5 -10 -13 -21 -16 -39 -11
-15 3 -32 6 -38 6 -6 0 -9 9 -6 19 2 10 11 18 19 18 12 0 13 3 4 13 -6 8 -8
17 -4 20 3 4 1 7 -5 7 -7 0 -12 -6 -12 -14 0 -16 -19 -25 -37 -19 -6 3 -11 10
-9 16 1 7 1 9 -1 5 -8 -15 -53 -8 -53 7 0 14 57 51 73 47 4 -1 20 4 35 12 15
7 46 17 70 21 23 4 42 8 42 10 0 15 -14 34 -21 29 -5 -3 -9 1 -9 9 0 7 7 14
15 14 8 0 15 -8 15 -17 0 -24 30 -20 31 4 0 12 3 16 5 9 3 -7 12 -9 21 -6 10
4 14 2 9 -5 -3 -6 -2 -13 4 -17 5 -3 10 1 10 10 0 8 -7 18 -15 21 -8 4 -12 10
-9 15 3 5 -3 9 -13 10 -16 0 -16 1 2 9 27 11 27 11 20 1z m-1762 -69 c15 -2
27 1 27 7 0 6 5 11 10 11 19 0 10 -39 -11 -50 -26 -14 -69 -5 -69 15 0 8 -4
15 -10 15 -5 0 -10 17 -10 38 l0 37 18 -35 c12 -25 25 -36 45 -38z m1851 57
c-4 -7 -44 0 -44 7 0 2 11 3 24 2 14 -1 23 -5 20 -9z m242 -11 c4 -6 2 -14 -4
-16 -7 -2 -10 -8 -6 -13 3 -5 0 -9 -5 -9 -6 0 -10 11 -9 25 3 27 12 32 24 13z
m-1792 -28 c-6 -6 -10 -3 -10 10 0 13 4 16 10 10 7 -7 7 -13 0 -20z m286 0
c15 -21 17 -28 6 -24 -18 7 -50 54 -37 54 5 0 19 -13 31 -30z m1318 4 c1 -15
-3 -33 -9 -40 -11 -14 -1 -20 25 -15 5 1 4 -5 -4 -13 -7 -9 -18 -16 -24 -16
-6 0 -4 5 4 10 11 8 8 9 -13 4 l-28 -6 21 35 c11 19 20 39 19 43 -2 11 0 24 4
24 1 0 4 -12 5 -26z m257 16 c-4 -7 2 -9 19 -4 23 5 26 3 25 -17 0 -19 -2 -20
-7 -7 -5 13 -11 15 -22 8 -22 -14 -29 -12 -25 8 5 23 4 22 11 22 3 0 2 -5 -1
-10z m100 1 c3 -5 0 -13 -6 -17 -7 -4 -9 -3 -5 4 3 5 0 13 -6 15 -9 4 -10 6
-1 6 6 1 14 -3 18 -8z m-1505 -33 c-11 -12 -18 -28 -15 -36 2 -7 1 -10 -4 -7
-6 3 -9 14 -8 25 1 10 4 17 8 14 4 -2 9 3 13 11 3 8 10 15 16 15 6 0 1 -10
-10 -22z m1205 12 c-3 -5 -14 -10 -23 -9 -14 0 -13 2 3 9 27 11 27 11 20 0z
m272 -7 c0 -18 -14 -33 -32 -33 -5 1 -2 5 7 11 10 5 15 16 12 24 -4 8 -2 15 3
15 5 0 10 -8 10 -17z m-1961 -20 c-3 -14 -10 -31 -17 -37 -9 -8 -9 -6 -1 10 6
12 9 24 6 27 -3 3 -3 10 1 16 11 19 16 12 11 -16z m1754 12 c-7 -8 -18 -15
-24 -15 -6 0 -2 7 8 15 25 19 32 19 16 0z m-370 -5 c0 -5 -7 -7 -15 -4 -8 4
-15 8 -15 10 0 2 7 4 15 4 8 0 15 -4 15 -10z m513 -1 c10 8 14 7 14 -4 0 -8
-4 -12 -8 -9 -4 2 -9 -1 -11 -7 -2 -6 -12 0 -23 13 -15 17 -16 19 -2 9 12 -10
20 -11 30 -2z m-73 -4 c0 -2 -15 -8 -32 -14 -18 -5 -48 -14 -65 -20 -18 -5
-33 -6 -33 -2 0 7 16 13 95 36 16 5 35 5 35 0z m-1383 -32 c0 -9 -4 -10 -10
-4 -7 7 -16 7 -26 -2 -14 -10 -14 -10 -4 4 15 19 40 21 40 2z m1143 13 c0 -3
-4 -8 -10 -11 -5 -3 -10 -1 -10 4 0 6 5 11 10 11 6 0 10 -2 10 -4z m248 -3
c-11 -3 -15 -10 -11 -21 6 -15 5 -15 -11 -3 -13 11 -14 16 -4 22 7 5 20 8 28
8 11 -1 11 -2 -2 -6z m-42 -30 c-2 -2 -28 -6 -57 -8 -36 -2 -47 -1 -34 5 19 8
99 11 91 3z m91 -8 c5 -4 3 -5 -4 -1 -6 3 -18 -3 -26 -15 -11 -15 -16 -17 -20
-7 -4 9 -6 8 -6 -4 -1 -9 5 -19 12 -21 7 -3 5 -6 -5 -6 -12 -1 -18 7 -19 22
l-2 22 -4 -22 c-2 -13 -9 -23 -14 -23 -6 0 -7 -4 -4 -10 3 -5 1 -10 -4 -10 -6
0 -11 5 -11 11 0 5 -5 7 -10 4 -6 -4 -8 -10 -5 -15 3 -5 -6 -12 -20 -16 -14
-3 -22 -11 -18 -17 3 -6 1 -7 -6 -3 -6 4 -9 11 -6 15 2 5 -15 6 -39 4 -24 -3
-46 -1 -50 5 -4 6 2 8 13 5 16 -4 19 0 17 20 -3 22 0 24 34 23 27 0 34 -4 26
-12 -8 -9 -17 -9 -31 -1 -17 9 -18 8 -7 -5 10 -13 10 -17 0 -21 -7 -3 1 -4 18
-4 23 2 30 6 26 16 -4 10 -1 13 12 8 9 -4 15 -3 12 2 -3 5 2 8 12 7 11 -1 16
5 14 18 -3 13 1 17 12 13 8 -3 18 -2 22 4 3 5 13 9 22 8 30 -3 37 1 22 11 -12
8 -10 9 7 7 12 -2 26 -7 30 -12z m-689 -25 c-7 -10 -14 -17 -17 -15 -4 4 18
35 25 35 2 0 -1 -9 -8 -20z m471 11 c10 -7 7 -9 -12 -8 -14 1 -23 5 -20 10 6
9 15 9 32 -2z m-1014 -15 c15 -13 7 -53 -11 -60 -7 -3 -16 3 -19 14 -5 16 -10
17 -32 9 -31 -12 -42 -5 -15 10 11 6 22 7 26 4 4 -4 9 3 12 15 6 22 19 24 39
8z m925 8 c0 -8 -19 -13 -24 -6 -3 5 1 9 9 9 8 0 15 -2 15 -3z m35 -4 c-3 -5
-12 -10 -18 -10 -7 0 -6 4 3 10 19 12 23 12 15 0z m135 0 c0 -12 -8 -12 -35 0
-18 8 -17 9 8 9 15 1 27 -3 27 -9z m132 2 c-7 -5 -10 -16 -6 -25 3 -9 2 -17
-4 -17 -5 0 -8 10 -7 23 3 28 3 27 18 27 9 0 9 -2 -1 -8z m-1952 -21 c0 -4 -6
-8 -14 -8 -8 0 -12 6 -9 14 5 13 23 9 23 -6z m418 -51 c-1 -37 -9 -31 -14 10
-2 17 0 28 5 25 6 -3 9 -19 9 -35z m40 27 c14 4 14 3 2 -5 -16 -12 -30 -7 -29
11 0 9 2 9 5 0 3 -7 13 -9 22 -6z m321 -10 c3 6 15 2 26 -10 20 -20 20 -20 -5
-7 -14 8 -27 12 -30 11 -2 -1 -5 2 -6 9 -2 7 -1 6 3 -1 3 -7 8 -8 12 -2z m70
-47 l-1 -35 -8 30 c-4 17 -8 35 -10 40 -5 21 1 29 10 15 5 -8 9 -31 9 -50z
m798 46 c0 -8 -6 -12 -15 -9 -11 5 -11 7 0 14 7 5 13 9 14 9 0 0 1 -6 1 -14z
m-967 -1 c0 -2 -9 -9 -20 -15 -16 -9 -18 -8 -14 5 5 13 34 22 34 10z m83 -38
c-5 -8 -8 -7 -11 1 -2 7 -8 12 -13 12 -5 0 -4 -10 2 -22 11 -20 10 -21 -3 -10
-13 10 -17 10 -21 -2 -3 -7 0 -19 6 -26 9 -10 9 -11 -3 -4 -8 5 -23 7 -32 6
-11 -2 -18 3 -18 14 0 11 6 15 19 11 21 -5 38 19 18 26 -7 3 -1 9 13 15 28 11
55 -2 43 -21z m-173 3 c0 -5 -7 -10 -16 -10 -8 0 -12 5 -9 10 3 6 10 10 16 10
5 0 9 -4 9 -10z m-457 -40 c3 -11 1 -20 -4 -20 -5 0 -9 9 -9 20 0 11 2 20 4
20 2 0 6 -9 9 -20z m1572 10 c13 -6 15 -9 5 -9 -8 0 -22 4 -30 9 -18 12 -2 12
25 0z m315 -25 c0 -2 -7 -5 -15 -9 -9 -3 -15 0 -15 9 0 9 6 12 15 9 8 -4 15
-7 15 -9z m-293 -1 c-3 -3 -12 -4 -19 -1 -8 3 -5 6 6 6 11 1 17 -2 13 -5z
m146 -10 c-16 -12 -16 -15 -3 -25 12 -9 11 -10 -5 -5 l-20 6 20 -15 c18 -15
20 -14 23 0 3 11 11 15 22 12 11 -3 21 0 24 7 2 6 5 -1 6 -16 2 -16 3 -32 4
-37 2 -18 16 -24 30 -12 13 11 13 9 3 -13 l-12 -25 -22 21 c-17 16 -23 18 -23
7 0 -11 -2 -12 -9 -1 -4 8 -11 13 -15 13 -21 -3 -27 3 -44 37 -23 45 -20 57
14 58 23 2 24 1 7 -12z m-1163 2 c0 -3 -4 -8 -10 -11 -5 -3 -10 -1 -10 4 0 6
5 11 10 11 6 0 10 -2 10 -4z m1110 -6 c0 -5 -7 -10 -16 -10 -8 0 -12 5 -9 10
3 6 10 10 16 10 5 0 9 -4 9 -10z m-1502 -35 c1 -1 -4 -14 -11 -28 -8 -15 -18
-23 -22 -19 -5 4 -5 1 -1 -6 4 -7 -2 -28 -14 -46 -14 -23 -21 -54 -23 -94 -1
-38 -6 -58 -12 -54 -15 10 -39 8 -47 -3 -8 -11 -50 24 -42 36 3 5 0 9 -6 9 -6
0 -8 5 -5 10 11 18 27 11 22 -10 -3 -11 -1 -20 4 -20 5 0 9 5 9 11 0 5 5 7 10
4 6 -3 10 -2 10 4 0 5 -3 11 -7 14 -5 2 -3 3 2 2 6 -1 21 12 35 29 13 17 17
25 8 18 -11 -9 -18 -10 -23 -2 -10 16 5 32 23 25 9 -3 13 -3 9 1 -4 4 -2 13 4
20 7 8 6 14 -2 20 -7 4 -9 3 -5 -4 3 -6 2 -13 -4 -17 -14 -9 -12 8 5 41 8 16
15 37 15 47 0 9 4 17 10 17 5 0 7 -8 4 -17 -5 -17 -5 -17 6 0 6 9 8 22 4 28
-5 9 28 -3 44 -16z m1116 9 c9 -8 16 -19 16 -24 0 -10 -27 -7 -37 5 -4 4 -2 5
6 0 9 -5 12 -4 7 3 -9 15 -36 16 -36 1 0 -8 -6 -7 -17 2 -10 8 -14 9 -10 2 4
-6 2 -15 -4 -19 -7 -4 -9 -3 -5 4 3 6 2 13 -3 16 -5 3 -12 -4 -16 -17 -4 -16
-8 -18 -12 -8 -15 36 81 66 111 35z m198 -1 c-12 -2 -20 -8 -18 -12 3 -4 -4
-7 -15 -7 -19 0 -19 1 -3 13 10 7 27 12 38 12 19 -2 19 -2 -2 -6z m-1137 -13
c8 -13 -15 -13 -35 0 -12 8 -11 10 7 10 12 0 25 -4 28 -10z m1486 -13 c-10 -9
-11 -8 -5 6 3 10 9 15 12 12 3 -3 0 -11 -7 -18z m-867 -2 c-4 -9 -15 -20 -25
-25 -11 -7 -16 -17 -13 -28 5 -13 4 -14 -4 -3 -5 7 -14 11 -20 7 -6 -3 -14 -2
-17 4 -4 6 -3 10 2 9 21 -4 34 2 27 13 -4 7 -3 8 4 4 6 -4 19 2 29 14 21 24
24 25 17 5z m-984 -4 c0 -11 -31 -24 -39 -16 -3 3 1 10 9 15 19 12 30 12 30 1z
m1587 -22 c-4 -15 -2 -19 8 -15 9 3 12 0 8 -10 -4 -10 -9 -12 -18 -4 -6 5 -15
7 -18 3 -4 -3 -7 -1 -7 5 0 7 5 12 10 12 6 0 10 7 10 15 0 8 3 15 6 15 4 0 4
-9 1 -21z m152 -19 c11 0 25 -10 31 -22 11 -22 10 -22 -4 -4 -13 17 -19 18
-42 8 -24 -11 -25 -11 -19 9 5 14 3 19 -3 15 -9 -5 -9 8 -2 34 1 3 5 -5 10
-17 5 -13 18 -23 29 -23z m-1789 20 c0 -5 -2 -10 -4 -10 -3 0 -8 5 -11 10 -3
6 -1 10 4 10 6 0 11 -4 11 -10z m1970 -26 c12 -32 13 -31 -4 -31 -8 0 -12 6
-9 13 10 26 -14 21 -31 -7 -17 -28 -36 -39 -36 -19 0 6 5 10 10 10 6 0 10 4
10 10 0 12 32 50 42 50 5 0 13 -12 18 -26z m-100 -14 c6 -12 7 -20 1 -20 -5 0
-12 6 -14 13 -3 6 -4 -3 -2 -22 3 -25 1 -31 -7 -23 -12 12 -19 51 -11 65 8 13
22 7 33 -13z m330 5 c29 -17 22 -19 -14 -5 -17 6 -26 6 -26 0 0 -6 -11 -10
-25 -10 -14 0 -25 -5 -25 -11 0 -6 -5 -9 -12 -7 -17 6 -61 -49 -52 -63 4 -8 3
-9 -4 -5 -7 4 -12 1 -12 -7 0 -8 -7 -18 -16 -21 -15 -6 -15 -8 -1 -24 9 -9 16
-20 16 -24 1 -5 3 -8 6 -8 11 1 64 -30 71 -41 4 -7 -2 -7 -17 1 -32 18 -125
25 -134 10 -5 -8 -10 -8 -21 1 -7 6 -20 9 -28 6 -9 -4 -14 -1 -12 6 1 7 1 9
-2 4 -2 -4 -12 -12 -23 -18 -15 -7 -23 -6 -35 6 -9 8 -20 13 -25 9 -5 -3 -12
2 -15 11 -6 14 -8 14 -25 -1 -11 -10 -19 -12 -19 -6 0 7 5 12 11 12 8 0 8 4 0
14 -10 12 -8 13 8 9 15 -4 21 -1 21 11 0 15 12 19 55 17 14 0 12 3 -8 10 -20
8 -26 16 -22 29 3 9 -1 23 -10 30 -8 7 -12 16 -9 21 8 13 -10 11 -25 -3 -11
-11 -12 -10 -5 2 5 8 9 19 9 24 0 20 27 17 32 -3 3 -12 9 -21 13 -21 10 0 25
-40 22 -57 -2 -7 2 -13 9 -13 6 0 9 8 6 20 -3 11 -1 20 4 20 5 0 9 10 9 22 l0
22 21 -23 c14 -15 19 -30 15 -46 -4 -17 -1 -27 11 -33 25 -13 47 -4 33 13 -9
11 -5 13 17 9 35 -5 54 6 56 34 0 11 5 18 9 16 4 -3 8 3 8 12 0 10 3 14 6 11
4 -3 15 5 26 18 13 17 27 24 42 21 13 -2 29 0 37 5 18 11 19 11 49 -6z m-1108
-17 c15 2 37 -2 49 -8 13 -7 19 -8 15 -2 -3 6 -2 13 4 17 5 3 10 -2 11 -12 0
-16 1 -16 9 2 7 16 8 14 7 -12 -1 -20 -6 -28 -11 -22 -13 12 -29 12 -21 -1 3
-5 1 -10 -5 -10 -7 0 -10 -7 -7 -15 4 -8 2 -17 -4 -20 -5 -4 -9 -3 -8 2 1 4 0
19 -1 33 -2 21 -3 22 -7 5 -3 -11 -9 -25 -14 -31 -11 -13 -49 -7 -49 8 0 5 -3
7 -7 5 -5 -3 -8 15 -8 39 0 31 3 41 10 32 6 -7 22 -12 37 -10z m-1002 2 c0 -5
-4 -10 -10 -10 -5 0 -10 5 -10 10 0 6 5 10 10 10 6 0 10 -4 10 -10z m1647 -22
c-3 -8 -6 -5 -6 6 -1 11 2 17 5 13 3 -3 4 -12 1 -19z m-15 -2 c12 -18 9 -33
-7 -33 -8 0 -12 4 -9 9 3 4 1 8 -4 8 -6 0 -12 6 -15 13 -6 16 25 19 35 3z
m215 -8 c-3 -8 -6 -5 -6 6 -1 11 2 17 5 13 3 -3 4 -12 1 -19z m-1830 -15 c-1
-14 -9 -28 -17 -30 -12 -4 -12 -3 -1 5 9 7 10 11 2 13 -7 3 -9 12 -6 22 11 26
24 20 22 -10z m103 7 c0 -5 -7 -10 -15 -10 -8 0 -15 5 -15 10 0 6 7 10 15 10
8 0 15 -4 15 -10z m505 0 c3 -5 1 -10 -4 -10 -6 0 -11 5 -11 10 0 6 2 10 4 10
3 0 8 -4 11 -10z m-880 -10 c3 -5 1 -10 -4 -10 -6 0 -11 5 -11 10 0 6 2 10 4
10 3 0 8 -4 11 -10z m1960 -8 c3 -7 0 -10 -5 -7 -15 10 -12 -5 6 -22 12 -13
13 -18 3 -24 -7 -4 -17 -5 -23 -2 -5 4 -7 -1 -3 -10 8 -21 3 -21 -18 -1 -13
13 -14 19 -4 25 8 4 19 3 26 -3 9 -7 13 -7 13 1 0 6 -4 11 -9 11 -5 0 -15 10
-23 23 -14 21 -14 22 8 22 13 0 26 -6 29 -13z m-1875 -2 c0 -5 -2 -10 -4 -10
-3 0 -8 5 -11 10 -3 6 -1 10 4 10 6 0 11 -4 11 -10z m60 -8 c0 -5 -8 -19 -19
-31 -18 -21 -19 -21 -24 -1 -3 11 -2 18 3 15 4 -3 10 2 14 10 6 16 26 21 26 7z
m780 -7 c0 -8 -4 -15 -10 -15 -5 0 -10 7 -10 15 0 8 5 15 10 15 6 0 10 -7 10
-15z m96 -12 c-10 -10 -19 5 -10 18 6 11 8 11 12 0 2 -7 1 -15 -2 -18z m-1055
-18 c5 4 9 2 9 -4 0 -5 -4 -13 -10 -16 -5 -3 -10 -1 -10 5 0 6 -4 9 -8 6 -4
-2 -9 5 -9 17 -2 20 -1 20 8 4 6 -9 14 -15 20 -12z m1029 -5 c0 -5 -5 -10 -11
-10 -5 0 -7 5 -4 10 3 6 8 10 11 10 2 0 4 -4 4 -10z m422 -7 c-6 -3 -9 -10 -6
-15 4 -7 2 -8 -5 -4 -6 4 -14 0 -17 -8 -3 -9 -10 -13 -15 -10 -5 2 -3 13 3 24
7 10 15 17 19 14 4 -2 11 1 14 7 4 5 10 7 14 3 3 -4 0 -9 -7 -11z m-448 -57
c3 -15 1 -24 -5 -21 -5 4 -7 11 -4 16 4 5 2 9 -4 9 -6 0 -7 7 -4 17 4 9 2 14
-3 10 -6 -3 -11 4 -11 15 -2 21 -2 21 12 1 8 -11 16 -32 19 -47z m339 52 c-2
-5 -10 -8 -18 -8 -8 0 -16 3 -18 8 -3 4 5 7 18 7 13 0 21 -3 18 -7z m-936 -4
c-3 -3 -12 -4 -19 -1 -8 3 -5 6 6 6 11 1 17 -2 13 -5z m707 -9 c3 -8 1 -15 -4
-15 -6 0 -10 7 -10 15 0 8 2 15 4 15 2 0 6 -7 10 -15z m-1118 -34 c1 -23 -2
-28 -17 -24 -24 7 -25 23 -2 23 13 0 14 3 5 12 -16 16 -15 29 1 23 7 -3 13
-18 13 -34z m414 19 c0 -5 -7 -7 -15 -4 -8 4 -15 8 -15 10 0 2 7 4 15 4 8 0
15 -4 15 -10z m775 -8 c-3 -3 -11 0 -18 7 -9 10 -8 11 6 5 10 -3 15 -9 12 -12z
m181 4 c19 -14 18 -15 -3 -13 -12 0 -19 5 -16 11 4 5 -1 7 -11 3 -10 -4 -15
-3 -11 3 8 14 18 13 41 -4z m-321 -15 c-3 -6 -11 -11 -17 -11 -6 0 -6 6 2 15
14 17 26 13 15 -4z m-1155 -10 c0 -5 -13 -19 -28 -30 -32 -22 -72 -18 -72 7 0
8 3 13 6 9 3 -3 22 1 42 8 46 17 52 17 52 6z m1551 -10 c-6 -10 -7 -21 -3 -25
3 -4 -2 -4 -11 0 -17 6 -17 8 -1 25 22 24 27 24 15 0z m-111 4 c0 -2 -10 -9
-22 -15 -22 -11 -22 -10 -4 4 21 17 26 19 26 11z m1101 -49 l21 -41 -32 38
c-18 21 -38 36 -45 33 -8 -3 -16 1 -18 8 -4 9 4 11 24 8 23 -3 35 -14 50 -46z
m-2397 29 c-7 -18 7 -20 25 -2 11 10 11 8 2 -11 -7 -12 -16 -20 -22 -17 -5 4
-12 -1 -15 -9 -3 -9 -10 -13 -16 -10 -5 3 -4 12 4 22 10 12 10 14 1 8 -7 -4
-13 -3 -13 3 0 5 8 15 18 20 22 13 22 13 16 -4z m126 0 c0 -8 -4 -15 -10 -15
-5 0 -7 7 -4 15 4 8 8 15 10 15 2 0 4 -7 4 -15z m1120 5 c0 -5 -4 -10 -10 -10
-5 0 -10 5 -10 10 0 6 5 10 10 10 6 0 10 -4 10 -10z m-1296 -16 c5 -12 2 -15
-10 -10 -8 3 -18 6 -20 6 -3 0 -2 5 1 10 9 15 22 12 29 -6z m1956 6 c0 -5 -5
-10 -11 -10 -5 0 -7 5 -4 10 3 6 8 10 11 10 2 0 4 -4 4 -10z m88 -21 c-3 -8
-7 -3 -11 10 -4 17 -3 21 5 13 5 -5 8 -16 6 -23z m71 4 c0 -10 -3 -13 -5 -6
-3 7 -13 9 -22 6 -15 -4 -15 -3 -2 6 22 15 30 14 29 -6z m-2129 -19 c0 -8 -6
-11 -15 -8 -8 4 -15 9 -15 13 0 4 7 8 15 8 8 0 15 -6 15 -13z m100 -17 c0 -14
-4 -17 -13 -11 -7 5 -4 1 6 -8 11 -10 24 -15 29 -12 6 4 7 -2 3 -16 -6 -19 -4
-22 9 -17 10 4 16 1 16 -7 0 -8 -7 -17 -16 -20 -9 -4 -14 -9 -11 -13 4 -3 -1
-11 -10 -18 -13 -9 -13 -14 -3 -20 9 -6 11 -4 5 5 -5 9 -4 11 3 6 7 -4 9 -19
5 -36 -3 -17 0 -36 6 -44 6 -7 9 -21 5 -30 -3 -9 -1 -16 6 -16 6 0 8 -6 5 -12
-4 -7 1 -4 9 6 9 11 16 14 16 7 0 -7 5 -9 11 -5 6 3 3 -5 -6 -20 -16 -24 -34
-39 -20 -16 3 6 -1 10 -10 10 -10 0 -13 -5 -9 -12 4 -6 3 -8 -3 -5 -6 4 -10
-9 -9 -32 1 -30 4 -37 14 -29 8 8 9 14 2 23 -8 9 -6 14 4 18 9 4 18 2 21 -3 4
-6 2 -10 -2 -10 -5 0 -10 -15 -11 -32 -1 -18 -9 -38 -16 -43 -17 -13 -96 -7
-96 7 0 6 19 8 44 7 l43 -4 -27 28 c-18 19 -40 29 -66 31 -54 5 -54 22 1 24
25 1 45 -2 45 -8 0 -5 6 -10 14 -10 8 0 13 8 12 18 -2 9 4 22 12 28 12 9 12
13 2 19 -8 5 -11 4 -7 -1 3 -6 -3 -11 -14 -11 -10 -1 -19 3 -19 8 0 6 4 8 9 5
16 -10 30 18 18 35 -10 14 -14 14 -25 3 -9 -10 -9 -14 -1 -14 8 0 8 -4 -1 -15
-10 -12 -10 -18 0 -30 7 -8 8 -15 3 -15 -16 0 -33 24 -33 47 0 13 -7 26 -16
30 -8 3 -13 12 -10 19 3 7 1 16 -3 19 -5 3 -7 15 -4 26 5 19 7 18 20 -11 7
-18 16 -31 19 -27 3 3 -2 19 -10 36 -20 37 -20 42 -2 35 8 -3 17 0 21 5 3 6
11 9 16 6 5 -4 9 -1 9 4 0 6 -9 11 -20 11 -11 0 -20 5 -20 11 0 5 5 7 12 3 7
-5 8 -3 3 6 -6 10 -13 7 -27 -11 l-20 -24 6 27 c3 14 7 32 9 40 2 7 2 10 0 6
-13 -24 -22 9 -14 51 1 3 7 -3 15 -14 12 -17 13 -17 19 6 8 31 47 35 47 6z
m26 -3 c-4 -9 -9 -15 -11 -12 -3 3 -3 13 1 22 4 9 9 15 11 12 3 -3 3 -13 -1
-22z m1314 7 c0 -5 -11 -8 -24 -7 -13 0 -22 4 -19 9 6 10 43 9 43 -2z m-1432
-30 c3 -8 -1 -12 -9 -9 -7 2 -15 10 -17 17 -3 8 1 12 9 9 7 -2 15 -10 17 -17z
m1752 9 c0 -5 -9 -10 -20 -10 -11 0 -20 5 -20 10 0 6 9 10 20 10 11 0 20 -4
20 -10z m380 -1 c0 -6 -4 -7 -10 -4 -5 3 -10 2 -10 -4 0 -6 -7 -8 -15 -5 -8 4
-13 9 -11 13 7 11 46 11 46 0z m60 1 c0 -5 -7 -7 -15 -4 -8 4 -15 8 -15 10 0
2 7 4 15 4 8 0 15 -4 15 -10z m80 -10 c0 -4 -6 -10 -14 -13 -10 -4 -12 0 -9
14 5 18 23 18 23 -1z m-202 -18 c2 -7 -2 -10 -12 -6 -9 3 -16 11 -16 16 0 13
23 5 28 -10z m-2078 -13 c0 -5 -9 -9 -20 -9 -22 0 -27 16 -7 23 15 5 27 -1 27
-14z m2135 12 c-3 -5 2 -11 11 -13 10 -2 5 -7 -16 -15 -27 -10 -30 -10 -19 3
10 12 9 13 -3 9 -8 -3 -21 -17 -28 -30 -10 -19 -16 -22 -26 -14 -16 13 -6 42
13 35 7 -3 16 1 19 9 4 8 9 13 13 11 4 -3 13 -1 21 5 19 11 23 11 15 0z m75
-7 c0 -7 -9 -12 -19 -11 -10 0 -17 6 -14 12 5 16 33 15 33 -1z m-453 0 c-3 -3
-12 -4 -19 -1 -8 3 -5 6 6 6 11 1 17 -2 13 -5z m278 -5 c10 -14 1 -21 -19 -13
-9 3 -13 10 -10 15 7 12 21 11 29 -2z m245 0 c0 -3 11 -5 25 -4 14 2 23 0 21
-4 -4 -6 -38 -6 -93 1 -7 1 -10 4 -9 7 5 8 56 8 56 0z m-331 -20 c-16 -10 -23
-4 -14 10 3 6 11 8 17 5 6 -4 5 -9 -3 -15z m-114 3 c-15 -10 -12 -31 5 -42 8
-5 10 -10 4 -10 -15 0 -31 21 -28 38 3 21 4 22 17 22 8 0 8 -3 2 -8z m525 0
c0 -5 -7 -9 -15 -9 -8 0 -12 4 -9 9 3 4 9 8 15 8 5 0 9 -4 9 -8z m57 2 c-3 -3
-12 -4 -19 -1 -8 3 -5 6 6 6 11 1 17 -2 13 -5z m-2414 -19 c-4 -16 -43 -14
-43 2 0 9 8 13 23 11 12 -2 21 -7 20 -13z m1991 9 c24 -9 19 -21 -9 -21 -25 0
-31 7 -18 20 8 8 8 8 27 1z m-129 -14 c3 -6 -1 -7 -9 -4 -18 7 -21 14 -7 14 6
0 13 -4 16 -10z m55 0 c0 -5 -7 -10 -16 -10 -8 0 -12 5 -9 10 3 6 10 10 16 10
5 0 9 -4 9 -10z m-600 -22 c0 -13 -33 -68 -40 -68 -6 0 -2 53 5 77 5 14 35 6
35 -9z m723 16 c11 -11 -14 -46 -29 -40 -10 4 -14 -2 -14 -18 0 -15 -14 -35
-37 -55 -20 -17 -32 -31 -27 -31 10 0 -17 -20 -28 -20 -4 0 -3 10 1 23 5 12
14 21 20 20 6 -2 8 4 4 14 -4 10 -2 14 4 10 6 -4 14 4 17 18 4 14 11 25 17 25
6 0 7 -5 3 -12 -4 -7 -3 -8 4 -4 7 4 12 14 12 23 0 9 8 24 18 34 19 20 26 22
35 13z m-1988 -14 c3 -5 1 -10 -4 -10 -6 0 -11 5 -11 10 0 6 2 10 4 10 3 0 8
-4 11 -10z m1320 -1 c4 -5 -5 -28 -20 -50 -29 -41 -54 -54 -35 -18 7 11 9 27
6 34 -3 8 -1 17 5 20 5 4 7 11 4 16 -4 5 3 9 14 9 11 0 23 -5 26 -11z m318 -4
c-3 -9 -8 -14 -10 -11 -3 3 -2 9 2 15 9 16 15 13 8 -4z m-1679 -3 c10 -16 -6
-53 -22 -50 -26 5 -26 28 0 29 l23 2 -22 4 c-13 2 -23 9 -23 14 0 11 37 12 44
1z m1956 -2 c12 -8 11 -10 -7 -10 -13 0 -23 5 -23 10 0 13 11 13 30 0z m-545
-30 c-9 -10 -24 -16 -32 -13 -13 5 -11 9 8 24 29 22 46 14 24 -11z m475 20 c0
-5 -7 -7 -15 -4 -8 4 -15 8 -15 10 0 2 7 4 15 4 8 0 15 -4 15 -10z m-1760 -40
c-5 -22 -8 -27 -9 -13 -1 21 9 56 14 51 2 -2 0 -19 -5 -38z m965 12 c0 -12 -4
-21 -10 -20 -5 1 -9 9 -7 17 2 9 -2 12 -12 8 -9 -4 -16 -2 -16 2 0 11 21 20
35 17 6 -2 10 -12 10 -24z m-1142 -12 c3 -11 2 -22 -3 -25 -4 -2 -5 -16 -2
-30 2 -15 0 -25 -7 -25 -7 0 -9 5 -5 12 5 8 1 9 -12 5 -18 -7 -18 -7 0 8 11 8
15 15 8 15 -8 0 -9 7 -2 26 6 14 7 30 4 36 -4 6 -2 8 3 5 6 -4 13 -16 16 -27z
m1972 20 c3 -5 -3 -10 -15 -10 -12 0 -18 5 -15 10 3 6 10 10 15 10 5 0 12 -4
15 -10z m-461 -6 c13 -5 12 -10 -10 -26 -14 -11 -28 -17 -32 -14 -3 4 0 11 7
15 7 5 10 14 7 20 -8 12 4 14 28 5z m386 -4 c0 -5 -2 -10 -4 -10 -3 0 -8 5
-11 10 -3 6 -1 10 4 10 6 0 11 -4 11 -10z m-110 -18 c3 -3 -7 -3 -22 0 -15 3
-25 2 -23 -3 3 -4 1 -10 -5 -14 -6 -4 -8 -11 -4 -16 3 -5 10 -7 15 -3 5 3 7 9
4 13 -2 5 7 9 20 9 14 0 25 -2 25 -4 0 -2 -19 -13 -42 -25 -46 -24 -92 -33
-82 -17 3 5 13 7 21 4 9 -4 11 -2 7 6 -5 7 -2 9 8 5 12 -4 14 -1 11 14 -3 10
0 19 6 19 5 0 8 7 4 16 -4 12 0 14 23 8 16 -4 31 -9 34 -12z m-1739 -16 c-1
-16 -31 -15 -31 1 0 8 7 13 16 11 8 -2 15 -7 15 -12z m1902 -1 c1 -5 -6 -11
-15 -13 -11 -2 -18 3 -18 13 0 17 30 18 33 0z m-245 -7 c-6 -18 -28 -21 -28
-4 0 9 7 16 16 16 9 0 14 -5 12 -12z m159 6 c-3 -3 -12 -4 -19 -1 -8 3 -5 6 6
6 11 1 17 -2 13 -5z m-1675 -36 c-8 -8 -9 -4 -5 13 4 13 8 18 11 10 2 -7 -1
-18 -6 -23z m1409 -5 c-8 -15 -10 -15 -11 -2 0 17 10 32 18 25 2 -3 -1 -13 -7
-23z m219 17 c0 -5 -2 -10 -4 -10 -3 0 -8 5 -11 10 -3 6 -1 10 4 10 6 0 11 -4
11 -10z m95 1 c3 -5 1 -12 -4 -15 -5 -4 -12 -2 -16 4 -4 6 -11 8 -16 5 -5 -4
-9 -1 -9 4 0 13 37 15 45 2z m-1851 -7 c9 -3 16 -13 16 -21 0 -10 -6 -13 -16
-9 -9 3 -22 6 -30 6 -8 0 -14 7 -14 15 0 16 17 19 44 9z m1874 -29 c0 -14 -4
-25 -9 -25 -10 0 -12 34 -2 43 10 10 11 9 11 -18z m-293 4 c11 -17 -1 -21 -15
-4 -8 9 -8 15 -2 15 6 0 14 -5 17 -11z m227 -1 c9 -7 18 -20 21 -28 3 -9 6 -5
7 10 l1 25 10 -23 c10 -26 -3 -63 -15 -43 -4 6 -12 11 -17 11 -6 0 -7 -4 -4
-10 4 -6 -1 -7 -11 -3 -13 5 -15 3 -9 -8 4 -8 5 -11 1 -7 -8 6 -16 1 -51 -30
-11 -10 -14 -9 -12 7 1 11 3 18 5 16 7 -6 30 19 25 27 -2 4 4 5 13 1 31 -12 4
18 -30 33 -24 10 -27 13 -10 14 11 0 29 -9 39 -20 19 -21 41 -28 29 -8 -4 7
-3 8 4 4 7 -4 12 -1 12 8 0 14 -18 21 -42 17 -5 0 -8 4 -8 9 0 14 23 13 42 -2z
m-1801 -18 c29 -16 24 -33 -8 -25 -16 4 -34 8 -40 8 -25 1 -10 27 14 27 8 0
23 -5 34 -10z m1649 2 c0 -14 -11 -21 -26 -15 -8 3 -11 9 -8 14 7 11 34 12 34
1z m69 -39 c3 -2 -6 -1 -20 1 -13 2 -28 5 -34 5 -5 1 -3 5 5 11 9 6 20 5 30
-3 8 -6 17 -13 19 -14z m-1554 7 c3 -5 1 -10 -4 -10 -6 0 -11 5 -11 10 0 6 2
10 4 10 3 0 8 -4 11 -10z m1440 0 c3 -5 -3 -10 -15 -10 -12 0 -18 5 -15 10 3
6 10 10 15 10 5 0 12 -4 15 -10z m265 0 c0 -5 -5 -10 -11 -10 -5 0 -7 5 -4 10
3 6 8 10 11 10 2 0 4 -4 4 -10z m34 -15 c-7 -16 -24 -21 -24 -6 0 8 7 13 27
20 1 1 0 -6 -3 -14z m-234 -10 c7 -8 18 -15 25 -15 31 0 -8 -69 -40 -70 -5 0
-4 4 4 9 11 7 9 10 -9 16 -17 5 -19 9 -9 16 8 4 19 3 28 -4 12 -9 13 -9 7 1
-4 7 -2 12 4 12 22 0 0 18 -30 24 -18 3 -29 10 -25 16 9 15 31 12 45 -5z m260
5 c0 -5 -5 -10 -11 -10 -5 0 -7 5 -4 10 3 6 8 10 11 10 2 0 4 -4 4 -10z
m-1732 -39 c30 -30 42 -37 55 -29 11 6 17 5 17 -2 0 -9 -21 -15 -42 -11 -17 2
-6 -17 15 -27 17 -8 18 -11 5 -11 -10 -1 -18 -5 -18 -11 0 -5 -7 -7 -15 -4 -8
4 -15 10 -15 15 0 4 7 6 15 3 12 -5 12 -2 -1 25 -9 17 -18 31 -20 31 -3 0 -2
-4 1 -10 3 -5 4 -10 1 -10 -3 0 -14 18 -25 40 -10 22 -18 40 -15 40 2 0 21
-18 42 -39z m1366 30 c6 -9 -35 -24 -43 -15 -6 5 18 24 31 24 4 0 9 -4 12 -9z
m312 -5 c20 -21 17 -28 -6 -14 -11 7 -20 16 -20 20 0 12 10 9 26 -6z m77 -10
c7 -17 -30 -63 -41 -52 -4 4 2 15 14 25 11 9 19 22 16 29 -5 17 5 15 11 -2z
m-318 -6 c4 -6 -8 -10 -30 -10 -22 0 -34 4 -30 10 3 6 17 10 30 10 13 0 27 -4
30 -10z m295 0 c0 -5 -2 -10 -4 -10 -3 0 -8 5 -11 10 -3 6 -1 10 4 10 6 0 11
-4 11 -10z m-1872 -19 c4 -11 -2 -12 -24 -6 -16 4 -34 8 -41 9 -35 6 -22 17
16 14 27 -2 46 -9 49 -17z m726 3 c9 -24 7 -28 -9 -14 -17 14 -20 30 -6 30 5
0 12 -7 15 -16z m1201 -1 c-2 -10 -4 -19 -4 -21 -1 -2 -6 0 -11 3 -8 5 -7 11
1 21 15 18 18 18 14 -3z m-799 -9 c-4 -12 -2 -15 9 -10 8 3 15 1 15 -3 0 -13
-28 -22 -35 -11 -5 9 4 40 12 40 3 0 2 -7 -1 -16z m329 6 c-28 -12 -37 -12
-30 0 3 6 16 10 28 9 21 0 21 -1 2 -9z m-1359 -16 c-9 -8 -16 -20 -16 -25 0
-5 -4 -9 -10 -9 -5 0 -10 4 -10 9 0 13 29 41 41 41 6 0 3 -7 -5 -16z m585 -5
c7 -15 8 -24 0 -32 -7 -7 -13 -2 -21 17 -12 34 -12 36 0 36 5 0 14 -9 21 -21z
m850 7 c0 -6 -7 -11 -16 -12 -9 -1 -12 2 -8 9 4 6 0 8 -10 4 -10 -3 -17 -2
-17 4 0 6 11 9 25 7 14 -2 26 -7 26 -12z m-1306 -26 c-3 -5 -14 -10 -23 -9
-14 0 -13 2 3 9 27 11 27 11 20 0z m1185 6 c0 -3 -4 -8 -10 -11 -5 -3 -10 -1
-10 4 0 6 5 11 10 11 6 0 10 -2 10 -4z m100 -16 c16 -16 20 -17 20 -5 0 9 9
15 25 15 18 0 23 -4 18 -16 -3 -8 -12 -13 -19 -10 -7 3 -16 1 -19 -4 -10 -15
-25 -12 -25 6 0 8 -4 13 -10 9 -5 -3 -6 -13 -3 -22 5 -11 0 -10 -16 6 -12 12
-27 19 -34 14 -7 -4 -7 0 2 10 18 22 37 21 61 -3z m423 0 c3 -12 0 -20 -7 -20
-6 0 -12 9 -12 20 0 11 3 20 7 20 4 0 9 -9 12 -20z m-1793 -1 c0 -5 -5 -9 -12
-9 -6 0 -3 -9 7 -20 18 -20 18 -21 -1 -35 -21 -16 -28 -18 -37 -9 -3 4 4 15
16 24 l22 18 -27 7 c-27 7 -34 16 -23 27 9 9 55 6 55 -3z m120 6 c0 -2 -10 -9
-22 -15 -22 -11 -22 -10 -4 4 21 17 26 19 26 11z m384 -26 c-10 -16 -24 -9
-24 12 0 18 2 19 15 9 8 -7 12 -16 9 -21z m1256 19 c0 -11 -12 -10 -30 2 -12
7 -10 9 8 7 12 0 22 -5 22 -9z m60 2 c0 -5 -4 -10 -10 -10 -5 0 -10 5 -10 10
0 6 5 10 10 10 6 0 10 -4 10 -10z m-1893 -13 c17 -27 -67 -29 -96 -1 -12 11
-6 13 38 12 29 -1 55 -6 58 -11z m523 -23 c0 -8 -4 -14 -10 -14 -5 0 -10 9
-10 21 0 11 5 17 10 14 6 -3 10 -13 10 -21z m874 10 c9 -3 16 -10 16 -14 0
-12 -39 -19 -46 -9 -3 5 -10 7 -15 4 -10 -7 -12 8 -2 18 8 9 27 9 47 1z m496
-4 c0 -5 -4 -10 -10 -10 -5 0 -10 5 -10 10 0 6 5 10 10 10 6 0 10 -4 10 -10z
m-1854 -9 c-8 -12 -46 -21 -46 -11 0 9 18 18 38 19 7 1 11 -3 8 -8z m109 -1
c-4 -7 3 -9 22 -5 26 5 26 5 5 -5 -13 -5 -20 -15 -17 -21 4 -6 -2 -5 -13 2
-12 7 -19 16 -16 20 2 4 -2 10 -8 12 -7 3 -3 6 10 6 14 1 21 -3 17 -9z m1651
-5 c-11 -8 -22 -12 -25 -9 -6 6 19 24 34 24 6 -1 1 -7 -9 -15z m79 -2 c18 -14
18 -15 2 -9 -10 3 -23 6 -28 6 -5 0 -9 5 -9 10 0 14 12 12 35 -7z m-1756 -17
c9 -11 7 -15 -11 -20 -44 -11 -53 -8 -32 13 23 24 28 25 43 7z m938 7 c-4 -3
1 -15 10 -26 13 -15 14 -18 3 -12 -35 19 -42 28 -28 36 16 10 24 11 15 2z
m-777 -7 c0 -3 -4 -8 -10 -11 -5 -3 -10 -1 -10 4 0 6 5 11 10 11 6 0 10 -2 10
-4z m1470 -6 c-8 -5 -19 -10 -25 -10 -5 0 -3 5 5 10 8 5 20 10 25 10 6 0 3 -5
-5 -10z m110 0 c0 -5 -2 -10 -4 -10 -3 0 -8 5 -11 10 -3 6 -1 10 4 10 6 0 11
-4 11 -10z m25 -10 c3 -5 1 -10 -4 -10 -6 0 -11 5 -11 10 0 6 2 10 4 10 3 0 8
-4 11 -10z"/>
<path d="M1148 1723 c6 -3 9 -10 5 -16 -5 -8 -2 -8 9 0 8 7 18 10 21 6 4 -3 7
-2 7 4 0 6 -12 10 -27 10 -16 0 -22 -2 -15 -4z"/>
<path d="M922 1588 c-20 -20 -15 -40 7 -29 10 6 22 7 26 3 5 -4 5 -2 1 5 -4 7
-14 9 -24 6 -15 -6 -15 -5 -3 10 15 20 11 23 -7 5z"/>
<path d="M973 1535 c-3 -9 -3 -18 -1 -21 3 -3 8 4 11 16 6 23 -1 27 -10 5z"/>
<path d="M620 1250 c0 -5 5 -10 10 -10 6 0 10 5 10 10 0 6 -4 10 -10 10 -5 0
-10 -4 -10 -10z"/>
<path d="M527 1193 c-12 -11 -8 -44 7 -59 13 -12 15 -10 21 17 4 17 4 33 1 36
-3 4 -6 1 -6 -5 0 -7 -5 -12 -11 -12 -6 0 -9 7 -5 15 6 16 3 19 -7 8z"/>
<path d="M514 1115 c-3 -8 -4 -20 -2 -27 3 -7 7 -1 10 15 6 29 1 36 -8 12z"/>
<path d="M461 1103 c-1 -6 -4 -20 -7 -30 -5 -17 -5 -17 6 0 6 10 9 23 6 30 -3
9 -5 9 -5 0z"/>
<path d="M906 1071 c-4 -7 -5 -15 -2 -18 9 -9 19 4 14 18 -4 11 -6 11 -12 0z"/>
<path d="M310 1020 c-8 -15 -8 -20 1 -20 8 0 7 -5 -2 -17 -10 -11 -10 -14 -1
-9 6 4 12 3 12 -2 0 -5 -10 -13 -22 -17 -16 -4 -19 -8 -10 -12 18 -7 43 18 43
43 -1 30 -4 54 -7 54 -2 0 -8 -9 -14 -20z"/>
<path d="M2058 993 c7 -3 16 -2 19 1 4 3 -2 6 -13 5 -11 0 -14 -3 -6 -6z"/>
<path d="M420 980 c0 -6 7 -10 15 -10 8 0 15 2 15 4 0 2 -7 6 -15 10 -8 3 -15
1 -15 -4z"/>
<path d="M670 966 c0 -9 8 -16 20 -16 11 0 20 5 20 12 0 6 -3 8 -7 5 -3 -4
-12 -2 -20 4 -10 9 -13 8 -13 -5z"/>
<path d="M1955 970 c-16 -7 -17 -9 -3 -9 9 -1 20 4 23 9 7 11 7 11 -20 0z"/>
<path d="M751 954 c0 -11 3 -14 6 -6 3 7 2 16 -1 19 -3 4 -6 -2 -5 -13z"/>
<path d="M428 949 c-10 -5 -18 -15 -18 -22 0 -8 3 -7 9 2 5 7 13 11 18 8 5 -3
10 0 10 8 0 8 -1 15 -1 15 -1 0 -9 -5 -18 -11z"/>
<path d="M978 850 c2 -16 6 -30 8 -30 2 0 4 14 4 30 0 17 -4 30 -8 30 -5 0 -7
-13 -4 -30z"/>
<path d="M1040 870 c0 -9 5 -21 12 -28 9 -9 8 -12 -4 -12 -9 0 -19 10 -21 23
-3 12 -4 -2 -2 -31 3 -48 15 -88 15 -49 0 10 5 17 11 17 5 0 7 -4 4 -10 -3 -5
-1 -10 4 -10 6 0 14 -19 18 -42 7 -42 7 -42 14 -13 12 53 10 68 -7 61 -12 -5
-14 -1 -9 16 6 18 4 20 -14 15 -11 -3 -21 -1 -21 4 0 5 7 9 15 9 18 0 18 8 0
40 -9 16 -14 19 -15 10z"/>
<path d="M728 863 c7 -3 16 -2 19 1 4 3 -2 6 -13 5 -11 0 -14 -3 -6 -6z"/>
<path d="M797 840 c3 -11 9 -22 13 -25 5 -3 6 4 3 15 -3 11 -9 22 -13 25 -5 3
-6 -4 -3 -15z"/>
<path d="M915 840 c6 -10 4 -12 -8 -7 -8 3 -21 -1 -27 -9 -7 -8 -11 -14 -9
-15 39 -7 52 -8 46 -3 -4 4 -2 13 4 20 7 8 6 14 -2 20 -8 5 -9 3 -4 -6z"/>
<path d="M756 831 c-2 -3 2 -12 10 -19 8 -7 14 -11 15 -10 6 25 4 35 -8 35 -7
0 -15 -3 -17 -6z"/>
<path d="M962 805 c0 -16 2 -22 5 -12 2 9 2 23 0 30 -3 6 -5 -1 -5 -18z"/>
<path d="M1508 823 c6 -2 18 -2 25 0 6 3 1 5 -13 5 -14 0 -19 -2 -12 -5z"/>
<path d="M1727 816 c-4 -9 -1 -16 6 -16 8 0 6 -4 -3 -10 -12 -8 -11 -10 8 -10
13 0 22 -6 22 -15 0 -20 -36 -19 -44 1 -5 14 -9 14 -23 3 -14 -12 -15 -11 -9
9 5 15 3 22 -6 22 -20 0 -43 -18 -35 -27 5 -4 12 -2 16 6 6 9 10 8 13 -7 4
-15 1 -18 -12 -15 -12 3 -19 -3 -22 -19 -3 -13 -9 -32 -14 -43 -7 -17 -6 -18
8 -5 9 8 14 18 11 23 -2 4 1 7 7 7 7 0 10 6 7 13 -6 15 59 21 69 6 3 -6 15 -7
27 -3 34 10 51 44 22 44 -8 0 -21 12 -28 26 -11 22 -15 24 -20 10z"/>
<path d="M1900 815 c-7 -9 -10 -18 -6 -22 3 -3 6 -1 6 6 0 7 5 9 12 5 6 -4 8
-3 4 4 -3 5 0 13 6 15 8 4 9 6 2 6 -6 1 -17 -6 -24 -14z"/>
<path d="M1696 807 c3 -10 9 -15 12 -12 3 3 0 11 -7 18 -10 9 -11 8 -5 -6z"/>
<path d="M850 801 c0 -6 4 -13 10 -16 6 -3 7 1 4 9 -7 18 -14 21 -14 7z"/>
<path d="M990 801 c0 -6 4 -13 10 -16 6 -3 7 1 4 9 -7 18 -14 21 -14 7z"/>
<path d="M695 742 c2 -19 0 -30 -6 -26 -5 3 -7 10 -4 15 9 13 -18 11 -39 -4
-16 -12 -16 -13 1 -14 10 -1 26 -3 37 -5 21 -3 30 26 16 51 -6 11 -8 6 -5 -17z"/>
<path d="M890 765 c0 -5 5 -17 10 -25 5 -8 10 -10 10 -5 0 6 -5 17 -10 25 -5
8 -10 11 -10 5z"/>
<path d="M743 739 c-6 -6 -9 -18 -6 -27 5 -11 3 -13 -7 -7 -9 5 -11 4 -6 -4
10 -16 23 -6 28 24 6 29 6 29 -9 14z"/>
<path d="M1056 726 c5 -21 4 -27 -5 -22 -6 4 -11 2 -11 -3 0 -6 7 -11 15 -11
17 0 20 28 5 50 -8 11 -9 7 -4 -14z"/>
<path d="M450 709 c0 -5 -3 -8 -7 -6 -5 3 -8 -8 -9 -23 -1 -20 2 -25 10 -18
10 10 19 58 10 58 -2 0 -4 -5 -4 -11z"/>
<path d="M949 693 c-13 -16 -12 -17 4 -4 9 7 17 15 17 17 0 8 -8 3 -21 -13z"/>
<path d="M660 688 c0 -7 4 -19 9 -27 6 -9 9 -5 9 13 0 14 -4 26 -9 26 -5 0 -9
-6 -9 -12z"/>
<path d="M780 685 c-7 -9 -10 -18 -6 -22 3 -3 6 -1 6 6 0 7 4 10 9 7 11 -7 1
-56 -12 -56 -6 0 -8 -3 -4 -6 6 -7 67 36 67 48 0 4 -5 8 -11 8 -5 0 -8 -4 -5
-9 3 -5 -1 -12 -10 -15 -11 -4 -15 -2 -11 8 3 7 0 19 -6 26 -9 10 -8 12 6 7 9
-4 17 -2 17 3 0 15 -26 12 -40 -5z"/>
<path d="M693 668 c-3 -28 -32 -58 -51 -51 -13 4 -14 3 -4 -5 11 -7 11 -10 -3
-16 -9 -3 -13 -10 -10 -16 3 -5 0 -10 -7 -10 -16 0 -19 40 -3 41 5 1 -1 4 -15
8 -33 10 -57 3 -65 -17 -5 -14 -4 -15 6 -4 22 21 33 13 13 -10 -10 -12 -14
-18 -7 -15 7 5 16 -6 23 -30 7 -21 18 -44 24 -52 7 -9 1 -8 -17 4 -19 12 -26
23 -22 35 3 10 1 22 -6 26 -7 4 -10 2 -7 -7 3 -8 1 -22 -4 -31 -6 -12 -5 -18
3 -18 7 0 9 -9 5 -24 -4 -15 1 -31 14 -46 11 -13 20 -28 20 -34 0 -6 5 -4 10
4 8 12 10 11 10 -7 0 -12 8 -24 18 -27 43 -13 81 -15 88 -5 4 8 9 7 14 -2 10
-15 77 -20 103 -7 12 6 17 5 17 -6 0 -21 -18 -30 -35 -16 -9 8 -15 8 -20 0 -3
-6 -11 -7 -17 -4 -7 5 -9 1 -5 -9 4 -11 2 -14 -9 -10 -7 3 -14 9 -14 13 0 15
-49 17 -64 2 -12 -12 -18 -13 -29 -4 -8 7 -18 8 -22 4 -5 -4 -5 -2 -2 4 4 7
-1 18 -10 25 -12 10 -14 10 -9 2 4 -8 2 -13 -6 -13 -9 0 -9 -3 2 -10 10 -6 11
-10 3 -10 -7 0 -13 -5 -13 -11 0 -6 9 -9 19 -6 15 4 19 0 16 -15 -4 -19 -3
-19 32 2 21 12 31 15 25 7 -10 -12 -8 -16 9 -20 12 -3 30 -2 40 4 25 13 42 11
33 -3 -4 -7 2 -5 14 6 12 10 19 23 16 27 -3 5 8 6 24 3 19 -4 32 -1 37 7 6 8
4 10 -6 4 -8 -5 -11 -4 -6 0 4 5 20 11 34 13 15 2 32 11 40 20 11 15 14 15 24
2 9 -13 10 -13 6 2 -3 9 1 19 9 22 10 4 12 2 8 -6 -5 -7 -3 -8 5 -4 7 5 10 14
7 22 -4 9 4 18 20 24 36 14 39 13 19 -10 -10 -11 -15 -20 -10 -20 4 0 2 -7 -5
-15 -10 -12 -10 -15 1 -15 11 0 11 -3 -1 -11 -11 -8 -12 -10 -1 -7 8 2 15 17
17 32 2 16 10 36 18 45 18 20 12 31 -15 31 -12 0 -17 6 -14 20 2 13 -2 20 -11
20 -8 0 -12 -4 -9 -10 3 -6 -1 -7 -9 -4 -9 3 -13 11 -9 17 3 5 -14 -4 -38 -20
-36 -25 -47 -28 -62 -19 -13 8 -20 8 -26 -3 -6 -9 -18 -12 -37 -7 l-29 6 23
-20 c24 -20 22 -40 -4 -40 -9 0 -12 5 -8 12 5 8 2 9 -10 5 -10 -4 -20 -7 -22
-7 -2 0 -4 -5 -4 -11 0 -5 5 -7 10 -4 6 3 10 2 10 -4 0 -5 12 -7 27 -5 15 3
25 3 22 -1 -26 -25 -95 4 -128 55 -15 22 -15 24 1 17 20 -7 53 33 45 55 -3 8
-11 -1 -19 -19 -11 -27 -17 -31 -27 -20 -11 9 -14 9 -18 -1 -3 -6 -9 -10 -14
-6 -11 6 -12 24 -1 23 4 -1 18 -1 31 0 24 1 24 2 6 15 -24 17 -39 12 -53 -20
-11 -23 -42 -34 -42 -14 0 5 7 7 15 4 10 -4 15 0 15 11 0 9 -5 13 -10 10 -15
-9 13 48 30 61 8 7 26 10 41 9 20 -3 30 2 39 21 8 13 17 24 22 24 4 0 8 4 8
10 0 5 -7 6 -17 3 -12 -5 -14 -3 -8 7 5 8 4 11 -2 7 -6 -4 -17 1 -24 10 -12
15 -11 16 9 11 14 -4 22 -2 22 7 0 9 -8 11 -22 7 -14 -3 -19 -1 -14 6 3 6 3
13 -2 16 -4 2 -9 -5 -9 -16z m11 -49 c-3 -5 -10 -6 -16 -3 -7 4 -8 2 -4 -4 4
-7 3 -12 -2 -12 -5 0 -9 -7 -9 -16 0 -15 1 -15 12 0 7 8 16 12 20 8 5 -4 5 -1
1 6 -4 7 -1 12 8 12 19 0 21 -26 4 -37 -7 -4 -22 -8 -33 -8 -11 0 -30 -6 -42
-13 -27 -15 -43 -15 -43 -1 0 6 7 9 15 5 14 -5 20 5 16 27 -1 5 2 6 7 3 4 -2
18 9 31 25 13 16 27 26 32 23 5 -3 7 -10 3 -15z m-89 -99 c3 -5 -1 -10 -9 -10
-9 0 -16 5 -16 10 0 6 4 10 9 10 6 0 13 -4 16 -10z m327 -67 c-39 -16 -41 -23
-5 -17 33 6 26 -4 -8 -12 -47 -11 -89 -12 -89 -3 0 5 9 9 21 9 11 0 36 11 56
25 20 13 41 21 47 18 6 -4 -4 -13 -22 -20z m-367 -3 c3 -5 1 -10 -4 -10 -6 0
-11 5 -11 10 0 6 2 10 4 10 3 0 8 -4 11 -10z m100 -19 c6 -10 -11 -24 -32 -27
-7 -1 -13 2 -13 7 0 5 7 9 16 9 8 0 12 5 9 10 -3 6 -2 10 4 10 5 0 12 -4 16
-9z m60 -63 l20 -23 -21 18 c-12 9 -28 15 -37 12 -17 -7 -32 10 -22 25 8 13
34 -1 60 -32z m183 19 c9 3 14 3 11 -1 -4 -4 -16 -8 -27 -11 -16 -3 -19 0 -15
13 4 9 8 11 10 5 3 -7 12 -9 21 -6z m-257 -14 c13 -16 12 -17 -3 -4 -10 7 -18
15 -18 17 0 8 8 3 21 -13z m66 -69 c0 -18 0 -18 -21 5 -17 19 -17 19 1 15 11
-3 20 -12 20 -20z"/>
<path d="M680 390 c0 -5 5 -10 11 -10 5 0 7 5 4 10 -3 6 -8 10 -11 10 -2 0 -4
-4 -4 -10z"/>
<path d="M853 675 c0 -8 4 -12 8 -10 4 3 9 -1 12 -9 4 -9 14 -12 26 -9 14 3
23 0 27 -11 3 -9 14 -16 23 -16 13 1 12 4 -6 19 -12 10 -19 22 -15 25 3 4 -1
4 -11 0 -11 -4 -19 0 -23 11 -5 13 -9 14 -15 3 -7 -10 -9 -10 -9 0 0 6 -4 12
-8 12 -5 0 -9 -7 -9 -15z"/>
<path d="M751 664 c0 -11 3 -14 6 -6 3 7 2 16 -1 19 -3 4 -6 -2 -5 -13z"/>
<path d="M970 660 c0 -5 5 -10 10 -10 6 0 10 5 10 10 0 6 -4 10 -10 10 -5 0
-10 -4 -10 -10z"/>
<path d="M335 632 c-3 -13 -4 -27 -1 -29 8 -8 27 8 21 17 -3 5 -1 11 5 15 15
9 12 22 -4 22 -8 0 -17 -11 -21 -25z"/>
<path d="M1741 648 c0 -10 -6 -18 -12 -18 -5 0 -7 -5 -3 -11 10 -16 27 5 21
27 -4 17 -5 17 -6 2z"/>
<path d="M2144 649 c-3 -6 -1 -16 5 -22 8 -8 11 -5 11 11 0 24 -5 28 -16 11z"/>
<path d="M465 631 c-3 -5 0 -13 6 -17 7 -4 9 -3 5 4 -3 5 0 13 6 15 9 4 10 6
1 6 -6 1 -14 -3 -18 -8z"/>
<path d="M854 619 c-8 -14 14 -19 25 -6 8 10 7 14 -5 14 -8 0 -17 -4 -20 -8z"/>
<path d="M1827 613 c3 -7 9 -13 14 -13 5 0 9 -4 9 -10 0 -5 -8 -7 -17 -4 -10
3 -5 -2 10 -11 35 -20 86 -13 65 9 -7 7 -26 16 -42 20 -15 4 -26 9 -23 12 2 3
23 -2 45 -9 42 -15 52 -13 52 8 0 8 -21 12 -59 12 -45 0 -58 -3 -54 -14z m66
-40 c-7 -2 -19 -2 -25 0 -7 3 -2 5 12 5 14 0 19 -2 13 -5z"/>
<path d="M486 595 c-3 -8 -1 -15 3 -15 5 0 11 7 15 15 3 8 1 15 -3 15 -5 0
-11 -7 -15 -15z"/>
<path d="M804 599 c-2 -4 0 -10 5 -14 6 -3 7 -13 4 -23 -4 -13 -2 -13 10 3 9
11 17 25 17 31 0 12 -28 15 -36 3z"/>
<path d="M975 600 c3 -5 8 -10 11 -10 2 0 4 5 4 10 0 6 -5 10 -11 10 -5 0 -7
-4 -4 -10z"/>
<path d="M1696 595 c-9 -23 -7 -33 3 -17 7 11 9 11 14 -2 4 -9 2 -16 -4 -16
-6 0 -9 -7 -5 -15 3 -8 -4 -21 -15 -29 -13 -9 -16 -16 -10 -21 6 -3 11 -3 11
1 0 4 9 -1 19 -10 21 -19 34 -56 20 -56 -5 0 -9 4 -9 8 0 5 -7 17 -16 28 -8
10 -13 14 -10 7 4 -6 -2 -14 -11 -16 -15 -4 -14 -5 3 -6 13 -1 26 -14 37 -36
9 -19 22 -35 29 -35 10 0 10 2 -1 9 -10 7 -10 10 -1 13 10 3 10 9 1 27 -11 19
-10 25 6 37 10 7 21 14 25 14 9 0 6 -30 -5 -47 -5 -7 0 -9 14 -6 20 6 40 40
44 77 2 16 0 17 -9 4 -10 -13 -15 -14 -30 -3 -10 8 -23 12 -30 9 -7 -3 -12 5
-13 18 -1 59 -3 66 -20 64 -10 -2 -21 1 -24 6 -3 5 -9 2 -13 -7z m41 -39 c-4
-9 -12 -16 -19 -16 -11 0 -11 2 0 8 7 5 10 16 6 28 -6 15 -4 17 6 7 7 -6 10
-19 7 -27z m10 -31 c-4 -8 -1 -17 5 -21 7 -4 4 -10 -7 -17 -14 -7 -21 -5 -31
8 -16 21 -9 36 11 28 8 -3 15 0 15 6 0 6 3 11 6 11 3 0 4 -7 1 -15z m78 -45
c-3 -5 -12 -10 -18 -10 -7 0 -6 4 3 10 19 12 23 12 15 0z"/>
<path d="M760 584 c0 -5 8 -14 18 -21 15 -9 19 -8 19 3 0 8 -3 12 -5 9 -3 -3
-11 0 -19 6 -7 6 -13 7 -13 3z"/>
<path d="M516 567 c3 -10 9 -15 12 -12 3 3 0 11 -7 18 -10 9 -11 8 -5 -6z"/>
<path d="M1408 560 c-10 -11 -14 -20 -10 -20 4 0 0 -5 -8 -10 -8 -5 -10 -10
-5 -10 13 0 43 20 30 20 -5 0 -4 4 4 9 7 5 12 14 10 20 -3 7 -11 3 -21 -9z"/>
<path d="M737 563 c-4 -3 -7 -13 -7 -21 0 -9 3 -12 7 -9 3 4 12 2 20 -4 10 -9
13 -7 13 9 0 16 -4 20 -17 15 -11 -4 -14 -3 -9 5 8 13 3 16 -7 5z"/>
<path d="M950 560 c0 -5 5 -10 11 -10 5 0 7 5 4 10 -3 6 -8 10 -11 10 -2 0 -4
-4 -4 -10z"/>
<path d="M1545 559 c-4 -6 -5 -12 -2 -15 2 -3 7 2 10 11 7 17 1 20 -8 4z"/>
<path d="M500 543 c0 -15 18 -35 23 -27 3 5 -1 15 -9 22 -8 7 -14 9 -14 5z"/>
<path d="M689 545 c-10 -19 -4 -40 13 -43 12 -2 16 3 15 17 0 11 -4 18 -8 15
-4 -2 -9 1 -11 8 -3 7 -7 8 -9 3z"/>
<path d="M1006 538 c3 -5 10 -6 15 -3 13 9 11 12 -6 12 -8 0 -12 -4 -9 -9z"/>
<path d="M781 524 c0 -11 3 -14 6 -6 3 7 2 16 -1 19 -3 4 -6 -2 -5 -13z"/>
<path d="M1276 520 c-19 -6 -19 -7 2 -12 12 -4 24 -2 27 2 8 13 -8 18 -29 10z"/>
<path d="M1508 523 c6 -2 18 -2 25 0 6 3 1 5 -13 5 -14 0 -19 -2 -12 -5z"/>
<path d="M437 503 c-4 -3 0 -15 10 -25 9 -10 11 -18 5 -18 -13 0 -26 -36 -17
-50 5 -8 11 -7 21 1 10 8 14 8 14 1 0 -6 7 -9 15 -6 10 4 15 0 15 -10 0 -21
-42 -38 -53 -22 -4 6 -5 0 -3 -14 3 -14 5 -27 5 -29 1 -3 10 5 21 17 19 20 22
21 44 7 20 -14 24 -14 29 -1 8 20 -4 28 -21 13 -13 -10 -14 -9 -4 9 6 12 8 24
5 28 -3 3 -1 6 6 6 9 0 9 5 1 20 -13 24 -23 25 -44 4 -19 -18 -21 -3 -5 28 8
14 8 23 0 31 -8 8 -11 8 -11 -2 0 -7 -5 -9 -10 -6 -6 4 -8 11 -5 16 7 10 -8
12 -18 2z m23 -72 c0 -6 -4 -12 -8 -15 -5 -3 -9 1 -9 9 0 8 4 15 9 15 4 0 8
-4 8 -9z"/>
<path d="M807 497 c-11 -29 -9 -43 4 -30 6 6 9 19 7 29 -3 18 -4 18 -11 1z"/>
<path d="M1213 498 c-4 -7 -8 -17 -8 -23 -1 -5 -7 -9 -14 -7 -7 1 -9 -2 -6 -9
5 -7 15 -3 31 12 13 12 21 26 18 30 -7 12 -11 11 -21 -3z"/>
<path d="M525 480 c3 -5 8 -10 11 -10 2 0 4 5 4 10 0 6 -5 10 -11 10 -5 0 -7
-4 -4 -10z"/>
<path d="M760 475 c0 -8 -6 -15 -13 -15 -7 0 -18 -10 -25 -21 -12 -18 -8 -17
27 7 43 31 51 44 26 44 -8 0 -15 -7 -15 -15z"/>
<path d="M1760 450 c0 -5 5 -10 11 -10 5 0 7 5 4 10 -3 6 -8 10 -11 10 -2 0
-4 -4 -4 -10z"/>
<path d="M1805 410 c3 -5 11 -10 16 -10 6 0 7 5 4 10 -3 6 -11 10 -16 10 -6 0
-7 -4 -4 -10z"/>
<path d="M1056 401 c-4 -5 -2 -12 3 -15 5 -4 12 -2 15 3 4 5 2 12 -3 15 -5 4
-12 2 -15 -3z"/>
<path d="M540 390 c0 -6 5 -10 11 -10 6 0 8 -7 5 -16 -3 -9 1 -25 9 -37 8 -12
15 -16 15 -10 0 7 -4 14 -9 17 -4 3 -6 16 -4 29 3 16 -1 26 -11 30 -9 4 -16 2
-16 -3z"/>
<path d="M650 330 c0 -5 4 -10 9 -10 6 0 13 5 16 10 3 6 -1 10 -9 10 -9 0 -16
-4 -16 -10z"/>
<path d="M490 315 c6 -8 18 -11 26 -8 18 7 13 12 -16 18 -18 3 -20 2 -10 -10z"/>
<path d="M540 320 c0 -5 5 -10 11 -10 5 0 7 5 4 10 -3 6 -8 10 -11 10 -2 0 -4
-4 -4 -10z"/>
<path d="M879 313 c0 -10 -2 -26 -4 -35 -2 -12 2 -15 13 -10 9 3 11 7 5 9 -5
2 -8 15 -5 28 2 14 2 25 -2 25 -3 0 -6 -8 -7 -17z"/>
<path d="M936 321 c-4 -5 -2 -12 3 -15 5 -4 12 -2 15 3 4 5 2 12 -3 15 -5 4
-12 2 -15 -3z"/>
<path d="M516 277 c3 -10 9 -15 12 -12 3 3 0 11 -7 18 -10 9 -11 8 -5 -6z"/>
<path d="M652 250 c-25 -14 -29 -19 -16 -24 23 -9 36 -7 29 4 -7 12 5 13 20 2
13 -9 19 -42 8 -43 -54 -4 -100 -19 -60 -19 8 0 17 -3 20 -7 2 -5 2 -2 1 5 -2
8 5 11 21 8 15 -3 25 0 25 7 0 7 7 3 15 -7 8 -11 15 -14 15 -7 0 7 5 9 12 5 7
-4 8 -3 4 5 -4 6 -11 9 -16 6 -5 -3 -14 4 -20 15 -9 16 -8 20 4 20 9 0 21 10
27 23 12 21 11 22 -8 4 -22 -19 -57 -13 -49 9 3 8 4 13 3 13 -1 -1 -17 -9 -35
-19z"/>
<path d="M790 256 c0 -2 7 -7 16 -10 8 -3 12 -2 9 4 -6 10 -25 14 -25 6z"/>
<path d="M846 211 c3 -7 0 -18 -7 -23 -11 -8 -10 -9 3 -4 10 3 18 -1 21 -12 4
-14 5 -14 6 -1 0 8 -6 24 -15 35 -8 10 -12 13 -8 5z"/>
<path d="M975 1150 c-3 -5 -2 -10 4 -10 5 0 13 5 16 10 3 6 2 10 -4 10 -5 0
-13 -4 -16 -10z"/>
<path d="M1805 1100 c3 -5 8 -10 11 -10 2 0 4 5 4 10 0 6 -5 10 -11 10 -5 0
-7 -4 -4 -10z"/>
<path d="M1843 1088 c1 -7 -6 -12 -15 -10 -10 2 -18 -2 -18 -8 0 -6 5 -8 12
-4 8 5 9 1 5 -12 -7 -18 -6 -18 8 1 9 11 23 26 32 33 15 11 15 12 -5 12 -12 0
-21 -6 -19 -12z"/>
<path d="M1056 1065 c4 -8 8 -15 10 -15 2 0 4 7 4 15 0 8 -4 15 -10 15 -5 0
-7 -7 -4 -15z"/>
<path d="M547 688 c-29 -33 -36 -48 -12 -28 8 6 18 9 22 7 5 -3 13 6 20 19 17
36 0 37 -30 2z"/>
<path d="M2520 799 c0 -5 5 -7 10 -4 6 3 10 8 10 11 0 2 -4 4 -10 4 -5 0 -10
-5 -10 -11z"/>
<path d="M2410 660 c0 -5 0 -13 -1 -17 0 -4 8 -10 19 -14 21 -8 24 4 9 29 -10
14 -27 16 -27 2z"/>
<path d="M266 372 c-4 -7 -2 -12 4 -12 6 0 9 -10 7 -22 -2 -13 -2 -17 0 -10 3
7 9 10 14 7 5 -4 9 -3 10 2 0 4 2 16 4 26 3 14 0 16 -10 7 -10 -8 -14 -8 -17
2 -3 9 -6 9 -12 0z"/>
<path d="M2224 1815 c19 -15 19 -15 -4 -15 -20 0 -21 -15 -2 -15 4 0 14 -4 22
-9 8 -5 12 -6 8 -2 -4 5 5 19 20 32 l27 23 -45 0 c-42 0 -44 -1 -26 -14z"/>
<path d="M2741 1745 c0 -12 -7 -27 -13 -33 -10 -10 -10 -15 2 -22 17 -11 25
13 17 53 -4 20 -4 20 -6 2z"/>
<path d="M0 1646 c0 -8 6 -17 13 -20 10 -5 9 -7 0 -12 -17 -8 -17 -34 0 -34
23 0 47 -35 46 -66 l-1 -29 -9 33 c-5 17 -14 32 -19 32 -12 0 -12 -11 -1 -29
6 -9 5 -24 -2 -40 -12 -25 -12 -25 -18 14 -6 34 -6 32 -6 -17 1 -32 2 -58 4
-58 1 0 28 25 60 57 41 40 57 62 54 77 -5 34 -39 93 -56 100 -30 11 -65 7 -65
-8z"/>
<path d="M2050 1655 c0 -5 5 -17 10 -25 5 -8 10 -10 10 -5 0 6 -5 17 -10 25
-5 8 -10 11 -10 5z"/>
<path d="M0 1354 c0 -14 4 -23 10 -19 13 8 13 45 0 45 -5 0 -10 -12 -10 -26z"/>
<path d="M2740 1365 c0 -8 -6 -15 -14 -15 -7 0 -20 -7 -27 -16 -11 -14 -10
-19 9 -34 13 -11 18 -21 12 -25 -15 -9 -12 -20 10 -46 l19 -24 1 52 c0 45 -2
52 -17 47 -16 -5 -16 -4 -3 8 15 13 27 68 16 68 -3 0 -6 -7 -6 -15z"/>
</g>
</svg>
