<svg width="800" height="600" viewBox="0 0 800 600" xmlns="http://www.w3.org/2000/svg">
  <defs>
    <filter id="glow" x="-50%" y="-50%" width="200%" height="200%">
      <feGaussianBlur stdDeviation="5" result="blur" />
      <feComposite in="SourceGraphic" in2="blur" operator="over" />
    </filter>
  </defs>
  
  <!-- Dragon Body -->
  <path d="M750,300 C730,220 710,150 650,150 C600,150 580,180 550,200 C520,220 480,250 450,250 C420,250 390,230 350,230 C310,230 290,250 250,250 C210,250 180,230 150,230 C120,230 100,250 80,280 C60,310 50,350 50,400 C50,450 70,500 100,530 C130,560 170,580 220,580 C270,580 310,560 340,530 C370,500 390,450 420,450 C450,450 470,470 500,470 C530,470 550,450 570,420 C590,390 600,350 620,330 C640,310 670,300 700,320 C730,340 750,380 750,420" 
        fill="none" stroke="#FFD700" stroke-width="3" stroke-linecap="round" stroke-linejoin="round" filter="url(#glow)" />
  
  <!-- Dragon Head -->
  <path d="M750,300 C740,280 730,260 720,250 C710,240 700,235 690,235 C680,235 670,240 660,250 C650,260 645,275 640,290 C635,305 632,320 630,335 C628,350 627,365 627,380" 
        fill="none" stroke="#FFD700" stroke-width="3" stroke-linecap="round" stroke-linejoin="round" />
  
  <!-- Dragon Eye -->
  <circle cx="678" cy="250" r="5" fill="#FF4500" />
  
  <!-- Dragon Whiskers -->
  <path d="M650,260 C645,265 640,270 630,275 M650,270 C640,275 630,280 620,280" 
        fill="none" stroke="#FFD700" stroke-width="2" stroke-linecap="round" />
  
  <!-- Dragon Spikes -->
  <path d="M710,235 L720,215 M690,250 L700,230 M670,265 L680,245 M650,280 L660,260 M630,295 L640,275 M610,310 L620,290 M590,325 L600,305 M570,340 L580,320 M550,355 L560,335 M530,370 L540,350 M510,385 L520,365 M490,400 L500,380 M470,415 L480,395 M450,430 L460,410 M430,445 L440,425 M410,460 L420,440 M390,475 L400,455 M370,490 L380,470 M350,505 L360,485 M330,520 L340,500 M310,535 L320,515 M290,550 L300,530 M270,565 L280,545" 
        fill="none" stroke="#FFD700" stroke-width="2" stroke-linecap="round" />
  
  <!-- Dragon Fire -->
  <path d="M750,300 C770,290 790,280 800,270 M750,300 C770,300 790,300 800,300 M750,300 C770,310 790,320 800,330" 
        fill="none" stroke="#FF4500" stroke-width="3" stroke-linecap="round" opacity="0.7" />
  
  <!-- Dragon Legs -->
  <path d="M200,450 C190,470 180,490 170,500 M170,500 C160,510 150,515 140,515 M340,450 C350,470 360,490 370,500 M370,500 C380,510 390,515 400,515" 
        fill="none" stroke="#FFD700" stroke-width="3" stroke-linecap="round" />
  
  <!-- Dragon Claws -->
  <path d="M140,515 L130,525 M140,515 L140,530 M140,515 L150,525 M400,515 L390,525 M400,515 L400,530 M400,515 L410,525" 
        fill="none" stroke="#FFD700" stroke-width="2" stroke-linecap="round" />
</svg>
